<svg width="152" height="235" viewBox="0 0 152 235" fill="none" xmlns="http://www.w3.org/2000/svg">
<path d="M151.5 2C151.5 1.17157 150.828 0.5 150 0.5C149.172 0.5 148.5 1.17157 148.5 2H151.5ZM46.5 77L47.8265 77.7004L46.5 77ZM0.0850773 228.502C-0.189955 229.283 0.22057 230.14 1.00201 230.415L13.7363 234.897C14.5178 235.172 15.3742 234.761 15.6492 233.98C15.9243 233.198 15.5137 232.342 14.7323 232.067L3.41291 228.083L7.39683 216.764C7.67186 215.982 7.26134 215.126 6.4799 214.851C5.69846 214.576 4.84202 214.986 4.56698 215.768L0.0850773 228.502ZM4.9198 228.964C5.65358 228.579 5.9367 227.673 5.55218 226.939C5.16765 226.205 4.26108 225.922 3.52731 226.306L4.9198 228.964ZM8.59666 223.393C7.89608 223.835 7.68657 224.762 8.12871 225.462C8.57084 226.163 9.49719 226.372 10.1978 225.93L8.59666 223.393ZM15.2055 222.435C15.8607 221.928 15.981 220.986 15.4741 220.33C14.9672 219.675 14.0251 219.555 13.3699 220.062L15.2055 222.435ZM17.75 216.276C17.155 216.853 17.1399 217.802 17.7163 218.398C18.2927 218.993 19.2423 219.008 19.8373 218.431L17.75 216.276ZM23.9808 213.893C24.4997 213.247 24.3969 212.303 23.7511 211.784C23.1054 211.265 22.1612 211.368 21.6423 212.014L23.9808 213.893ZM24.9604 207.28C24.5307 207.988 24.7566 208.911 25.4648 209.34C26.1731 209.77 27.0956 209.544 27.5253 208.836L24.9604 207.28ZM30.3717 203.375C30.7071 202.617 30.365 201.731 29.6075 201.396C28.85 201.06 27.964 201.403 27.6286 202.16L30.3717 203.375ZM29.6554 196.731C29.4102 197.523 29.8529 198.363 30.6442 198.608C31.4355 198.854 32.2757 198.411 32.521 197.62L29.6554 196.731ZM34.0326 191.694C34.199 190.883 33.6759 190.09 32.8644 189.923C32.0528 189.757 31.2601 190.28 31.0937 191.092L34.0326 191.694ZM32.0339 185.309C31.9319 186.131 32.5156 186.88 33.3377 186.982C34.1599 187.084 34.909 186.5 35.0111 185.678L32.0339 185.309ZM35.5687 179.637C35.6212 178.81 34.9936 178.098 34.1669 178.045C33.3401 177.992 32.6273 178.62 32.5747 179.447L35.5687 179.637ZM32.8137 173.549C32.797 174.377 33.455 175.062 34.2833 175.078C35.1115 175.095 35.7964 174.437 35.8131 173.609L32.8137 173.549ZM35.839 167.59C35.8313 166.761 35.1535 166.096 34.3251 166.104C33.4967 166.112 32.8314 166.789 32.8391 167.618L35.839 167.59ZM32.7267 161.665C32.7487 162.493 33.4379 163.147 34.266 163.125C35.0942 163.103 35.7477 162.414 35.7256 161.585L32.7267 161.665ZM35.5408 155.596C35.5131 154.768 34.8194 154.12 33.9915 154.147C33.1635 154.175 32.5148 154.869 32.5425 155.697L35.5408 155.596ZM32.3449 149.723C32.3708 150.551 33.063 151.201 33.891 151.175C34.719 151.15 35.3693 150.457 35.3435 149.629L32.3449 149.723ZM35.1848 143.675C35.1676 142.846 34.4823 142.189 33.654 142.206C32.8258 142.223 32.1683 142.909 32.1855 143.737L35.1848 143.675ZM32.1111 137.736C32.1135 138.565 32.7869 139.234 33.6154 139.232C34.4438 139.23 35.1134 138.556 35.1111 137.728L32.1111 137.736ZM35.1645 131.79C35.1827 130.962 34.526 130.276 33.6978 130.258C32.8696 130.24 32.1834 130.896 32.1652 131.725L35.1645 131.79ZM32.3883 125.707C32.3443 126.534 32.9792 127.24 33.8065 127.284C34.6337 127.328 35.34 126.693 35.3841 125.866L32.3883 125.707ZM35.8054 119.962C35.8801 119.137 35.2718 118.407 34.4468 118.333C33.6217 118.258 32.8923 118.866 32.8176 119.691L35.8054 119.962ZM33.4872 113.69C33.3775 114.511 33.9543 115.266 34.7754 115.375C35.5966 115.485 36.3511 114.908 36.4608 114.087L33.4872 113.69ZM37.3782 108.255C37.5265 107.44 36.986 106.659 36.171 106.511C35.356 106.363 34.575 106.903 34.4267 107.718L37.3782 108.255ZM35.6604 101.795C35.4705 102.601 35.9703 103.409 36.7767 103.599C37.583 103.788 38.3907 103.289 38.5805 102.482L35.6604 101.795ZM40.0848 96.7859C40.3182 95.991 39.863 95.1574 39.0681 94.9241C38.2732 94.6907 37.4397 95.1459 37.2063 95.9408L40.0848 96.7859ZM39.075 90.1795C38.7972 90.96 39.2046 91.8179 39.9851 92.0957C40.7655 92.3735 41.6234 91.9661 41.9012 91.1856L39.075 90.1795ZM44.0331 85.7005C44.3553 84.9373 43.9978 84.0574 43.2346 83.7352C42.4714 83.413 41.5915 83.7705 41.2693 84.5337L44.0331 85.7005ZM43.7847 79.0241C43.4191 79.7675 43.7254 80.6665 44.4688 81.032C45.2123 81.3976 46.1113 81.0913 46.4768 80.3479L43.7847 79.0241ZM49.2774 75.0616C49.6889 74.3426 49.4397 73.4262 48.7207 73.0147C48.0017 72.6031 47.0853 72.8524 46.6737 73.5714L49.2774 75.0616ZM49.919 68.3317C49.4583 69.0202 49.6429 69.9519 50.3315 70.4126C51.02 70.8733 51.9516 70.6886 52.4123 70.0001L49.919 68.3317ZM55.8969 65.1775C56.4061 64.524 56.2892 63.5815 55.6357 63.0723C54.9823 62.5631 54.0398 62.68 53.5305 63.3334L55.8969 65.1775ZM57.4972 58.611C56.9415 59.2253 56.989 60.1739 57.6033 60.7297C58.2177 61.2854 59.1662 61.2379 59.722 60.6235L57.4972 58.611ZM63.8699 56.3624C64.4689 55.7901 64.4907 54.8406 63.9184 54.2416C63.3462 53.6426 62.3967 53.6208 61.7977 54.193L63.8699 56.3624ZM66.4018 50.099C65.7637 50.6273 65.6748 51.5729 66.2031 52.211C66.7314 52.8491 67.677 52.938 68.3151 52.4097L66.4018 50.099ZM73.037 48.7643C73.7093 48.2803 73.8619 47.3428 73.3779 46.6705C72.8938 45.9982 71.9564 45.8456 71.2841 46.3297L73.037 48.7643ZM76.395 42.8915C75.6937 43.3324 75.4825 44.2584 75.9234 44.9597C76.3643 45.6611 77.2903 45.8722 77.9916 45.4313L76.395 42.8915ZM83.142 42.3986C83.8674 41.9984 84.1309 41.0859 83.7307 40.3606C83.3305 39.6353 82.4181 39.3717 81.6927 39.7719L83.142 42.3986ZM87.1388 36.9479C86.3942 37.3109 86.0849 38.2089 86.448 38.9535C86.811 39.6982 87.709 40.0075 88.4536 39.6444L87.1388 36.9479ZM93.9019 37.137C94.6617 36.8066 95.0097 35.9229 94.6793 35.1632C94.3489 34.4035 93.4653 34.0555 92.7056 34.3858L93.9019 37.137ZM98.3648 32.049C97.5937 32.3519 97.2142 33.2225 97.5171 33.9936C97.82 34.7646 98.6906 35.1442 99.4617 34.8413L98.3648 32.049ZM105.096 32.7218C105.875 32.4403 106.279 31.5805 105.997 30.8013C105.716 30.0222 104.856 29.6188 104.077 29.9003L105.096 32.7218ZM109.823 27.8887C109.039 28.1559 108.62 29.0082 108.887 29.7923C109.154 30.5765 110.007 30.9956 110.791 30.7285L109.823 27.8887ZM116.537 28.8009C117.324 28.5396 117.749 27.6905 117.488 26.9043C117.226 26.1182 116.377 25.6927 115.591 25.954L116.537 28.8009ZM121.319 24.0383C120.535 24.3045 120.115 25.1563 120.381 25.9408C120.647 26.7253 121.499 27.1454 122.284 26.8791L121.319 24.0383ZM128.056 24.8504C128.833 24.5643 129.231 23.7022 128.945 22.9247C128.659 22.1472 127.797 21.7489 127.02 22.0349L128.056 24.8504ZM132.582 19.8355C131.821 20.1632 131.47 21.0456 131.797 21.8065C132.125 22.5673 133.007 22.9185 133.768 22.5908L132.582 19.8355ZM139.351 19.8756C140.074 19.472 140.333 18.5584 139.93 17.8349C139.526 17.1115 138.612 16.8522 137.889 17.2558L139.351 19.8756ZM142.677 14.0277C142.042 14.5595 141.958 15.5055 142.49 16.1407C143.022 16.7759 143.968 16.8598 144.603 16.328L142.677 14.0277ZM148.919 11.4569C149.355 10.7528 149.138 9.82814 148.434 9.39157C147.73 8.95499 146.806 9.17183 146.369 9.87589L148.919 11.4569ZM148.278 4.77948C148.141 5.59658 148.693 6.36964 149.51 6.50616C150.327 6.64269 151.1 6.09097 151.237 5.27387L148.278 4.77948ZM2.14837 230.353C3.0976 229.898 4.02119 229.435 4.9198 228.964L3.52731 226.306C2.66118 226.76 1.76954 227.207 0.85163 227.647L2.14837 230.353ZM10.1978 225.93C11.983 224.803 13.6498 223.638 15.2055 222.435L13.3699 220.062C11.8931 221.204 10.3049 222.315 8.59666 223.393L10.1978 225.93ZM19.8373 218.431C21.3511 216.965 22.7285 215.452 23.9808 213.893L21.6423 212.014C20.4692 213.474 19.1758 214.895 17.75 216.276L19.8373 218.431ZM27.5253 208.836C28.6022 207.061 29.5459 205.239 30.3717 203.375L27.6286 202.16C26.8528 203.912 25.9681 205.619 24.9604 207.28L27.5253 208.836ZM32.521 197.62C33.1216 195.681 33.6203 193.705 34.0326 191.694L31.0937 191.092C30.6993 193.015 30.2244 194.896 29.6554 196.731L32.521 197.62ZM35.0111 185.678C35.2574 183.694 35.4388 181.679 35.5687 179.637L32.5747 179.447C32.4482 181.437 32.2719 183.392 32.0339 185.309L35.0111 185.678ZM35.8131 173.609C35.8528 171.626 35.8578 169.619 35.839 167.59L32.8391 167.618C32.8577 169.624 32.8527 171.601 32.8137 173.549L35.8131 173.609ZM35.7256 161.585C35.673 159.608 35.6083 157.61 35.5408 155.596L32.5425 155.697C32.6099 157.71 32.6744 159.699 32.7267 161.665L35.7256 161.585ZM35.3435 149.629C35.282 147.659 35.2264 145.674 35.1848 143.675L32.1855 143.737C32.2273 145.75 32.2832 147.747 32.3449 149.723L35.3435 149.629ZM35.1111 137.728C35.1055 135.76 35.1208 133.781 35.1645 131.79L32.1652 131.725C32.1209 133.743 32.1054 135.748 32.1111 137.736L35.1111 137.728ZM35.3841 125.866C35.4883 123.907 35.6265 121.939 35.8054 119.962L32.8176 119.691C32.6351 121.708 32.4944 123.714 32.3883 125.707L35.3841 125.866ZM36.4608 114.087C36.7195 112.15 37.0232 110.206 37.3782 108.255L34.4267 107.718C34.0628 109.718 33.7519 111.709 33.4872 113.69L36.4608 114.087ZM38.5805 102.482C39.0265 100.588 39.526 98.6892 40.0848 96.7859L37.2063 95.9408C36.6317 97.898 36.1183 99.8496 35.6604 101.795L38.5805 102.482ZM41.9012 91.1856C42.5509 89.3605 43.2599 87.5319 44.0331 85.7005L41.2693 84.5337C40.4733 86.419 39.7436 88.3012 39.075 90.1795L41.9012 91.1856ZM46.4768 80.3479C46.9105 79.4659 47.3602 78.5834 47.8265 77.7004L45.1735 76.2996C44.6938 77.2082 44.2311 78.1163 43.7847 79.0241L46.4768 80.3479ZM47.8265 77.7004C48.3002 76.8031 48.784 75.9237 49.2774 75.0616L46.6737 73.5714C46.1634 74.4631 45.6631 75.3724 45.1735 76.2996L47.8265 77.7004ZM52.4123 70.0001C53.5359 68.3209 54.6988 66.7148 55.8969 65.1775L53.5305 63.3334C52.2883 64.9275 51.083 66.5922 49.919 68.3317L52.4123 70.0001ZM59.722 60.6235C61.0707 59.1326 62.455 57.7139 63.8699 56.3624L61.7977 54.193C60.3312 55.5938 58.896 57.0647 57.4972 58.611L59.722 60.6235ZM68.3151 52.4097C69.8623 51.1286 71.4381 49.9155 73.037 48.7643L71.2841 46.3297C69.6326 47.5187 68.0032 48.7731 66.4018 50.099L68.3151 52.4097ZM77.9916 45.4313C79.6918 44.3626 81.4106 43.3539 83.142 42.3986L81.6927 39.7719C79.9146 40.753 78.1464 41.7905 76.395 42.8915L77.9916 45.4313ZM88.4536 39.6444C90.2656 38.7609 92.084 37.9275 93.9019 37.137L92.7056 34.3858C90.8516 35.1921 88.9935 36.0435 87.1388 36.9479L88.4536 39.6444ZM99.4617 34.8413C101.351 34.099 103.232 33.3954 105.096 32.7218L104.077 29.9003C102.191 30.5816 100.284 31.295 98.3648 32.049L99.4617 34.8413ZM110.791 30.7285C112.739 30.0648 114.656 29.4262 116.537 28.8009L115.591 25.954C113.71 26.5793 111.783 27.2211 109.823 27.8887L110.791 30.7285ZM122.284 26.8791C124.271 26.2047 126.2 25.533 128.056 24.8504L127.02 22.0349C125.197 22.7055 123.294 23.3683 121.319 24.0383L122.284 26.8791ZM133.768 22.5908C135.754 21.7357 137.624 20.8389 139.351 19.8756L137.889 17.2558C136.273 18.1574 134.498 19.0099 132.582 19.8355L133.768 22.5908ZM144.603 16.328C146.325 14.8859 147.788 13.2798 148.919 11.4569L146.369 9.87589C145.436 11.3812 144.2 12.7526 142.677 14.0277L144.603 16.328ZM151.237 5.27387C151.412 4.2279 151.5 3.13764 151.5 2H148.5C148.5 2.98166 148.424 3.90616 148.278 4.77948L151.237 5.27387Z" fill="#CACACA"/>
</svg>
