<svg width="179" height="300" viewBox="0 0 179 300" fill="none" xmlns="http://www.w3.org/2000/svg">
<path d="M179 1.5C179 0.671573 178.328 0 177.5 0C176.672 0 176 0.671573 176 1.5H179ZM30 49L31.1365 49.979L30 49ZM29.3756 299.864C30.1289 300.209 31.019 299.878 31.3638 299.124L36.9831 286.849C37.3279 286.096 36.9968 285.206 36.2435 284.861C35.4903 284.516 34.6001 284.847 34.2553 285.601L29.2604 296.512L18.3494 291.517C17.5961 291.172 16.706 291.503 16.3611 292.256C16.0163 293.01 16.3474 293.9 17.1007 294.245L29.3756 299.864ZM30.4004 295.244C30.1172 294.465 29.2565 294.064 28.478 294.347C27.6995 294.63 27.2979 295.491 27.5811 296.269L30.4004 295.244ZM25.5987 290.696C25.8709 291.479 26.7258 291.892 27.5083 291.62C28.2907 291.348 28.7044 290.493 28.4322 289.711L25.5987 290.696ZM26.5475 284.17C26.2861 283.384 25.4369 282.959 24.6508 283.22C23.8647 283.482 23.4394 284.331 23.7009 285.117L26.5475 284.17ZM21.8768 279.508C22.1278 280.297 22.9713 280.734 23.7608 280.483C24.5503 280.232 24.9868 279.389 24.7358 278.599L21.8768 279.508ZM22.9942 272.994C22.7535 272.201 21.9158 271.754 21.1231 271.995C20.3304 272.235 19.883 273.073 20.1236 273.866L22.9942 272.994ZM18.4459 268.21C18.6765 269.006 19.5084 269.464 20.3041 269.234C21.0998 269.003 21.558 268.171 21.3274 267.375L18.4459 268.21ZM19.7323 261.738C19.5118 260.94 18.6856 260.471 17.8871 260.692C17.0886 260.912 16.62 261.738 16.8406 262.537L19.7323 261.738ZM15.3041 256.835C15.5147 257.637 16.3349 258.115 17.1361 257.905C17.9373 257.694 18.4161 256.874 18.2055 256.073L15.3041 256.835ZM16.7502 250.394C16.5495 249.59 15.7353 249.101 14.9315 249.302C14.1278 249.502 13.6389 250.317 13.8396 251.12L16.7502 250.394ZM12.4461 245.39C12.6369 246.196 13.4451 246.695 14.2513 246.504C15.0574 246.313 15.5563 245.505 15.3655 244.699L12.4461 245.39ZM14.0497 238.983C13.8689 238.174 13.0669 237.665 12.2584 237.846C11.45 238.027 10.9412 238.829 11.1221 239.637L14.0497 238.983ZM9.86976 233.873C10.0406 234.683 10.8363 235.202 11.6469 235.031C12.4575 234.86 12.9761 234.064 12.8053 233.254L9.86976 233.873ZM11.6318 227.51C11.4711 226.698 10.6819 226.169 9.86925 226.33C9.05657 226.491 8.52809 227.28 8.68886 228.092L11.6318 227.51ZM7.57993 222.296C7.73048 223.111 8.51291 223.649 9.32754 223.499C10.1422 223.348 10.6805 222.566 10.53 221.751L7.57993 222.296ZM9.50127 215.98C9.3611 215.164 8.58557 214.615 7.76909 214.755C6.95261 214.896 6.40436 215.671 6.54453 216.488L9.50127 215.98ZM5.58338 210.664C5.71299 211.483 6.48136 212.041 7.29958 211.911C8.11781 211.782 8.67604 211.013 8.54643 210.195L5.58338 210.664ZM7.66759 204.401C7.54877 203.581 6.78782 203.013 5.96796 203.132C5.14809 203.25 4.57979 204.011 4.6986 204.831L7.66759 204.401ZM3.89129 198.984C3.99905 199.806 4.75227 200.384 5.57366 200.277C6.39505 200.169 6.97356 199.416 6.8658 198.594L3.89129 198.984ZM6.14321 192.776C6.04682 191.953 5.30167 191.364 4.47887 191.461C3.65607 191.557 3.0672 192.302 3.16359 193.125L6.14321 192.776ZM2.51867 187.261C2.60335 188.086 3.34006 188.685 4.16415 188.6C4.98824 188.516 5.58764 187.779 5.50295 186.955L2.51867 187.261ZM4.94631 181.12C4.87372 180.295 4.14589 179.684 3.32065 179.757C2.49541 179.83 1.88526 180.557 1.95785 181.383L4.94631 181.12ZM1.4847 175.494C1.54474 176.32 2.26322 176.941 3.08947 176.881C3.91572 176.821 4.53685 176.103 4.47681 175.277L1.4847 175.494ZM4.09837 169.437C4.05135 168.61 3.34275 167.977 2.51566 168.024C1.68857 168.071 1.05619 168.78 1.10321 169.607L4.09837 169.437ZM0.816012 163.706C0.849439 164.534 1.54756 165.178 2.37532 165.144C3.20307 165.111 3.847 164.413 3.81357 163.585L0.816012 163.706ZM3.62698 157.727C3.60777 156.899 2.9208 156.243 2.0926 156.262C1.26439 156.282 0.608575 156.969 0.627787 157.797L3.62698 157.727ZM0.543464 151.894C0.547799 152.723 1.22288 153.391 2.05129 153.386C2.87971 153.382 3.54776 152.707 3.54342 151.879L0.543464 151.894ZM3.56759 146.028C3.57891 145.2 2.91657 144.519 2.08822 144.508C1.25987 144.497 0.57919 145.159 0.567874 145.987L3.56759 146.028ZM0.707301 140.069C0.679446 140.897 1.32806 141.591 2.15602 141.618C2.98398 141.646 3.67775 140.998 3.7056 140.17L0.707301 140.069ZM3.96328 134.328C4.0086 133.5 3.37477 132.793 2.54758 132.748C1.7204 132.703 1.01309 133.336 0.967772 134.164L3.96328 134.328ZM1.35576 128.276C1.29196 129.102 1.90981 129.823 2.73577 129.887C3.56174 129.951 4.28304 129.333 4.34685 128.507L1.35576 128.276ZM4.8672 122.672C4.95077 121.848 4.35037 121.112 3.52617 121.028C2.70196 120.945 1.96607 121.545 1.8825 122.369L4.8672 122.672ZM2.5547 116.483C2.45006 117.304 3.03144 118.055 3.85323 118.16C4.67502 118.265 5.42604 117.683 5.53067 116.861L2.5547 116.483ZM6.346 111.084C6.47313 110.265 5.91258 109.498 5.09396 109.371C4.27535 109.244 3.50867 109.805 3.38154 110.623L6.346 111.084ZM4.37353 104.797C4.2223 105.611 4.76 106.394 5.5745 106.545C6.38901 106.697 7.17189 106.159 7.32312 105.344L4.37353 104.797ZM8.48113 99.614C8.65839 98.8047 8.14607 98.005 7.33683 97.8277C6.52759 97.6505 5.72787 98.1628 5.55061 98.972L8.48113 99.614ZM6.92083 93.1924C6.71555 93.995 7.19977 94.812 8.00236 95.0173C8.80495 95.2226 9.62199 94.7384 9.82727 93.9358L6.92083 93.1924ZM11.3752 88.3215C11.6106 87.5273 11.1577 86.6925 10.3634 86.457C9.56914 86.2216 8.73438 86.6746 8.49892 87.4688L11.3752 88.3215ZM10.3015 81.8127C10.0335 82.5966 10.4517 83.4493 11.2356 83.7173C12.0195 83.9853 12.8722 83.5671 13.1402 82.7832L10.3015 81.8127ZM15.1391 77.3353C15.4422 76.5643 15.0628 75.6936 14.2919 75.3905C13.5209 75.0874 12.6501 75.4668 12.3471 76.2377L15.1391 77.3353ZM14.6611 70.7487C14.3202 71.5037 14.6559 72.3921 15.4109 72.733C16.1659 73.074 17.0544 72.7383 17.3953 71.9832L14.6611 70.7487ZM19.9252 66.7579C20.3066 66.0226 20.0198 65.1172 19.2844 64.7357C18.549 64.3543 17.6436 64.6412 17.2622 65.3765L19.9252 66.7579ZM20.1668 60.1579C19.7422 60.8692 19.9746 61.7901 20.686 62.2147C21.3973 62.6393 22.3182 62.4068 22.7428 61.6954L20.1668 60.1579ZM25.8642 56.8276C26.3341 56.1453 26.162 55.2113 25.4798 54.7414C24.7975 54.2714 23.8635 54.4435 23.3936 55.1258L25.8642 56.8276ZM26.9579 50.3189C26.441 50.9662 26.5468 51.9101 27.1941 52.427C27.8415 52.9439 28.7853 52.8382 29.3023 52.1908L26.9579 50.3189ZM33.0425 47.8635C33.6106 47.2605 33.5823 46.3112 32.9793 45.7431C32.3763 45.175 31.427 45.2033 30.8589 45.8063L33.0425 47.8635ZM35.1059 41.6776C34.4873 42.2287 34.4326 43.1768 34.9836 43.7954C35.5347 44.414 36.4828 44.4687 37.1014 43.9177L35.1059 41.6776ZM41.489 40.3314C42.1518 39.8344 42.2861 38.8942 41.7891 38.2314C41.2921 37.5687 40.3519 37.4343 39.6891 37.9313L41.489 40.3314ZM44.5588 34.5762C43.8587 35.0191 43.6502 35.9456 44.0931 36.6457C44.5359 37.3458 45.4625 37.5543 46.1626 37.1114L44.5588 34.5762ZM51.0775 34.2527C51.8081 33.8623 52.084 32.9535 51.6937 32.2228C51.3033 31.4922 50.3945 31.2163 49.6638 31.6066L51.0775 34.2527ZM54.9566 29.0059C54.2015 29.3467 53.8655 30.235 54.2062 30.9901C54.547 31.7453 55.4353 32.0812 56.1904 31.7405L54.9566 29.0059ZM61.4626 29.5532C62.2368 29.2584 62.6255 28.3918 62.3308 27.6176C62.036 26.8434 61.1694 26.4547 60.3952 26.7495L61.4626 29.5532ZM65.9447 24.8085C65.1558 25.0613 64.7213 25.9059 64.9741 26.6947C65.227 27.4836 66.0715 27.9182 66.8604 27.6653L65.9447 24.8085ZM72.3558 26.0493C73.1558 25.8342 73.6299 25.0112 73.4147 24.2112C73.1995 23.4112 72.3766 22.9371 71.5766 23.1523L72.3558 26.0493ZM77.2683 21.7507C76.4601 21.9323 75.952 22.7348 76.1336 23.5431C76.3153 24.3513 77.1177 24.8594 77.926 24.6778L77.2683 21.7507ZM83.5523 23.5236C84.3666 23.3717 84.9036 22.5883 84.7517 21.774C84.5997 20.9596 83.8164 20.4226 83.002 20.5745L83.5523 23.5236ZM88.7653 19.5959C87.9465 19.7219 87.3849 20.4878 87.5109 21.3066C87.6369 22.1254 88.4028 22.687 89.2216 22.561L88.7653 19.5959ZM94.9245 21.7652C95.7464 21.6617 96.3288 20.9114 96.2253 20.0895C96.1217 19.2676 95.3715 18.6852 94.5496 18.7887L94.9245 21.7652ZM100.347 18.1288C99.5232 18.2132 98.9235 18.9497 99.0079 19.7738C99.0922 20.5979 99.8287 21.1976 100.653 21.1132L100.347 18.1288ZM106.4 20.5827C107.226 20.5143 107.84 19.7896 107.771 18.964C107.703 18.1384 106.978 17.5246 106.153 17.593L106.4 20.5827ZM111.961 17.1588C111.135 17.2144 110.51 17.9296 110.565 18.7561C110.621 19.5827 111.336 20.2077 112.162 20.1521L111.961 17.1588ZM117.936 19.7993C118.763 19.7533 119.396 19.0455 119.35 18.2183C119.304 17.3912 118.596 16.7579 117.769 16.8039L117.936 19.7993ZM123.574 16.5051C122.747 16.5449 122.108 17.2479 122.148 18.0754C122.188 18.9029 122.891 19.5414 123.718 19.5016L123.574 16.5051ZM129.509 19.2341C130.337 19.1967 130.977 18.4955 130.94 17.6679C130.902 16.8404 130.201 16.1998 129.374 16.2371L129.509 19.2341ZM135.164 15.9715C134.336 16.0109 133.698 16.7136 133.737 17.5411C133.776 18.3686 134.479 19.0075 135.307 18.9681L135.164 15.9715ZM141.109 18.6689C141.936 18.6219 142.569 17.9133 142.522 17.0862C142.475 16.2591 141.766 15.6267 140.939 15.6737L141.109 18.6689ZM146.688 15.2997C145.862 15.3617 145.243 16.0817 145.305 16.9078C145.367 17.7339 146.087 18.3533 146.913 18.2912L146.688 15.2997ZM152.739 17.7689C153.563 17.6809 154.159 16.9417 154.071 16.118C153.983 15.2942 153.244 14.6979 152.42 14.7859L152.739 17.7689ZM158.113 14.0372C157.295 14.169 156.739 14.9388 156.871 15.7567C157.003 16.5746 157.772 17.1308 158.59 16.9991L158.113 14.0372ZM164.377 15.8196C165.179 15.6139 165.663 14.7966 165.457 13.9941C165.252 13.1916 164.434 12.7079 163.632 12.9136L164.377 15.8196ZM168.894 11.1266C168.139 11.4676 167.804 12.3561 168.145 13.1111C168.486 13.8661 169.374 14.2016 170.129 13.8605L168.894 11.1266ZM175.38 10.4089C175.971 9.82819 175.979 8.87848 175.399 8.28764C174.818 7.69679 173.868 7.68856 173.277 8.26924L175.38 10.4089ZM175.714 4.02978C175.519 4.83489 176.013 5.64578 176.819 5.84096C177.624 6.03613 178.435 5.54169 178.63 4.73658L175.714 4.02978ZM31.4059 297.977C31.0686 297.07 30.7334 296.159 30.4004 295.244L27.5811 296.269C27.9166 297.191 28.2542 298.109 28.5941 299.023L31.4059 297.977ZM28.4322 289.711C27.795 287.879 27.1666 286.031 26.5475 284.17L23.7009 285.117C24.3242 286.991 24.957 288.851 25.5987 290.696L28.4322 289.711ZM24.7358 278.599C24.1458 276.743 23.5651 274.874 22.9942 272.994L20.1236 273.866C20.6983 275.758 21.2828 277.639 21.8768 279.508L24.7358 278.599ZM21.3274 267.375C20.7858 265.506 20.254 263.627 19.7323 261.738L16.8406 262.537C17.3656 264.437 17.9008 266.329 18.4459 268.21L21.3274 267.375ZM18.2055 256.073C17.71 254.187 17.2248 252.294 16.7502 250.394L13.8396 251.12C14.3171 253.033 14.8054 254.938 15.3041 256.835L18.2055 256.073ZM15.3655 244.699C14.9159 242.799 14.4772 240.894 14.0497 238.983L11.1221 239.637C11.5523 241.561 11.9937 243.478 12.4461 245.39L15.3655 244.699ZM12.8053 233.254C12.4026 231.343 12.0113 229.428 11.6318 227.51L8.68886 228.092C9.07076 230.023 9.46451 231.95 9.86976 233.873L12.8053 233.254ZM10.53 221.751C10.1749 219.83 9.83186 217.906 9.50127 215.98L6.54453 216.488C6.87729 218.426 7.22253 220.362 7.57993 222.296L10.53 221.751ZM8.54643 210.195C8.24057 208.264 7.9475 206.332 7.66759 204.401L4.6986 204.831C4.98043 206.776 5.27547 208.721 5.58338 210.664L8.54643 210.195ZM6.8658 198.594C6.61119 196.653 6.37021 194.714 6.14321 192.776L3.16359 193.125C3.39222 195.077 3.6349 197.03 3.89129 198.984L6.8658 198.594ZM5.50295 186.955C5.30273 185.006 5.11707 183.061 4.94631 181.12L1.95785 181.383C2.12991 183.339 2.31697 185.299 2.51867 187.261L5.50295 186.955ZM4.47681 175.277C4.33498 173.325 4.20871 171.378 4.09837 169.437L1.10321 169.607C1.21446 171.564 1.34175 173.527 1.4847 175.494L4.47681 175.277ZM3.81357 163.585C3.73442 161.625 3.6721 159.672 3.62698 157.727L0.627787 157.797C0.673308 159.759 0.73618 161.729 0.816012 163.706L3.81357 163.585ZM3.54342 151.879C3.53317 149.919 3.54109 147.968 3.56759 146.028L0.567874 145.987C0.54111 147.947 0.533111 149.916 0.543464 151.894L3.54342 151.879ZM3.7056 140.17C3.77154 138.21 3.85729 136.262 3.96328 134.328L0.967772 134.164C0.860605 136.12 0.77393 138.088 0.707301 140.069L3.7056 140.17ZM4.34685 128.507C4.49832 126.546 4.67161 124.601 4.8672 122.672L1.8825 122.369C1.68444 124.322 1.50902 126.292 1.35576 128.276L4.34685 128.507ZM5.53067 116.861C5.77833 114.916 6.04994 112.99 6.346 111.084L3.38154 110.623C3.08115 112.558 2.80572 114.511 2.5547 116.483L5.53067 116.861ZM7.32312 105.344C7.68215 103.411 8.06798 101.5 8.48113 99.614L5.55061 98.972C5.13039 100.89 4.73823 102.833 4.37353 104.797L7.32312 105.344ZM9.82727 93.9358C10.3132 92.0358 10.829 90.1639 11.3752 88.3215L8.49892 87.4688C7.94163 89.3487 7.41583 91.2571 6.92083 93.1924L9.82727 93.9358ZM13.1402 82.7832C13.7729 80.9328 14.4389 79.1163 15.1391 77.3353L12.3471 76.2377C11.6299 78.0622 10.9483 79.9211 10.3015 81.8127L13.1402 82.7832ZM17.3953 71.9832C18.2005 70.1998 19.0436 68.4574 19.9252 66.7579L17.2622 65.3765C16.3546 67.126 15.4879 68.9175 14.6611 70.7487L17.3953 71.9832ZM22.7428 61.6954C23.7407 60.0235 24.7809 58.4001 25.8642 56.8276L23.3936 55.1258C22.2722 56.7537 21.1969 58.432 20.1668 60.1579L22.7428 61.6954ZM29.3023 52.1908C29.9021 51.4396 30.5135 50.7022 31.1365 49.979L28.8635 48.021C28.2158 48.7729 27.5807 49.5389 26.9579 50.3189L29.3023 52.1908ZM31.1365 49.979C31.7591 49.2561 32.3946 48.5511 33.0425 47.8635L30.8589 45.8063C30.1807 46.5261 29.5154 47.2642 28.8635 48.021L31.1365 49.979ZM37.1014 43.9177C38.5178 42.6559 39.9817 41.4618 41.489 40.3314L39.6891 37.9313C38.1163 39.1108 36.587 40.3582 35.1059 41.6776L37.1014 43.9177ZM46.1626 37.1114C47.7623 36.0994 49.402 35.1478 51.0775 34.2527L49.6638 31.6066C47.9264 32.5349 46.2231 33.5233 44.5588 34.5762L46.1626 37.1114ZM56.1904 31.7405C57.9183 30.9608 59.677 30.233 61.4626 29.5532L60.3952 26.7495C58.5564 27.4496 56.742 28.2003 54.9566 29.0059L56.1904 31.7405ZM66.8604 27.6653C68.6718 27.0846 70.5049 26.5472 72.3558 26.0493L71.5766 23.1523C69.6826 23.6618 67.8038 24.2125 65.9447 24.8085L66.8604 27.6653ZM77.926 24.6778C79.7896 24.259 81.6664 23.8755 83.5523 23.5236L83.002 20.5745C81.0826 20.9327 79.17 21.3235 77.2683 21.7507L77.926 24.6778ZM89.2216 22.561C91.119 22.269 93.0213 22.005 94.9245 21.7652L94.5496 18.7887C92.6214 19.0316 90.6919 19.2994 88.7653 19.5959L89.2216 22.561ZM100.653 21.1132C102.574 20.9165 104.491 20.741 106.4 20.5827L106.153 17.593C104.226 17.7527 102.289 17.93 100.347 18.1288L100.653 21.1132ZM112.162 20.1521C114.101 20.0217 116.027 19.9055 117.936 19.7993L117.769 16.8039C115.851 16.9106 113.913 17.0275 111.961 17.1588L112.162 20.1521ZM123.718 19.5016C125.674 19.4076 127.606 19.32 129.509 19.2341L129.374 16.2371C127.47 16.323 125.535 16.4108 123.574 16.5051L123.718 19.5016ZM135.307 18.9681C137.282 18.8741 139.219 18.7763 141.109 18.6689L140.939 15.6737C139.061 15.7804 137.134 15.8777 135.164 15.9715L135.307 18.9681ZM146.913 18.2912C148.923 18.1403 150.868 17.969 152.739 17.7689L152.42 14.7859C150.587 14.982 148.674 15.1505 146.688 15.2997L146.913 18.2912ZM158.59 16.9991C160.641 16.6687 162.577 16.2811 164.377 15.8196L163.632 12.9136C161.939 13.3476 160.095 13.718 158.113 14.0372L158.59 16.9991ZM170.129 13.8605C172.177 12.9356 173.958 11.8068 175.38 10.4089L173.277 8.26924C172.17 9.35785 170.711 10.3059 168.894 11.1266L170.129 13.8605ZM178.63 4.73658C178.877 3.71692 179 2.63826 179 1.5H176C176 2.42105 175.901 3.26101 175.714 4.02978L178.63 4.73658Z" fill="#CACACA"/>
</svg>
