<svg width="191" height="275" viewBox="0 0 191 275" fill="none" xmlns="http://www.w3.org/2000/svg">
<path d="M2.12774 0.505449C1.30232 0.434901 0.575998 1.04684 0.505449 1.87226C0.434901 2.69768 1.04684 3.424 1.87226 3.49455L2.12774 0.505449ZM144.5 93L145.981 92.7612L144.5 93ZM116 124.5L115.1 125.7L116 124.5ZM166 128.5L164.783 129.376L166 128.5ZM176.783 274.377C177.268 275.049 178.205 275.201 178.877 274.717L189.828 266.822C190.5 266.337 190.652 265.4 190.168 264.728C189.683 264.056 188.746 263.904 188.074 264.388L178.34 271.406L171.322 261.672C170.837 261 169.9 260.848 169.228 261.332C168.556 261.817 168.404 262.754 168.888 263.426L176.783 274.377ZM4.83891 3.76791C5.66332 3.84934 6.39766 3.24703 6.47908 2.42261C6.56051 1.5982 5.95821 0.863865 5.13379 0.782435L4.83891 3.76791ZM11.1599 1.45639C10.3379 1.35381 9.58831 1.93707 9.48573 2.75912C9.38316 3.58117 9.96641 4.33073 10.7885 4.4333L11.1599 1.45639ZM16.7205 5.2489C17.5398 5.37189 18.3036 4.80747 18.4266 3.98822C18.5496 3.16898 17.9852 2.40514 17.1659 2.28215L16.7205 5.2489ZM23.1489 3.2552C22.3328 3.11229 21.5555 3.65795 21.4126 4.47396C21.2697 5.28996 21.8153 6.06732 22.6313 6.21023L23.1489 3.2552ZM28.5173 7.31432C29.3296 7.47683 30.1199 6.95005 30.2824 6.13772C30.4449 5.32539 29.9181 4.53512 29.1058 4.37261L28.5173 7.31432ZM35.0339 5.63278C34.2257 5.4508 33.423 5.95845 33.241 6.76664C33.059 7.57483 33.5667 8.37752 34.3749 8.5595L35.0339 5.63278ZM40.2004 9.94524C41.004 10.1467 41.8187 9.65859 42.0201 8.85503C42.2216 8.05147 41.7335 7.23675 40.9299 7.0353L40.2004 9.94524ZM46.7905 8.58082C45.9921 8.35975 45.1657 8.82776 44.9446 9.62615C44.7235 10.4245 45.1915 11.251 45.9899 11.472L46.7905 8.58082ZM51.7391 13.1413C52.5317 13.3823 53.3696 12.9351 53.6105 12.1425C53.8515 11.3498 53.4043 10.512 52.6117 10.271L51.7391 13.1413ZM58.3892 12.1085C57.603 11.8472 56.7539 12.2727 56.4927 13.0589C56.2314 13.845 56.6569 14.6941 57.4431 14.9554L58.3892 12.1085ZM63.0964 16.9174C63.8753 17.1995 64.7354 16.7967 65.0175 16.0178C65.2996 15.2389 64.8968 14.3787 64.1179 14.0967L63.0964 16.9174ZM69.792 16.2401C69.0212 15.9366 68.1503 16.3154 67.8467 17.0862C67.5432 17.857 67.922 18.728 68.6928 19.0315L69.792 16.2401ZM74.2252 21.3024C74.9869 21.6282 75.8685 21.2748 76.1942 20.5131C76.52 19.7514 76.1666 18.8698 75.4049 18.5441L74.2252 21.3024ZM80.9487 21.0148C80.1973 20.666 79.3054 20.9923 78.9566 21.7437C78.6077 22.4951 78.934 23.387 79.6854 23.7359L80.9487 21.0148ZM85.0638 26.3384C85.8036 26.7113 86.7056 26.414 87.0785 25.6743C87.4515 24.9346 87.1542 24.0326 86.4144 23.6596L85.0638 26.3384ZM91.7914 26.4864C91.065 26.0882 90.1533 26.3543 89.7551 27.0808C89.3569 27.8073 89.623 28.719 90.3494 29.1172L91.7914 26.4864ZM95.5293 32.0802C96.2406 32.5048 97.1615 32.2725 97.5862 31.5611C98.0108 30.8498 97.7784 29.929 97.0671 29.5043L95.5293 32.0802ZM102.227 32.723C101.533 32.2705 100.604 32.4664 100.151 33.1603C99.6988 33.8543 99.8946 34.7836 100.589 35.2361L102.227 32.723ZM105.51 38.5942C106.184 39.0758 107.121 38.9198 107.603 38.2458C108.084 37.5717 107.928 36.6349 107.254 36.1533L105.51 38.5942ZM112.131 39.8084C111.48 39.2962 110.537 39.4088 110.025 40.0599C109.512 40.711 109.625 41.6541 110.276 42.1663L112.131 39.8084ZM114.861 45.9594C115.485 46.5036 116.433 46.4383 116.977 45.8137C117.521 45.189 117.456 44.2415 116.831 43.6974L114.861 45.9594ZM121.326 47.8303C120.732 47.253 119.782 47.2666 119.205 47.8608C118.628 48.4549 118.641 49.4046 119.235 49.9819L121.326 47.8303ZM123.37 54.2401C123.929 54.8515 124.877 54.894 125.489 54.335C126.1 53.776 126.143 52.8272 125.584 52.2158L123.37 54.2401ZM129.567 56.8594C129.049 56.2135 128.105 56.1104 127.459 56.6291C126.813 57.1479 126.71 58.092 127.228 58.7379L129.567 56.8594ZM130.774 63.4754C131.247 64.1556 132.182 64.3236 132.862 63.8508C133.542 63.3779 133.71 62.4431 133.237 61.7629L130.774 63.4754ZM136.55 66.922C136.129 66.2087 135.209 65.972 134.496 66.3932C133.783 66.8145 133.546 67.7343 133.967 68.4476L136.55 66.922ZM136.769 73.6435C137.133 74.3877 138.032 74.6959 138.776 74.3319C139.52 73.9679 139.828 73.0695 139.464 72.3253L136.769 73.6435ZM141.936 77.9503C141.635 77.1788 140.765 76.7979 139.993 77.0996C139.221 77.4013 138.841 78.2713 139.142 79.0429L141.936 77.9503ZM141.055 84.6159C141.29 85.4102 142.125 85.8632 142.919 85.6278C143.714 85.3923 144.167 84.5576 143.931 83.7633L141.055 84.6159ZM145.425 89.7257C145.258 88.9142 144.465 88.3916 143.653 88.5583C142.842 88.7251 142.319 89.5181 142.486 90.3296L145.425 89.7257ZM143.272 96.2863C143.283 97.1146 143.964 97.777 144.792 97.7657C145.621 97.7544 146.283 97.0738 146.272 96.2454L143.272 96.2863ZM145.623 103.077C145.779 102.263 145.247 101.477 144.434 101.32C143.62 101.163 142.834 101.696 142.677 102.509L145.623 103.077ZM140.986 108.603C140.704 109.381 141.107 110.242 141.886 110.524C142.665 110.806 143.525 110.403 143.807 109.624L140.986 108.603ZM141.015 115.817C141.413 115.091 141.148 114.179 140.422 113.78C139.695 113.382 138.784 113.647 138.385 114.373L141.015 115.817ZM134.887 119.579C134.359 120.217 134.448 121.163 135.086 121.691C135.724 122.219 136.669 122.13 137.198 121.492L134.887 119.579ZM132.081 126.231C132.768 125.769 132.95 124.837 132.488 124.149C132.025 123.462 131.093 123.28 130.406 123.742L132.081 126.231ZM125.015 125.849C124.192 125.942 123.6 126.684 123.692 127.507C123.785 128.331 124.527 128.923 125.35 128.83L125.015 125.849ZM118.163 127.566C118.911 127.92 119.806 127.601 120.16 126.852C120.514 126.103 120.194 125.209 119.445 124.854L118.163 127.566ZM114.743 121.472C114.152 120.892 113.202 120.902 112.622 121.493C112.042 122.085 112.051 123.035 112.643 123.615L114.743 121.472ZM109.476 117.369C109.443 118.197 110.087 118.895 110.914 118.929C111.742 118.962 112.44 118.318 112.474 117.491L109.476 117.369ZM115.302 114.476C116.051 114.122 116.371 113.227 116.017 112.478C115.663 111.729 114.769 111.409 114.02 111.763L115.302 114.476ZM120.161 110.021C119.343 110.147 118.781 110.913 118.907 111.732C119.033 112.551 119.799 113.113 120.618 112.986L120.161 110.021ZM126.366 112.566C127.194 112.562 127.863 111.887 127.859 111.059C127.856 110.231 127.181 109.562 126.353 109.566L126.366 112.566ZM132.478 109.886C131.654 109.799 130.915 110.396 130.828 111.22C130.74 112.043 131.337 112.782 132.161 112.87L132.478 109.886ZM137.92 113.773C138.731 113.942 139.525 113.421 139.693 112.61C139.862 111.799 139.341 111.005 138.53 110.836L137.92 113.773ZM144.46 112.378C143.67 112.129 142.828 112.568 142.579 113.359C142.331 114.149 142.77 114.991 143.56 115.24L144.46 112.378ZM149.006 117.275C149.765 117.607 150.65 117.261 150.982 116.502C151.314 115.744 150.969 114.859 150.21 114.527L149.006 117.275ZM155.693 117.333C154.981 116.91 154.06 117.144 153.637 117.856C153.214 118.568 153.448 119.488 154.16 119.912L155.693 117.333ZM158.887 123.193C159.531 123.715 160.475 123.616 160.997 122.973C161.519 122.33 161.421 121.385 160.777 120.863L158.887 123.193ZM165.269 125.174C164.724 124.55 163.776 124.487 163.153 125.032C162.529 125.577 162.466 126.525 163.011 127.149L165.269 125.174ZM166.636 131.9C167.128 132.567 168.067 132.708 168.734 132.216C169.4 131.724 169.541 130.784 169.049 130.118L166.636 131.9ZM172.684 135.271C172.229 134.578 171.299 134.386 170.606 134.841C169.914 135.295 169.721 136.225 170.176 136.918L172.684 135.271ZM173.29 142.158C173.679 142.89 174.588 143.167 175.319 142.778C176.05 142.389 176.328 141.48 175.938 140.749L173.29 142.158ZM178.658 146.492C178.338 145.728 177.459 145.368 176.695 145.688C175.93 146.008 175.57 146.887 175.89 147.651L178.658 146.492ZM178.01 153.378C178.266 154.165 179.113 154.596 179.901 154.34C180.688 154.083 181.119 153.237 180.863 152.449L178.01 153.378ZM182.606 158.533C182.405 157.729 181.59 157.241 180.786 157.442C179.983 157.644 179.495 158.458 179.696 159.262L182.606 158.533ZM181.015 165.276C181.169 166.09 181.954 166.625 182.768 166.47C183.582 166.315 184.116 165.53 183.962 164.716L181.015 165.276ZM184.982 170.92C184.867 170.1 184.108 169.528 183.288 169.644C182.468 169.759 181.896 170.517 182.011 171.338L184.982 170.92ZM182.745 177.497C182.827 178.321 183.561 178.923 184.386 178.842C185.21 178.76 185.812 178.026 185.73 177.201L182.745 177.497ZM186.237 183.437C186.183 182.61 185.47 181.983 184.643 182.036C183.817 182.089 183.19 182.802 183.243 183.629L186.237 183.437ZM183.545 189.796C183.573 190.624 184.267 191.272 185.095 191.244C185.923 191.216 186.571 190.521 186.543 189.693L183.545 189.796ZM186.675 195.958C186.668 195.13 185.991 194.464 185.162 194.471C184.334 194.478 183.668 195.155 183.675 195.983L186.675 195.958ZM183.655 202.179C183.643 203.007 184.305 203.688 185.133 203.7C185.961 203.712 186.643 203.051 186.654 202.222L183.655 202.179ZM186.5 208.483C186.528 207.655 185.88 206.96 185.053 206.932C184.225 206.903 183.53 207.551 183.502 208.379L186.5 208.483ZM183.23 214.585C183.186 215.412 183.821 216.118 184.649 216.161C185.476 216.205 186.182 215.57 186.225 214.742L183.23 214.585ZM185.844 221.007C185.901 220.181 185.277 219.464 184.45 219.407C183.624 219.35 182.908 219.974 182.851 220.801L185.844 221.007ZM182.377 226.998C182.308 227.824 182.921 228.549 183.747 228.618C184.572 228.687 185.297 228.074 185.367 227.248L182.377 226.998ZM184.807 233.441C184.887 232.616 184.283 231.883 183.458 231.803C182.634 231.723 181.901 232.326 181.821 233.151L184.807 233.441ZM181.184 239.324C181.094 240.147 181.688 240.888 182.512 240.978C183.335 241.068 184.076 240.473 184.166 239.65L181.184 239.324ZM183.448 245.89C183.547 245.067 182.961 244.32 182.139 244.221C181.316 244.122 180.569 244.708 180.47 245.53L183.448 245.89ZM179.695 251.686C179.587 252.507 180.166 253.26 180.988 253.368C181.809 253.475 182.562 252.897 182.67 252.075L179.695 251.686ZM181.832 258.24C181.947 257.42 181.376 256.661 180.556 256.546C179.735 256.43 178.977 257.002 178.861 257.822L181.832 258.24ZM177.961 264.02C177.839 264.839 178.403 265.602 179.223 265.725C180.042 265.848 180.805 265.283 180.928 264.464L177.961 264.02ZM179.984 270.6C180.113 269.782 179.554 269.013 178.736 268.884C177.918 268.755 177.15 269.313 177.02 270.131L179.984 270.6ZM1.87226 3.49455C2.85653 3.57868 3.84554 3.66979 4.83891 3.76791L5.13379 0.782435C4.12738 0.68303 3.12523 0.590705 2.12774 0.505449L1.87226 3.49455ZM10.7885 4.4333C12.7534 4.67849 14.7317 4.95032 16.7205 5.2489L17.1659 2.28215C15.1527 1.9799 13.1497 1.70467 11.1599 1.45639L10.7885 4.4333ZM22.6313 6.21023C24.5871 6.55275 26.55 6.92075 28.5173 7.31432L29.1058 4.37261C27.1149 3.97431 25.1283 3.60187 23.1489 3.2552L22.6313 6.21023ZM34.3749 8.5595C36.316 8.99659 38.2587 9.45848 40.2004 9.94524L40.9299 7.0353C38.9646 6.54261 36.9984 6.07513 35.0339 5.63278L34.3749 8.5595ZM45.9899 11.472C47.9108 12.0039 49.828 12.5603 51.7391 13.1413L52.6117 10.271C50.6764 9.68265 48.7351 9.11929 46.7905 8.58082L45.9899 11.472ZM57.4431 14.9554C59.3371 15.5848 61.2224 16.2388 63.0964 16.9174L64.1179 14.0967C62.2184 13.4088 60.308 12.7461 58.3892 12.1085L57.4431 14.9554ZM68.6928 19.0315C70.5518 19.7635 72.3968 20.5205 74.2252 21.3024L75.4049 18.5441C73.5492 17.7505 71.6774 16.9825 69.792 16.2401L68.6928 19.0315ZM79.6854 23.7359C81.4988 24.5778 83.2924 25.4453 85.0638 26.3384L86.4144 23.6596C84.6134 22.7515 82.7906 21.87 80.9487 21.0148L79.6854 23.7359ZM90.3494 29.1172C92.1029 30.0783 93.8305 31.066 95.5293 32.0802L97.0671 29.5043C95.3357 28.4707 93.5762 27.4647 91.7914 26.4864L90.3494 29.1172ZM100.589 35.2361C102.263 36.3277 103.904 37.4471 105.51 38.5942L107.254 36.1533C105.613 34.9805 103.936 33.8372 102.227 32.723L100.589 35.2361ZM110.276 42.1663C111.846 43.4015 113.376 44.6658 114.861 45.9594L116.831 43.6974C115.307 42.3697 113.739 41.0735 112.131 39.8084L110.276 42.1663ZM119.235 49.9819C120.665 51.3706 122.044 52.79 123.37 54.2401L125.584 52.2158C124.217 50.7205 122.796 49.2588 121.326 47.8303L119.235 49.9819ZM127.228 58.7379C128.471 60.2849 129.654 61.864 130.774 63.4754L133.237 61.7629C132.076 60.093 130.852 58.4586 129.567 56.8594L127.228 58.7379ZM133.967 68.4476C134.97 70.1463 135.906 71.8782 136.769 73.6435L139.464 72.3253C138.565 70.4877 137.593 68.6866 136.55 66.922L133.967 68.4476ZM139.142 79.0429C139.855 80.8669 140.494 82.7245 141.055 84.6159L143.931 83.7633C143.346 81.7897 142.68 79.8521 141.936 77.9503L139.142 79.0429ZM142.486 90.3296C142.684 91.291 142.861 92.2607 143.019 93.2388L145.981 92.7612C145.816 91.7408 145.631 90.729 145.425 89.7257L142.486 90.3296ZM143.019 93.2388C143.174 94.1963 143.257 95.2166 143.272 96.2863L146.272 96.2454C146.255 95.0468 146.161 93.8793 145.981 92.7612L143.019 93.2388ZM142.677 102.509C142.288 104.528 141.717 106.585 140.986 108.603L143.807 109.624C144.589 107.466 145.203 105.257 145.623 103.077L142.677 102.509ZM138.385 114.373C137.343 116.272 136.167 118.033 134.887 119.579L137.198 121.492C138.613 119.783 139.893 117.86 141.015 115.817L138.385 114.373ZM130.406 123.742C128.661 124.916 126.851 125.643 125.015 125.849L125.35 128.83C127.756 128.56 130.018 127.619 132.081 126.231L130.406 123.742ZM119.445 124.854C118.615 124.462 117.765 123.949 116.9 123.3L115.1 125.7C116.113 126.46 117.135 127.08 118.163 127.566L119.445 124.854ZM116.9 123.3C116.047 122.66 115.333 122.05 114.743 121.472L112.643 123.615C113.342 124.3 114.16 124.995 115.1 125.7L116.9 123.3ZM112.474 117.491C112.512 116.54 113.236 115.453 115.302 114.476L114.02 111.763C111.568 112.922 109.582 114.751 109.476 117.369L112.474 117.491ZM120.618 112.986C122.351 112.72 124.286 112.574 126.366 112.566L126.353 109.566C124.146 109.575 122.06 109.729 120.161 110.021L120.618 112.986ZM132.161 112.87C134.039 113.069 135.97 113.368 137.92 113.773L138.53 110.836C136.483 110.411 134.454 110.096 132.478 109.886L132.161 112.87ZM143.56 115.24C145.402 115.818 147.227 116.495 149.006 117.275L150.21 114.527C148.325 113.701 146.398 112.987 144.46 112.378L143.56 115.24ZM154.16 119.912C155.821 120.899 157.406 121.992 158.887 123.193L160.777 120.863C159.174 119.563 157.469 118.389 155.693 117.333L154.16 119.912ZM163.011 127.149C163.636 127.863 164.227 128.605 164.783 129.376L167.217 127.624C166.605 126.773 165.954 125.957 165.269 125.174L163.011 127.149ZM164.783 129.376C165.369 130.191 165.995 131.032 166.636 131.9L169.049 130.118C168.399 129.238 167.79 128.419 167.217 127.624L164.783 129.376ZM170.176 136.918C171.207 138.488 172.256 140.215 173.29 142.158L175.938 140.749C174.855 138.713 173.758 136.906 172.684 135.271L170.176 136.918ZM175.89 147.651C176.624 149.402 177.335 151.303 178.01 153.378L180.863 152.449C180.162 150.298 179.423 148.32 178.658 146.492L175.89 147.651ZM179.696 159.262C180.168 161.143 180.609 163.144 181.015 165.276L183.962 164.716C183.546 162.529 183.092 160.471 182.606 158.533L179.696 159.262ZM182.011 171.338C182.286 173.293 182.532 175.344 182.745 177.497L185.73 177.201C185.513 175.009 185.263 172.917 184.982 170.92L182.011 171.338ZM183.243 183.629C183.37 185.607 183.471 187.661 183.545 189.796L186.543 189.693C186.468 187.529 186.366 185.445 186.237 183.437L183.243 183.629ZM183.675 195.983C183.692 197.983 183.686 200.048 183.655 202.179L186.654 202.222C186.686 200.069 186.692 197.982 186.675 195.958L183.675 195.983ZM183.502 208.379C183.432 210.392 183.342 212.46 183.23 214.585L186.225 214.742C186.338 212.6 186.429 210.514 186.5 208.483L183.502 208.379ZM182.851 220.801C182.712 222.818 182.554 224.884 182.377 226.998L185.367 227.248C185.545 225.12 185.703 223.04 185.844 221.007L182.851 220.801ZM181.821 233.151C181.625 235.166 181.413 237.224 181.184 239.324L184.166 239.65C184.396 237.538 184.61 235.468 184.807 233.441L181.821 233.151ZM180.47 245.53C180.227 247.545 179.969 249.596 179.695 251.686L182.67 252.075C182.945 249.976 183.204 247.914 183.448 245.89L180.47 245.53ZM178.861 257.822C178.576 259.854 178.276 261.919 177.961 264.02L180.928 264.464C181.244 262.355 181.545 260.28 181.832 258.24L178.861 257.822ZM177.02 270.131C176.857 271.166 176.69 272.209 176.519 273.26L179.481 273.74C179.652 272.685 179.819 271.639 179.984 270.6L177.02 270.131Z" fill="#CACACA"/>
</svg>
