<svg width="42" height="52" viewBox="0 0 42 52" fill="none" xmlns="http://www.w3.org/2000/svg">
<path d="M4.97997 19.297C4.97997 27.6974 12.2937 34.5314 21.2837 34.5314C30.2737 34.5314 37.5874 27.6974 37.5874 19.297C37.5874 10.8967 30.2737 4.06262 21.2837 4.06262C12.2937 4.06262 4.97997 10.8967 4.97997 19.297ZM21.2837 6.09387C29.0751 6.09387 35.4136 12.0166 35.4136 19.297C35.4136 26.5774 29.0751 32.5002 21.2837 32.5002C13.4923 32.5002 7.1538 26.5774 7.1538 19.297C7.1538 12.0166 13.4923 6.09387 21.2837 6.09387Z" fill="#A6777E"/>
<path d="M11.2178 17.4861L15.4309 21.3649L14.4616 26.8164C14.3941 27.1961 14.5618 27.5785 14.8951 27.8047C15.228 28.0308 15.6691 28.0613 16.0347 27.8844L21.2837 25.3374L26.5323 27.8844C26.8949 28.0601 27.3361 28.0328 27.6719 27.8047C28.0052 27.5785 28.1729 27.1961 28.1054 26.8164L27.1361 21.3649L31.3492 17.4861C31.6425 17.2163 31.7474 16.8148 31.62 16.4487C31.4927 16.0829 31.1551 15.8159 30.748 15.7584L24.9011 14.9359L22.2556 9.99228C22.0717 9.64832 21.6951 9.43091 21.2837 9.43091C20.8719 9.43091 20.4957 9.64832 20.3114 9.99228L17.6659 14.9359L11.819 15.7584C11.4119 15.8155 11.0743 16.0829 10.947 16.4487C10.8196 16.8148 10.9249 17.2163 11.2178 17.4861ZM18.5477 16.866C18.8976 16.8168 19.1999 16.6117 19.3583 16.3162L21.2837 12.7174L23.2092 16.3162C23.3675 16.6117 23.6698 16.8168 24.0197 16.866L28.2752 17.4647L25.2085 20.2874C24.9567 20.5195 24.8412 20.8516 24.899 21.1777L25.6046 25.1454L21.7843 23.2919C21.6276 23.2157 21.4557 23.1776 21.2837 23.1776C21.1118 23.1776 20.9398 23.2157 20.7827 23.2919L16.9624 25.1454L17.668 21.1777C17.7262 20.8516 17.6107 20.5195 17.3585 20.2874L14.2922 17.4647L18.5477 16.866Z" fill="#A6777E"/>
<path d="M22.3706 1.01563C22.3706 1.5766 21.884 2.03125 21.2837 2.03125C20.6833 2.03125 20.1968 1.5766 20.1968 1.01563C20.1968 0.454652 20.6833 0 21.2837 0C21.884 0 22.3706 0.454652 22.3706 1.01563Z" fill="#A6777E"/>
<path d="M16.1611 0.598621C7.01788 2.77944 0.632248 10.4684 0.632248 19.2968C0.632248 24.78 3.09946 29.9466 7.43057 33.6057L0.882323 44.3891C0.671734 44.7363 0.698057 45.1663 0.949407 45.4885C1.20076 45.811 1.63043 45.9661 2.04864 45.8848L9.48509 44.4419L12.0988 51.324C12.2406 51.6985 12.6036 51.9607 13.0273 51.996C13.4511 52.0313 13.8574 51.8318 14.0675 51.4862L21.2836 39.632L28.4993 51.4862C28.6938 51.8056 29.0555 51.9996 29.4436 51.9996C29.4754 51.9996 29.5077 51.9984 29.5395 51.996C29.9633 51.9607 30.3263 51.6981 30.4685 51.324L33.0818 44.4419L40.5182 45.8848C40.936 45.9657 41.3661 45.8106 41.6175 45.4885C41.8692 45.1663 41.8951 44.7363 41.6845 44.3891L35.1363 33.6057C39.4674 29.9466 41.9346 24.78 41.9346 19.2968C41.9346 10.4684 35.549 2.77944 26.4062 0.598621C25.8241 0.459766 25.2326 0.787861 25.084 1.33138C24.9354 1.8749 25.2866 2.42794 25.8682 2.56679C34.0481 4.5179 39.7612 11.3976 39.7612 19.2968C39.7612 28.9108 31.4051 36.5625 21.2836 36.5625C11.155 36.5625 2.80608 28.9044 2.80608 19.2968C2.80608 11.3976 8.51876 4.5179 16.6986 2.56679C17.2803 2.42794 17.6314 1.8749 17.4833 1.33138C17.3347 0.787861 16.7432 0.459766 16.1611 0.598621ZM13.353 48.5524L11.2169 42.928C11.0352 42.4495 10.5037 42.1698 9.97166 42.273L3.95838 43.4398L9.14076 34.9053C12.1625 36.958 15.7404 38.2085 19.4609 38.518L13.353 48.5524ZM32.5952 42.273C32.0636 42.1698 31.5316 42.4495 31.3499 42.928L29.2143 48.5524L23.1059 38.518C26.8269 38.2085 30.4044 36.958 33.4265 34.9053L38.6089 43.4398L32.5952 42.273Z" fill="#A6777E"/>
</svg>
