<svg width="53" height="52" viewBox="0 0 53 52" fill="none" xmlns="http://www.w3.org/2000/svg">
<path d="M40.1369 7.37793C40.7085 7.37793 41.172 6.92313 41.172 6.3623C41.172 5.80148 40.7085 5.34668 40.1369 5.34668H40.131C39.5593 5.34668 39.0987 5.80148 39.0987 6.3623C39.0987 6.92313 39.5652 7.37793 40.1369 7.37793Z" fill="#A6777E"/>
<path d="M45.7237 7.37793C46.2953 7.37793 46.7589 6.92313 46.7589 6.3623C46.7589 5.80148 46.2953 5.34668 45.7237 5.34668H45.7178C45.1462 5.34668 44.6856 5.80148 44.6856 6.3623C44.6856 6.92313 45.1521 7.37793 45.7237 7.37793Z" fill="#A6777E"/>
<path d="M34.55 7.37793C35.1217 7.37793 35.5852 6.92313 35.5852 6.3623C35.5852 5.80148 35.1217 5.34668 34.55 5.34668H34.5441C33.9725 5.34668 33.5119 5.80148 33.5119 6.3623C33.5119 6.92313 33.9783 7.37793 34.55 7.37793Z" fill="#A6777E"/>
<path d="M7.27361 7.37793H22.8281C23.3997 7.37793 23.8632 6.92313 23.8632 6.3623C23.8632 5.80148 23.3997 5.34668 22.8281 5.34668H7.27361C6.70199 5.34668 6.23845 5.80148 6.23845 6.3623C6.23845 6.92313 6.70189 7.37793 7.27361 7.37793Z" fill="#A6777E"/>
<path d="M49.6791 0.000244141H3.32089C1.4898 0.000244141 0 1.46193 0 3.25847V40.8653C0 42.6619 1.4898 44.1236 3.32089 44.1236H11.3531C11.9983 45.053 12.7371 45.9291 13.5658 46.7422C17.0196 50.1324 21.6127 51.9995 26.4989 51.9995C31.3849 51.9995 35.9787 50.1325 39.434 46.7424C40.2672 45.925 41.0017 45.0469 41.6402 44.1236H49.679C51.5101 44.1236 52.9999 42.6619 52.9999 40.8653V3.25847C53 1.46193 51.5102 0.000244141 49.6791 0.000244141ZM3.32089 2.03149H49.6791C50.3686 2.03149 50.9297 2.58196 50.9297 3.25847V10.6953H2.07031V3.25847C2.07031 2.58196 2.63137 2.03149 3.32089 2.03149ZM49.6791 42.0924H42.8536C46.2788 35.3713 45.1395 26.9628 39.4341 21.3626C36.5518 18.5348 32.8969 16.769 28.8643 16.2565C24.959 15.76 20.9302 16.5266 17.5188 18.4152C17.0209 18.6909 16.845 19.3102 17.1259 19.7988C17.4069 20.2874 18.0383 20.4597 18.5361 20.1843C24.8482 16.6903 32.8397 17.7655 37.9699 22.7988C44.2934 29.0055 44.2934 39.1023 37.9701 45.3062C34.9058 48.3127 30.832 49.9684 26.499 49.9684C22.166 49.9684 18.093 48.3127 15.03 45.3062C9.90313 40.2762 8.8038 32.4397 12.3568 26.2497C12.6372 25.761 12.4608 25.1416 11.9627 24.8663C11.4646 24.5914 10.8333 24.7641 10.5528 25.2529C8.63238 28.5987 7.85435 32.5498 8.36179 36.3784C8.62927 38.3969 9.22997 40.3185 10.1364 42.0925H3.32089C2.63137 42.0925 2.07031 41.542 2.07031 40.8655V12.7266H50.9297V40.8655C50.9297 41.5419 50.3686 42.0924 49.6791 42.0924Z" fill="#A6777E"/>
<path d="M14.5724 34.8444C14.9767 35.2409 15.632 35.2409 16.0364 34.8444L16.7752 34.1195V43.3041C16.7752 43.8649 17.2387 44.3197 17.8103 44.3197H35.1899C35.7615 44.3197 36.225 43.8649 36.225 43.3041V34.1198L36.9638 34.8445C37.166 35.0427 37.4309 35.1418 37.6957 35.1418C37.9607 35.1418 38.2256 35.0426 38.4278 34.8442C38.8319 34.4475 38.8318 33.8046 38.4275 33.4079L27.2305 22.4249C26.8261 22.0284 26.171 22.0285 25.7666 22.425L14.5724 33.408C14.1681 33.8046 14.1681 34.4476 14.5724 34.8444ZM28.0603 42.2884H24.9398V38.0005H28.0603V42.2884ZM26.4986 24.5794L34.1546 32.0891V42.2885H30.1306V36.985C30.1306 36.4242 29.667 35.9694 29.0954 35.9694H23.9046C23.333 35.9694 22.8695 36.4242 22.8695 36.985V42.2885H18.8454V32.0883L26.4986 24.5794Z" fill="#A6777E"/>
<path d="M24.5913 32.683H28.406C28.9776 32.683 29.4411 32.2282 29.4411 31.6674C29.4411 31.1066 28.9776 30.6518 28.406 30.6518H24.5913C24.0197 30.6518 23.5562 31.1066 23.5562 31.6674C23.5562 32.2282 24.0196 32.683 24.5913 32.683Z" fill="#A6777E"/>
<path d="M15.027 22.8018L15.0299 22.799C15.4341 22.4024 15.4327 21.7607 15.0283 21.3641C14.624 20.9675 13.9672 20.969 13.563 21.3655C13.1587 21.7621 13.1587 22.4052 13.563 22.8019C13.7651 23.0002 14.03 23.0994 14.2949 23.0994C14.5598 23.0994 14.8248 23.0001 15.027 22.8018Z" fill="#A6777E"/>
</svg>
