<svg width="53" height="52" viewBox="0 0 53 52" fill="none" xmlns="http://www.w3.org/2000/svg">
<path d="M49.3855 44.7385C51.3785 44.7385 53 43.1476 53 41.1921V5.07812C53 2.27805 50.6781 0 47.8242 0H5.17578C2.32186 0 0 2.27805 0 5.07812V41.1921C0 43.1476 1.62147 44.7385 3.61445 44.7385H4.76172V49.9688H1.03516C0.463439 49.9688 0 50.4235 0 50.9844C0 51.5452 0.463439 52 1.03516 52H51.9648C52.5366 52 53 51.5452 53 50.9844C53 50.4235 52.5366 49.9688 51.9648 49.9688H48.2383V44.7385H49.3855ZM2.07031 5.07812C2.07031 3.39808 3.46343 2.03125 5.17578 2.03125H47.8242C49.5366 2.03125 50.9297 3.39808 50.9297 5.07812V7.3125H2.17424C2.13915 7.3125 2.10447 7.31433 2.07031 7.31768V5.07812ZM11.3867 49.9688H6.83203V40.8281H11.3867V49.9688ZM22.9805 49.9688H18.4258V29.5986H22.9805V49.9688ZM34.5742 49.9688H30.0195V38.1875H34.5742V49.9688ZM47.2031 26.0508H40.5781C40.0064 26.0508 39.543 26.5056 39.543 27.0664V32.1952C39.543 32.756 40.0064 33.2108 40.5781 33.2108C41.1498 33.2108 41.6133 32.756 41.6133 32.1952V28.082H46.168V49.9688H41.6133V39.0254C41.6133 38.4646 41.1498 38.0098 40.5781 38.0098C40.0064 38.0098 39.543 38.4646 39.543 39.0254V49.9688H36.6445V37.1719C36.6445 36.611 36.1811 36.1562 35.6094 36.1562H28.9844C28.4127 36.1562 27.9492 36.611 27.9492 37.1719V49.9688H25.0508V28.5829C25.0508 28.0221 24.5873 27.5673 24.0156 27.5673H17.3906C16.8189 27.5673 16.3555 28.0221 16.3555 28.5829V49.9688H13.457V39.8125C13.457 39.2517 12.9936 38.7969 12.4219 38.7969H5.79688C5.22516 38.7969 4.76172 39.2517 4.76172 39.8125V42.7072H3.61445C2.76294 42.7072 2.07031 42.0276 2.07031 41.1921V9.33857C2.10447 9.34192 2.13915 9.34375 2.17424 9.34375H50.9297V41.1921C50.9297 42.0276 50.237 42.7072 49.3855 42.7072H48.2383V27.0664C48.2383 26.5056 47.7748 26.0508 47.2031 26.0508Z" fill="#A6777E"/>
<path d="M46.3751 3.65625H22.9873C22.4156 3.65625 21.9522 4.11105 21.9522 4.67188C21.9522 5.2327 22.4156 5.6875 22.9873 5.6875H46.3751C46.9468 5.6875 47.4103 5.2327 47.4103 4.67188C47.4103 4.11105 46.9468 3.65625 46.3751 3.65625Z" fill="#A6777E"/>
<path d="M11.4975 3.95383C11.3049 3.76492 11.0379 3.65625 10.7656 3.65625C10.4934 3.65625 10.2263 3.76482 10.0338 3.95383C9.84123 4.14273 9.73047 4.40477 9.73047 4.67188C9.73047 4.93898 9.84123 5.20102 10.0338 5.38982C10.2263 5.57883 10.4934 5.6875 10.7656 5.6875C11.0379 5.6875 11.3049 5.57883 11.4975 5.38982C11.69 5.20102 11.8008 4.93898 11.8008 4.67188C11.8008 4.40477 11.69 4.14273 11.4975 3.95383Z" fill="#A6777E"/>
<path d="M7.35686 3.95383C7.16432 3.76492 6.89725 3.65625 6.625 3.65625C6.35275 3.65625 6.08568 3.76482 5.89314 3.95383C5.70061 4.14273 5.58984 4.40477 5.58984 4.67188C5.58984 4.93898 5.70061 5.20102 5.89314 5.38982C6.08568 5.57883 6.35275 5.6875 6.625 5.6875C6.89725 5.6875 7.16432 5.57883 7.35686 5.38982C7.54939 5.20102 7.66016 4.93898 7.66016 4.67188C7.66016 4.40477 7.54939 4.14273 7.35686 3.95383Z" fill="#A6777E"/>
<path d="M15.6381 3.95383C15.4456 3.76492 15.1795 3.65625 14.9062 3.65625C14.634 3.65625 14.3669 3.76482 14.1744 3.95383C13.9819 4.14273 13.8711 4.40477 13.8711 4.67188C13.8711 4.93898 13.9819 5.20102 14.1744 5.38982C14.3669 5.57883 14.634 5.6875 14.9062 5.6875C15.1785 5.6875 15.4456 5.57883 15.6381 5.38982C15.8306 5.20102 15.9414 4.93898 15.9414 4.67188C15.9414 4.40477 15.8306 4.14273 15.6381 3.95383Z" fill="#A6777E"/>
<path d="M41.31 35.0968C41.1174 34.9068 40.8504 34.7992 40.5781 34.7992C40.3059 34.7992 40.0388 34.907 39.8463 35.0968C39.6537 35.2857 39.543 35.5477 39.543 35.8148C39.543 36.0819 39.6537 36.344 39.8463 36.5329C40.0388 36.7217 40.3059 36.8304 40.5781 36.8304C40.8504 36.8304 41.1174 36.7218 41.31 36.5329C41.5025 36.344 41.6133 36.0819 41.6133 35.8148C41.6133 35.5467 41.5025 35.2857 41.31 35.0968Z" fill="#A6777E"/>
<path d="M43.8908 13.8063C41.8359 13.8063 40.1642 15.4465 40.1642 17.4626C40.1642 18.2634 40.4287 19.0044 40.8755 19.6074L33.9994 26.3537C33.4658 26.0639 32.8528 25.8984 32.2008 25.8984C31.6134 25.8984 31.0575 26.0329 30.5628 26.2715L23.3831 19.2272C23.6784 18.7037 23.8471 18.1022 23.8471 17.4626C23.8471 15.4465 22.1755 13.8063 20.1206 13.8063C18.0657 13.8063 16.394 15.4465 16.394 17.4626C16.394 18.1672 16.5988 18.8256 16.9522 19.3843L10.8393 25.3818C10.3056 25.0921 9.69261 24.9265 9.04077 24.9265C6.98588 24.9265 5.31421 26.5666 5.31421 28.5828C5.31421 30.5989 6.98588 32.239 9.04077 32.239C11.0957 32.239 12.7673 30.5989 12.7673 28.5828C12.7673 27.9431 12.5986 27.3417 12.3033 26.8181L18.4892 20.7489C18.9822 20.9855 19.5358 21.1187 20.1206 21.1187C20.7724 21.1187 21.3854 20.9532 21.919 20.6634L29.0285 27.6386C28.6775 28.1962 28.4743 28.8523 28.4743 29.5544C28.4743 31.5705 30.146 33.2107 32.2008 33.2107C34.2557 33.2107 35.9274 31.5705 35.9274 29.5544C35.9274 28.9148 35.7587 28.3133 35.4633 27.7898L42.5236 20.8627C42.9473 21.0274 43.4083 21.1188 43.8908 21.1188C45.9456 21.1188 47.6173 19.4787 47.6173 17.4626C47.6173 15.4465 45.9456 13.8063 43.8908 13.8063ZM9.04087 30.208C8.12766 30.208 7.38462 29.479 7.38462 28.583C7.38462 27.687 8.12766 26.958 9.04087 26.958C9.95409 26.958 10.6971 27.687 10.6971 28.583C10.6971 29.479 9.95409 30.208 9.04087 30.208ZM20.1207 19.0876C19.2075 19.0876 18.4644 18.3586 18.4644 17.4626C18.4644 16.5666 19.2075 15.8376 20.1207 15.8376C21.0339 15.8376 21.7769 16.5666 21.7769 17.4626C21.7769 18.3586 21.0339 19.0876 20.1207 19.0876ZM32.2009 31.1796C31.2877 31.1796 30.5447 30.4506 30.5447 29.5546C30.5447 28.6586 31.2877 27.9296 32.2009 27.9296C33.1142 27.9296 33.8572 28.6586 33.8572 29.5546C33.8572 30.4506 33.1142 31.1796 32.2009 31.1796ZM43.8908 19.0876C42.9775 19.0876 42.2345 18.3586 42.2345 17.4626C42.2345 16.5666 42.9775 15.8376 43.8908 15.8376C44.804 15.8376 45.547 16.5666 45.547 17.4626C45.547 18.3586 44.804 19.0876 43.8908 19.0876Z" fill="#A6777E"/>
<path d="M15.3544 13.0966C15.1608 12.9077 14.8948 12.7989 14.6225 12.7989C14.3492 12.7989 14.0822 12.9076 13.8896 13.0966C13.6971 13.2854 13.5874 13.5474 13.5874 13.8145C13.5874 14.0816 13.6971 14.3437 13.8896 14.5326C14.0832 14.7215 14.3492 14.8302 14.6225 14.8302C14.8948 14.8302 15.1608 14.7216 15.3544 14.5326C15.5469 14.3437 15.6577 14.0816 15.6577 13.8145C15.6577 13.5474 15.5469 13.2854 15.3544 13.0966Z" fill="#A6777E"/>
<path d="M10.7656 12.799H5.79687C5.22516 12.799 4.76172 13.2538 4.76172 13.8146C4.76172 14.3755 5.22516 14.8302 5.79687 14.8302H10.7656C11.3373 14.8302 11.8008 14.3755 11.8008 13.8146C11.8008 13.2538 11.3373 12.799 10.7656 12.799Z" fill="#A6777E"/>
<path d="M10.7656 17.674H5.79687C5.22516 17.674 4.76172 18.1288 4.76172 18.6896C4.76172 19.2505 5.22516 19.7053 5.79687 19.7053H10.7656C11.3373 19.7053 11.8008 19.2505 11.8008 18.6896C11.8008 18.1288 11.3373 17.674 10.7656 17.674Z" fill="#A6777E"/>
</svg>
