<svg width="60" height="60" viewBox="0 0 60 60" fill="none" xmlns="http://www.w3.org/2000/svg">
<path d="M58.8281 15.8265H54.8326C53.5893 15.8265 52.3744 16.3167 51.4122 17.2065L48.543 19.859H44.3449V16.105C44.3449 13.1426 42.2129 10.7326 39.5923 10.7326H37.0324V8.63711C37.0324 7.21488 38.0559 6.05772 39.3142 6.05772H44.6952V8.14126C44.6952 8.87291 45.22 9.46599 45.8671 9.46599H55.813C58.1217 9.46599 60 7.34285 60 4.733C60 2.12314 58.1218 0 55.813 0H45.8671C45.22 0 44.6952 0.593082 44.6952 1.32473V3.40827H39.3142C36.7636 3.40827 34.6887 5.75396 34.6887 8.63711V10.7326H30.2655C29.6053 10.7326 28.95 10.8923 28.3481 11.1916L24.3264 6.79017C22.8942 5.22248 21.0077 4.35902 19.014 4.35902H11.5058C7.92223 4.35902 5.00684 7.65469 5.00684 11.7057V16.6493H4.75254C2.13199 16.6492 0 19.0593 0 22.0218V40.4449C0 43.4073 2.13199 45.8174 4.75266 45.8174H13.8036C13.6164 46.3253 13.5124 46.8819 13.5124 47.4657V51.3C13.5124 52.0317 14.0372 52.6248 14.6843 52.6248H16.2108L13.5029 59.8718C13.2511 60.5459 13.5302 61.3229 14.1265 61.6076C14.2753 61.6788 14.4299 61.7124 14.5819 61.7124C15.0388 61.7124 15.473 61.4085 15.662 60.9029L18.755 52.6249H20.8808V60.3874C20.8808 61.1191 21.4056 61.7121 22.0527 61.7121C22.6998 61.7121 23.2246 61.1191 23.2246 60.3874V52.6249H25.5882L28.6812 60.9029C28.8701 61.4085 29.3043 61.7124 29.7612 61.7124C29.9133 61.7124 30.0679 61.6788 30.2167 61.6076C30.8129 61.3229 31.0922 60.5459 30.8402 59.8718L28.1325 52.6248H29.4212C30.0683 52.6248 30.5931 52.0317 30.5931 51.3V47.4657C30.5931 46.8821 30.4891 46.3253 30.3019 45.8174H39.5924C42.2129 45.8174 44.345 43.4073 44.345 40.4449V35.658H48.5432L51.4123 38.3107C52.3747 39.2005 53.5895 39.6906 54.8327 39.6906H58.8281C59.4752 39.6906 60 39.0975 60 38.3659V33.5032C60 32.7716 59.4752 32.1785 58.8281 32.1785C58.181 32.1785 57.6562 32.7716 57.6562 33.5032V37.0412H54.8326C54.1287 37.0412 53.4409 36.7636 52.896 36.2598L50.1332 33.7055V21.8118L52.896 19.2575C53.4408 18.7537 54.1287 18.4763 54.8326 18.4763H57.6562V21.8533C57.6562 22.5849 58.181 23.178 58.8281 23.178C59.4752 23.178 60 22.5849 60 21.8533V17.1515C60 16.4196 59.4752 15.8265 58.8281 15.8265ZM47.0389 2.64933H55.813C56.8294 2.64933 57.6562 3.58406 57.6562 4.73286C57.6562 5.88167 56.8294 6.8164 55.813 6.8164H47.0389V2.64933ZM7.3507 11.7056C7.3507 9.11547 9.21469 7.00835 11.5059 7.00835H19.0141C20.3959 7.00835 21.7035 7.60673 22.6961 8.69341L26.3647 12.7084L24.2734 14.5051L20.891 10.8034C20.3854 10.249 19.7188 9.94382 19.0141 9.94382H11.5059C10.6466 9.94382 9.94746 10.7342 9.94746 11.7056V16.6492H7.3507V11.7056ZM22.3843 16.1254C21.9746 16.4627 21.4736 16.6493 20.9664 16.6493H12.2913V12.5934H19.0143C19.1078 12.5934 19.1925 12.6322 19.2601 12.7064L22.3843 16.1254ZM28.2493 47.4657V49.9753H15.8562V47.4657C15.8562 46.5568 16.5103 45.8174 17.3143 45.8174H26.7911C27.5952 45.8174 28.2493 46.5568 28.2493 47.4657ZM42.0012 40.4449C42.0012 41.9464 40.9205 43.1679 39.5923 43.1679H4.75266C3.42445 43.1679 2.34375 41.9464 2.34375 40.4449V31.7493H5.66461C6.31172 31.7493 6.83648 31.1562 6.83648 30.4245C6.83648 29.6929 6.31172 29.0998 5.66461 29.0998H2.34375V25.9773H5.66461C6.31172 25.9773 6.83648 25.3842 6.83648 24.6526C6.83648 23.9209 6.31172 23.3278 5.66461 23.3278H2.34375V22.0218C2.34375 20.5203 3.42445 19.2987 4.75266 19.2987H20.9662C21.9988 19.2987 23.02 18.9097 23.8419 18.2035L28.808 13.937C29.2247 13.579 29.7423 13.3819 30.2655 13.3819H39.5923C40.9205 13.3819 42.0012 14.6034 42.0012 16.1049V40.4449ZM44.3449 22.5085H47.7894V33.0086H44.3449V22.5085Z" fill="#A6777E"/>
<path d="M34.3576 29.6665H28.4199C26.0789 29.6665 24.1744 31.8193 24.1744 34.4658C24.1744 37.1122 26.0789 39.265 28.4199 39.265H34.3576C36.6986 39.265 38.6031 37.1122 38.6031 34.4658C38.6031 31.8193 36.6985 29.6665 34.3576 29.6665ZM34.3576 36.6154H28.4199C27.3713 36.6154 26.5182 35.651 26.5182 34.4656C26.5182 33.2803 27.3712 32.3158 28.4199 32.3158H34.3576C35.4062 32.3158 36.2594 33.2803 36.2594 34.4656C36.2594 35.651 35.4062 36.6154 34.3576 36.6154Z" fill="#A6777E"/>
<path d="M59.8021 27.0237C59.453 26.42 58.7053 26.2581 58.178 26.6568C57.6462 27.0587 57.5004 27.8931 57.8544 28.4942C58.2088 29.0957 58.9474 29.2583 59.4786 28.8598C60.0062 28.4639 60.1624 27.6181 59.8021 27.0237Z" fill="#A6777E"/>
</svg>
