<svg width="60" height="60" viewBox="0 0 60 60" fill="none" xmlns="http://www.w3.org/2000/svg">
<path d="M46.2781 46.2061H21.6632C21.1743 46.2061 20.7779 46.6029 20.7779 47.0918C20.7779 47.5807 21.1743 47.9771 21.6632 47.9771H46.2776C46.767 47.9771 47.1634 47.5807 47.1634 47.0918C47.1634 46.6029 46.767 46.2061 46.2781 46.2061Z" fill="#A6777E"/>
<path d="M46.2781 39.9863H21.6632C21.1743 39.9863 20.7779 40.3828 20.7779 40.8716C20.7779 41.361 21.1743 41.7574 21.6632 41.7574H46.2776C46.767 41.7574 47.1634 41.361 47.1634 40.8716C47.1634 40.3828 46.767 39.9863 46.2781 39.9863Z" fill="#A6777E"/>
<path d="M20.7779 34.6475C20.7779 35.1369 21.1743 35.5333 21.6632 35.5333H37.3265C37.8159 35.5333 38.2123 35.1369 38.2123 34.6475C38.2123 34.1586 37.8159 33.7622 37.3265 33.7622H21.6632C21.1743 33.7622 20.7779 34.1586 20.7779 34.6475Z" fill="#A6777E"/>
<path d="M55.6247 11.6171L54.028 9.88403V3.68546C54.028 1.65344 52.37 0 50.3316 0H10.7217C8.68332 0 7.0253 1.65344 7.0253 3.68546V10.6773H5.40573C3.45886 10.6773 1.875 12.2621 1.875 14.2099V24.9303C1.875 26.8781 3.45886 28.4628 5.40573 28.4628H7.0253V53.166C7.0253 55.1981 8.68332 56.8515 10.7217 56.8515H12.7451C12.963 58.6235 14.4768 60 16.3074 60H54.4153C56.3969 60 58.0087 58.39 58.0087 56.4111V18.1586C58.0087 15.0279 57.9144 14.1064 55.6247 11.6171ZM56.201 16.3362H49.5671C48.5623 16.3362 47.7448 15.5209 47.7448 14.5193L47.7507 6.81839C48.9153 6.90491 49.2261 7.24915 50.2469 8.3844C50.4163 8.573 50.6012 8.77808 50.8067 9.00146L52.4995 10.8389C52.5055 10.8453 52.5114 10.8522 52.5179 10.8586L54.3214 12.8165C55.7277 14.3454 56.1017 14.9872 56.201 16.3362ZM8.79639 3.68546C8.79639 2.62985 9.66019 1.77109 10.7217 1.77109H50.3316C51.3931 1.77109 52.2569 2.62985 52.2569 3.68546V7.96143L52.1095 7.80121C51.9086 7.58377 51.7291 7.38373 51.5643 7.20016C50.1086 5.58151 49.4724 5.02167 46.8668 5.02167H46.8663H16.3074C14.3275 5.02167 12.7171 6.63162 12.7171 8.61053V10.6773H8.79639V3.68546ZM56.2376 56.4111C56.2376 57.4132 55.4201 58.2289 54.4153 58.2289H16.3074C15.3044 58.2289 14.4882 57.4136 14.4882 56.4111V43.5782C14.4882 43.0893 14.0918 42.6929 13.6024 42.6929C13.1136 42.6929 12.7171 43.0893 12.7171 43.5782V55.0804H10.7217C9.66019 55.0804 8.79639 54.2216 8.79639 53.1665V28.4628H12.7171V39.5233C12.7171 40.0122 13.1136 40.4086 13.6024 40.4086C14.0918 40.4086 14.4882 40.0122 14.4882 39.5233V28.4628H19.0851C19.574 28.4628 19.9704 28.0664 19.9704 27.5771C19.9704 27.0882 19.574 26.6917 19.0851 26.6917H5.40573C4.43527 26.6917 3.64609 25.9016 3.64609 24.9303V14.2099C3.64609 13.2385 4.43527 12.4484 5.40573 12.4484H28.7274C29.6992 12.4484 30.4903 13.2385 30.4903 14.2099V24.9303C30.4903 25.9016 29.6992 26.6917 28.7274 26.6917H23.1422C22.6529 26.6917 22.2565 27.0882 22.2565 27.5771C22.2565 28.0664 22.6529 28.4628 23.1422 28.4628H28.7274C30.6761 28.4628 32.2614 26.8781 32.2614 24.9303V14.2099C32.2614 12.2621 30.6761 10.6773 28.7274 10.6773H14.4882V8.61053C14.4882 7.60803 15.3044 6.79276 16.3074 6.79276H45.9796L45.9737 14.5189C45.9737 16.4978 47.5859 18.1078 49.5671 18.1078H56.2376V18.1586V56.4111Z" fill="#A6777E"/>
<path d="M10.7401 15.7778H8.61877C8.35831 15.7778 8.13675 15.8689 7.95456 16.0516C7.77237 16.2338 7.68127 16.4585 7.68127 16.7263V22.9977C7.68127 23.2581 7.77054 23.4774 7.94907 23.6559C8.12759 23.8349 8.34 23.9242 8.58536 23.9242C8.83118 23.9242 9.04312 23.8349 9.22165 23.6559C9.40063 23.4774 9.4899 23.2655 9.4899 23.0201V21.2014H10.8517C11.678 21.2014 12.3404 20.9542 12.8389 20.4594C13.3374 19.9645 13.5869 19.3154 13.5869 18.5121C13.5869 17.7014 13.3228 17.0426 12.7945 16.5368C12.2658 16.031 11.581 15.7778 10.7401 15.7778ZM11.3988 19.293C11.1827 19.5091 10.93 19.6166 10.6398 19.6166H9.4899V17.396H10.6508C10.9561 17.396 11.2106 17.5059 11.4157 17.7252C11.6203 17.9449 11.7224 18.2108 11.7224 18.523C11.7224 18.8206 11.6148 19.0774 11.3988 19.293Z" fill="#A6777E"/>
<path d="M21.0086 17.9035C20.7445 17.3271 20.3741 16.8639 19.8981 16.5142C19.2357 16.0308 18.3797 15.7891 17.3305 15.7891H15.466C15.2051 15.7891 14.9858 15.882 14.8073 16.0678C14.6283 16.2542 14.539 16.4661 14.539 16.7041V22.9196C14.539 23.1874 14.6246 23.4067 14.7958 23.5779C14.9817 23.7418 15.2087 23.8233 15.477 23.8233H17.4866C18.5728 23.8233 19.444 23.5294 20.099 22.9416C20.9697 22.146 21.405 21.0932 21.405 19.784C21.405 19.1069 21.2727 18.4803 21.0086 17.9035ZM18.9601 21.5358C18.5728 21.9748 18.0597 22.1941 17.4193 22.1941H16.3477V17.4292H17.319C18.0038 17.4292 18.5454 17.6412 18.9436 18.0655C19.3414 18.4894 19.5406 19.0621 19.5406 19.784C19.5406 20.5132 19.3469 21.0968 18.9601 21.5358Z" fill="#A6777E"/>
<path d="M23.4846 23.9467C23.7373 23.9467 23.9516 23.8569 24.1264 23.6784C24.3013 23.4999 24.3887 23.2879 24.3887 23.0426V20.6434H26.1081C26.3539 20.6434 26.5585 20.5638 26.722 20.4036C26.8858 20.2438 26.9678 20.052 26.9678 19.8286C26.9678 19.5984 26.884 19.4029 26.7165 19.2431C26.5489 19.0834 26.3461 19.0033 26.1081 19.0033H24.3887V17.4295H26.4207C26.6515 17.4295 26.8451 17.348 27.0012 17.1841C27.1577 17.0207 27.2356 16.8307 27.2356 16.6151C27.2356 16.3771 27.1559 16.1779 26.9957 16.0182C26.8355 15.858 26.6441 15.7783 26.4207 15.7783H23.4956C23.2352 15.7783 23.0154 15.8712 22.8369 16.0571C22.6584 16.2434 22.5691 16.459 22.5691 16.7044V23.0426C22.5691 23.2884 22.662 23.5003 22.8484 23.6789C23.0342 23.8569 23.2462 23.9467 23.4846 23.9467Z" fill="#A6777E"/>
</svg>
