<svg width="58" height="60" viewBox="0 0 58 60" fill="none" xmlns="http://www.w3.org/2000/svg">
<path fill-rule="evenodd" clip-rule="evenodd" d="M56.9405 25.3313C56.6649 25.1088 56.3038 25.0227 55.9582 25.0969L38.0733 28.9233L36.0674 28.4944L41.3601 17.8931C41.3688 17.8757 41.377 17.8583 41.3848 17.8409C42.0952 16.2236 42.4555 14.5029 42.4555 12.7258C42.4555 5.70877 36.7472 0 29.7301 0C22.7131 0 17.0043 5.70877 17.0043 12.7258C17.0043 14.5029 17.3646 16.2236 18.0755 17.8409C18.0833 17.8583 18.091 17.8757 18.0997 17.8931L21.8772 25.4581L20.188 25.0969C20.1725 25.0932 20.1565 25.0919 20.1404 25.0896C20.1176 25.0854 20.0951 25.0813 20.0722 25.0786C20.0512 25.0763 20.0306 25.0758 20.01 25.0745C19.9871 25.0731 19.9647 25.0713 19.9422 25.0713C19.9207 25.0713 19.8997 25.0731 19.8781 25.074C19.8562 25.0754 19.8342 25.0763 19.8127 25.0786C19.7903 25.0813 19.7683 25.0854 19.7463 25.0891C19.7298 25.0919 19.7138 25.0932 19.6973 25.0964L1.56714 28.976C1.02698 29.0913 0.640625 29.5692 0.640625 30.1218V39.7874C0.640625 40.4347 1.16522 40.9593 1.8125 40.9593C2.45978 40.9593 2.98438 40.4347 2.98438 39.7874V31.0693L18.7708 27.692V54.0015L2.98438 57.3788V49.1624C2.98438 48.5152 2.45978 47.9906 1.8125 47.9906C1.16522 47.9906 0.640625 48.5152 0.640625 49.1624V58.8281C0.640625 59.182 0.800384 59.5171 1.0755 59.7391C1.28607 59.9094 1.54654 60 1.8125 60C1.89398 60 1.97638 59.9913 2.05786 59.9739L19.9427 56.1475L37.828 59.9739C37.8344 59.9753 37.8408 59.9762 37.8472 59.9771C37.8733 59.9821 37.8994 59.9863 37.9255 59.9895C37.9374 59.9908 37.9488 59.9927 37.9607 59.994C37.9978 59.9977 38.0353 60 38.0733 60C38.1109 60 38.1484 59.9977 38.1855 59.994C38.1974 59.9927 38.2093 59.9908 38.2207 59.9895C38.2468 59.9863 38.2729 59.9821 38.2986 59.9771C38.305 59.9757 38.3118 59.9753 38.3182 59.9739L56.4484 56.0948C56.989 55.979 57.3754 55.5016 57.3754 54.949V45.2834C57.3754 44.6361 56.8508 44.1115 56.2035 44.1115C55.5562 44.1115 55.0316 44.6361 55.0316 45.2834V54.001L39.2452 57.3788V31.0693L55.0316 27.692V35.9084C55.0316 36.5556 55.5562 37.0802 56.2035 37.0802C56.8508 37.0802 57.3754 36.5556 57.3754 35.9084V26.2427C57.3754 25.8888 57.2156 25.5542 56.9405 25.3313V25.3313ZM19.3481 12.7258C19.3481 7.00104 24.0053 2.34375 29.7301 2.34375C35.4549 2.34375 40.1122 7.00104 40.1122 12.7258C40.1122 14.1669 39.822 15.5617 39.2502 16.8723L29.7301 35.9404L20.21 16.8723C19.6378 15.5617 19.3481 14.1669 19.3481 12.7258V12.7258ZM21.1146 27.692L23.2166 28.1415L28.6819 39.0871C28.8801 39.4844 29.2861 39.7357 29.7301 39.7357C30.1742 39.7357 30.5802 39.4844 30.7789 39.0871L34.9862 30.6596L36.9015 31.0693V57.3788L21.115 54.001V27.692H21.1146Z" fill="#A6777E"/>
<path fill-rule="evenodd" clip-rule="evenodd" d="M37.2654 12.7256C37.2654 8.57053 33.8853 5.18994 29.7301 5.18994C25.575 5.18994 22.1944 8.57053 22.1944 12.7256C22.1944 16.8808 25.575 20.2609 29.7301 20.2609C33.8853 20.2609 37.2654 16.8808 37.2654 12.7256ZM24.5382 12.7256C24.5382 9.86279 26.8673 7.53369 29.7301 7.53369C32.593 7.53369 34.9221 9.86279 34.9221 12.7256C34.9221 15.588 32.593 17.9171 29.7301 17.9171C26.8673 17.9171 24.5382 15.588 24.5382 12.7256V12.7256Z" fill="#A6777E"/>
<path fill-rule="evenodd" clip-rule="evenodd" d="M1.8125 45.647C2.45795 45.647 2.98438 45.1205 2.98438 44.4751C2.98438 43.8297 2.45795 43.3032 1.8125 43.3032C1.16705 43.3032 0.640625 43.8297 0.640625 44.4751C0.640625 45.1205 1.16705 45.647 1.8125 45.647Z" fill="#A6777E"/>
<path fill-rule="evenodd" clip-rule="evenodd" d="M56.2035 39.4238C55.5581 39.4238 55.0316 39.9503 55.0316 40.5957C55.0316 41.2411 55.5581 41.7676 56.2035 41.7676C56.849 41.7676 57.3754 41.2411 57.3754 40.5957C57.3754 39.9503 56.849 39.4238 56.2035 39.4238Z" fill="#A6777E"/>
</svg>
