<svg width="60" height="60" viewBox="0 0 60 60" fill="none" xmlns="http://www.w3.org/2000/svg">
<g clip-path="url(#clip0_25_691)">
<path d="M7.29096 2.00049H2.06829C0.927805 2.00049 0 2.92023 0 4.05055V9.22718C0 10.3575 0.927805 11.2772 2.06829 11.2772H7.29096C8.43144 11.2772 9.35925 10.3576 9.35925 9.22718V4.05055C9.35913 2.92023 8.43133 2.00049 7.29096 2.00049ZM7.59658 9.22718C7.59658 9.39431 7.45946 9.53023 7.29084 9.53023H2.06829C1.89967 9.53023 1.76255 9.39431 1.76255 9.22718V4.05055C1.76255 3.88342 1.89967 3.7475 2.06829 3.7475H7.29096C7.45957 3.7475 7.5967 3.88342 7.5967 4.05055V9.22718H7.59658Z" fill="#A6777E"/>
<path d="M7.29096 47.7197H2.06829C0.927805 47.7197 0 48.6395 0 49.7698V54.9464C0 56.0767 0.927805 56.9965 2.06829 56.9965H7.29096C8.43144 56.9965 9.35925 56.0769 9.35925 54.9464V49.7698C9.35913 48.6395 8.43133 47.7197 7.29096 47.7197ZM7.59658 54.9464C7.59658 55.1136 7.45946 55.2495 7.29084 55.2495H2.06829C1.89967 55.2495 1.76255 55.1136 1.76255 54.9464V49.7698C1.76255 49.6027 1.89967 49.4667 2.06829 49.4667H7.29096C7.45957 49.4667 7.5967 49.6027 7.5967 49.7698V54.9464H7.59658Z" fill="#A6777E"/>
<path d="M57.9319 2H23.1216C22.6349 2 22.2403 2.39098 22.2403 2.87351C22.2403 3.35603 22.6349 3.74702 23.1216 3.74702H57.9319C58.1004 3.74702 58.2375 3.8834 58.2375 4.05088V9.2267C58.2375 9.3943 58.1003 9.53068 57.9319 9.53068H15.4381C15.2696 9.53068 15.1326 9.3943 15.1326 9.2267V4.05088C15.1326 3.8834 15.2696 3.74702 15.4381 3.74702H19.009C19.4957 3.74702 19.8903 3.35603 19.8903 2.87351C19.8903 2.39098 19.4957 2 19.009 2H15.4381C14.2977 2 13.37 2.91998 13.37 4.05088V9.2267C13.37 10.3576 14.2977 11.2777 15.4381 11.2777H57.9319C59.0723 11.2777 60 10.3576 60 9.2267V4.05088C60 2.92009 59.0722 2 57.9319 2Z" fill="#A6777E"/>
<path d="M57.9319 47.7222H23.1216C22.6349 47.7222 22.2403 48.1131 22.2403 48.5957C22.2403 49.0782 22.6349 49.4692 23.1216 49.4692H57.9319C58.1004 49.4692 58.2375 49.6056 58.2375 49.773V54.9489C58.2375 55.1165 58.1003 55.2529 57.9319 55.2529H15.4381C15.2696 55.2529 15.1326 55.1165 15.1326 54.9489V49.773C15.1326 49.6056 15.2696 49.4692 15.4381 49.4692H19.009C19.4957 49.4692 19.8903 49.0782 19.8903 48.5957C19.8903 48.1131 19.4957 47.7222 19.009 47.7222H15.4381C14.2977 47.7222 13.37 48.6421 13.37 49.773V54.9489C13.37 56.0798 14.2977 56.9999 15.4381 56.9999H57.9319C59.0723 56.9999 60 56.0798 60 54.9489V49.773C60 48.6423 59.0722 47.7222 57.9319 47.7222Z" fill="#A6777E"/>
<path d="M7.29096 17.2402H2.06829C0.927805 17.2402 0 18.1599 0 19.2902V24.4668C0 25.5971 0.927805 26.5169 2.06829 26.5169H7.29096C8.43144 26.5169 9.35925 25.5972 9.35925 24.4668V19.2902C9.35913 18.1599 8.43133 17.2402 7.29096 17.2402ZM7.59658 24.4669C7.59658 24.634 7.45946 24.77 7.29084 24.77H2.06829C1.89967 24.77 1.76255 24.634 1.76255 24.4669V19.2903C1.76255 19.1232 1.89967 18.9872 2.06829 18.9872H7.29096C7.45957 18.9872 7.5967 19.1232 7.5967 19.2903V24.4669H7.59658Z" fill="#A6777E"/>
<path d="M57.9319 17.2407H15.4381C14.2977 17.2407 13.37 18.1608 13.37 19.2917V24.4674C13.37 25.5983 14.2977 26.5184 15.4381 26.5184H50.4388C50.9255 26.5184 51.32 26.1275 51.32 25.6449C51.32 25.1624 50.9255 24.7714 50.4388 24.7714H15.4381C15.2696 24.7714 15.1326 24.635 15.1326 24.4674V19.2917C15.1326 19.1241 15.2696 18.9877 15.4381 18.9877H57.9319C58.1004 18.9877 58.2375 19.1241 58.2375 19.2917V24.4674C58.2375 24.635 58.1003 24.7714 57.9319 24.7714H54.5514C54.0647 24.7714 53.6701 25.1624 53.6701 25.6449C53.6701 26.1275 54.0647 26.5184 54.5514 26.5184H57.9319C59.0723 26.5184 60 25.5983 60 24.4674V19.2917C60 18.1608 59.0722 17.2407 57.9319 17.2407Z" fill="#A6777E"/>
<path d="M7.29096 32.48H2.06829C0.927805 32.48 0 33.3996 0 34.5299V39.7066C0 40.8369 0.927805 41.7566 2.06829 41.7566H7.29096C8.43144 41.7566 9.35925 40.837 9.35925 39.7066V34.5299C9.35913 33.3996 8.43133 32.48 7.29096 32.48ZM7.59658 39.7066C7.59658 39.8737 7.45946 40.0096 7.29084 40.0096H2.06829C1.89967 40.0096 1.76255 39.8737 1.76255 39.7066V34.5299C1.76255 34.3628 1.89967 34.2269 2.06829 34.2269H7.29096C7.45957 34.2269 7.5967 34.3628 7.5967 34.5299V39.7066H7.59658Z" fill="#A6777E"/>
<path d="M57.9319 32.4814H15.4381C14.2977 32.4814 13.37 33.4015 13.37 34.5324V39.7083C13.37 40.8392 14.2977 41.7592 15.4381 41.7592H23.574C24.0607 41.7592 24.4553 41.3682 24.4553 40.8856C24.4553 40.4031 24.0607 40.0121 23.574 40.0121H15.4381C15.2696 40.0121 15.1326 39.8758 15.1326 39.7083V34.5324C15.1326 34.3648 15.2696 34.2285 15.4381 34.2285H57.9319C58.1004 34.2285 58.2375 34.3648 58.2375 34.5324V39.7083C58.2375 39.8758 58.1003 40.0121 57.9319 40.0121H27.6866C27.1999 40.0121 26.8053 40.4031 26.8053 40.8856C26.8053 41.3682 27.1999 41.7592 27.6866 41.7592H57.9319C59.0723 41.7592 60 40.8392 60 39.7083V34.5324C60 33.4015 59.0722 32.4814 57.9319 32.4814Z" fill="#A6777E"/>
</g>
<defs>
<clipPath id="clip0_25_691">
<rect width="60" height="60" fill="white"/>
</clipPath>
</defs>
</svg>
