<svg width="240" height="43" viewBox="0 0 240 43" fill="none" xmlns="http://www.w3.org/2000/svg">
<g clip-path="url(#clip0_187_60)">
<path d="M0.0792577 1.47089C-0.00370098 1.2897 -0.0221902 1.0854 0.0268824 0.892166C0.0759549 0.698928 0.189614 0.528465 0.348849 0.409291C0.562003 0.317495 0.802141 0.311486 1.01959 0.392501C1.23703 0.473516 1.41514 0.635355 1.51708 0.844546V0.818008C3.82182 6.23746 5.93627 11.1474 8.21458 16.6093C9.00221 14.7302 9.80042 12.9361 10.5986 11.0571C9.24009 7.87232 7.86041 4.60791 6.50717 1.39127C6.47955 1.21543 6.47955 1.03632 6.50717 0.860473C6.55503 0.740744 6.62654 0.631986 6.71739 0.54076C6.80824 0.449533 6.91654 0.37773 7.03578 0.329674C7.23768 0.261905 7.45742 0.271586 7.65264 0.356856C7.84786 0.442126 8.00472 0.596946 8.093 0.791467L11.4814 8.84899C12.5915 6.195 13.7333 3.46138 14.8434 0.791467C14.9259 0.591306 15.0807 0.429814 15.2767 0.339276C15.4727 0.248738 15.6955 0.235829 15.9006 0.303133C16.0874 0.369148 16.2423 0.503823 16.334 0.679999C16.3605 0.679999 16.3605 0.738389 16.3869 0.764929C16.4491 0.99698 16.4581 1.24014 16.4133 1.4762C15.113 4.58137 13.6487 7.95194 12.3748 11.0306C13.2152 13.0476 13.8919 14.5445 14.7324 16.5827C16.9261 11.2747 19.178 6.04638 21.3506 0.764929C21.4338 0.551377 21.5949 0.377654 21.8011 0.279062C22.0072 0.180469 22.2431 0.164403 22.4607 0.23413C22.6684 0.364315 22.838 0.54747 22.9523 0.764929C23.0069 0.865 23.0355 0.977265 23.0355 1.09137C23.0355 1.20547 23.0069 1.31774 22.9523 1.41781C20.5101 7.21413 17.9939 13.2865 15.5517 19.0881C15.4895 19.2463 15.3809 19.3819 15.2402 19.4767C15.0995 19.5715 14.9335 19.6211 14.7641 19.6189C14.5902 19.6156 14.4215 19.5589 14.2807 19.4564C14.1398 19.3539 14.0337 19.2106 13.9764 19.0456C13.0831 16.9224 12.3906 15.33 11.5078 13.2068C10.6938 15.139 9.82685 17.1295 9.01279 19.0456C8.94443 19.1895 8.83691 19.3109 8.70267 19.396C8.56843 19.481 8.41295 19.5261 8.25423 19.5261C8.09551 19.5261 7.94003 19.481 7.80579 19.396C7.67154 19.3109 7.56402 19.1895 7.49567 19.0456L0.0792577 1.47089Z" fill="#FDFDFD"/>
<path d="M27.9265 19.406C27.837 19.2437 27.7914 19.0607 27.7943 18.8752V1.14125C27.7837 1.0323 27.7964 0.922331 27.8315 0.818693C27.8666 0.715054 27.9234 0.620126 27.9979 0.540249C28.0725 0.460372 28.1631 0.397382 28.2638 0.355483C28.3646 0.313584 28.473 0.29374 28.582 0.297277H38.6049C38.8287 0.310579 39.0407 0.402364 39.204 0.55661C39.3673 0.710855 39.4714 0.91777 39.4983 1.14125C39.4832 1.37727 39.385 1.60023 39.2214 1.77036C39.0578 1.94049 38.8393 2.04673 38.6049 2.07015H29.4648V6.428H37.6798C37.9006 6.44216 38.1093 6.5349 38.2681 6.68958C38.427 6.84427 38.5258 7.05075 38.5467 7.27197C38.5378 7.50566 38.4452 7.72827 38.2859 7.89891C38.1267 8.06955 37.9114 8.17676 37.6798 8.20087H29.4648V18.0472H38.5996C38.8234 18.0605 39.0354 18.1523 39.1987 18.3065C39.362 18.4608 39.4661 18.6677 39.493 18.8912C39.4703 19.1163 39.3674 19.3256 39.2032 19.4806C39.0391 19.6357 38.8248 19.7261 38.5996 19.7351H28.5979C28.469 19.7318 28.3423 19.7007 28.2265 19.6439C28.1107 19.5872 28.0083 19.506 27.9265 19.406Z" fill="#FDFDFD"/>
<path d="M45.1064 19.4061C45.0325 19.3385 44.9729 19.2567 44.9311 19.1655C44.8893 19.0743 44.8662 18.9756 44.8632 18.8753V1.19441C44.8747 0.960241 44.9726 0.738731 45.1377 0.572944C45.3028 0.407156 45.5234 0.308932 45.7566 0.297363H50.6568C55.8055 0.297363 59.9815 4.7083 59.9815 10.0163C59.9815 15.3243 55.8055 19.7087 50.6568 19.7087H45.7777C45.5228 19.7011 45.2814 19.5923 45.1064 19.4061ZM58.2529 10.0163C58.2529 5.63189 54.8381 2.05431 50.6356 2.05431H46.6235V18.0154H50.6568C54.8381 18.0473 58.2529 14.4538 58.2529 10.0163Z" fill="#FDFDFD"/>
<path d="M64.2738 19.4061C64.1999 19.3385 64.1403 19.2567 64.0985 19.1655C64.0567 19.0743 64.0337 18.9756 64.0306 18.8753V1.19441C64.0423 0.959369 64.1408 0.737142 64.307 0.571226C64.4732 0.405311 64.6951 0.30765 64.9293 0.297363H69.8084C74.957 0.297363 79.133 4.7083 79.133 10.0163C79.133 15.3243 74.957 19.7087 69.8084 19.7087H64.9293C64.6797 19.6981 64.4443 19.5895 64.2738 19.4061ZM77.4203 10.0163C77.4203 5.63189 74.0055 2.05431 69.8031 2.05431H65.7909V18.0154H69.8031C74.0055 18.0473 77.4203 14.4538 77.4203 10.0163Z" fill="#FDFDFD"/>
<path d="M83.3038 19.1885V1.14136C83.3248 0.920137 83.4235 0.713649 83.5824 0.558968C83.7413 0.404287 83.9499 0.311543 84.1708 0.297388C84.3992 0.295693 84.6195 0.382451 84.7859 0.539627C84.9523 0.696803 85.052 0.912311 85.0642 1.14136V19.1885C85.0575 19.4243 84.9613 19.6486 84.7952 19.8154C84.629 19.9822 84.4056 20.0789 84.1708 20.0856C83.9431 20.0655 83.7301 19.9639 83.571 19.7991C83.4118 19.6344 83.3169 19.4177 83.3038 19.1885Z" fill="#FDFDFD"/>
<path d="M90.8947 18.8647V1.14136C90.9079 0.994165 90.9566 0.852431 91.0368 0.728475C91.1169 0.60452 91.226 0.50209 91.3546 0.430087C91.4939 0.349744 91.6547 0.31477 91.8147 0.329979C91.9747 0.345189 92.126 0.409837 92.2479 0.515017H92.2215L102.931 7.31985V1.14136C102.931 0.922048 103.016 0.711306 103.168 0.553772C103.32 0.396239 103.527 0.304284 103.745 0.297388C103.974 0.295693 104.194 0.382451 104.36 0.539627C104.527 0.696803 104.626 0.912311 104.639 1.14136V18.8647C104.632 19.091 104.537 19.3056 104.375 19.4632C104.214 19.6207 103.997 19.7088 103.772 19.7087C103.661 19.7109 103.55 19.6905 103.447 19.6489C103.345 19.6072 103.251 19.5451 103.173 19.4663C103.094 19.3875 103.032 19.2936 102.991 19.1902C102.949 19.0869 102.929 18.9761 102.931 18.8647V9.31035C99.3524 7.02261 96.1226 4.92595 92.5756 2.66475V18.8382C92.5777 18.9474 92.5583 19.0559 92.5185 19.1575C92.4786 19.2591 92.4192 19.3518 92.3435 19.4303C92.2678 19.5087 92.1775 19.5713 92.0776 19.6146C91.9777 19.6578 91.8703 19.6808 91.7616 19.6822C91.539 19.6879 91.3232 19.6053 91.1609 19.4523C90.9986 19.2992 90.9029 19.0881 90.8947 18.8647Z" fill="#FDFDFD"/>
<path d="M110.083 10.0162C110.083 4.49056 114.206 0 119.466 0C120.812 0.0295664 122.137 0.34578 123.353 0.927735C124.569 1.50969 125.647 2.34413 126.518 3.37588C126.653 3.51511 126.736 3.69746 126.751 3.89134C126.766 4.08523 126.714 4.27843 126.602 4.43748C126.517 4.5279 126.414 4.59992 126.3 4.64913C126.186 4.69834 126.063 4.72371 125.939 4.72371C125.815 4.72371 125.692 4.69834 125.578 4.64913C125.464 4.59992 125.361 4.5279 125.276 4.43748C124.571 3.57026 123.684 2.86957 122.679 2.38519C121.674 1.90081 120.576 1.64463 119.461 1.63486C115.206 1.63486 111.733 5.35045 111.733 9.9684C111.733 14.5863 115.2 18.3816 119.461 18.3816C122.31 18.3816 124.853 16.6405 126.243 13.9972C126.445 13.5347 126.621 13.0616 126.772 12.5799H119.503C119.271 12.573 119.05 12.4755 118.888 12.308C118.727 12.1405 118.636 11.9163 118.636 11.6829C118.644 11.4595 118.74 11.2484 118.902 11.0953C119.065 10.9423 119.281 10.8597 119.503 10.8654H127.882C128.016 10.847 128.153 10.8653 128.277 10.9186C128.402 10.9719 128.51 11.0581 128.59 11.168C128.715 11.3826 128.754 11.6366 128.701 11.8793C128.561 12.8798 128.248 13.8481 127.776 14.7403C127.016 16.3083 125.838 17.6343 124.373 18.5712C122.908 19.5081 121.213 20.0194 119.477 20.0483C114.206 20.1703 110.083 15.6267 110.083 10.0162Z" fill="#FDFDFD"/>
<path d="M144.432 19.4061C144.358 19.3385 144.299 19.2567 144.257 19.1655C144.215 19.0743 144.192 18.9756 144.189 18.8753V1.19441C144.201 0.960241 144.299 0.738731 144.464 0.572944C144.629 0.407156 144.849 0.308932 145.083 0.297363H149.962C155.11 0.297363 159.286 4.7083 159.286 10.0163C159.286 15.3243 155.11 19.7087 149.962 19.7087H145.083C144.835 19.6957 144.602 19.5873 144.432 19.4061ZM157.579 10.0163C157.579 5.63189 154.164 2.05431 149.962 2.05431H145.949V18.0154H149.962C154.164 18.0473 157.579 14.4538 157.579 10.0163Z" fill="#FDFDFD"/>
<path d="M164.06 18.8647V1.19441C164.054 1.08173 164.071 0.969031 164.109 0.862819C164.146 0.756608 164.205 0.658985 164.281 0.575588C164.356 0.49219 164.448 0.424668 164.55 0.376915C164.651 0.329162 164.762 0.302124 164.874 0.297363H169.832C171.584 0.300801 173.283 0.902664 174.649 2.00401C176.015 3.10536 176.967 4.64066 177.349 6.35752C177.731 8.07438 177.52 9.87065 176.75 11.451C175.981 13.0314 174.699 14.3019 173.115 15.0536C173.293 15.2414 173.457 15.4418 173.606 15.6534C173.717 15.7861 173.85 15.9825 173.961 16.1152C175.753 18.2384 176.836 18.0473 177.079 17.9942C177.275 17.9248 177.489 17.9278 177.683 18.0027C177.877 18.0777 178.038 18.2196 178.137 18.4029C178.189 18.4902 178.224 18.5871 178.238 18.6879C178.253 18.7888 178.248 18.8915 178.223 18.9903C178.198 19.0891 178.153 19.1818 178.092 19.2632C178.031 19.3446 177.955 19.4131 177.867 19.4645C177.545 19.6201 177.193 19.7035 176.836 19.7087C175.943 19.7087 174.479 19.2734 172.66 17.2033C172.496 17.0122 172.306 16.768 172.132 16.5504C171.957 16.3328 171.603 15.9241 171.344 15.6534H171.312C171.071 15.7123 170.825 15.7496 170.577 15.7648C168.992 15.8498 167.977 15.6321 167.406 15.0005C167.222 14.7833 167.087 14.528 167.012 14.2528C166.937 13.9776 166.924 13.6892 166.972 13.4081C167.047 13.0158 167.232 12.6532 167.505 12.3634C167.779 12.0736 168.13 11.8688 168.516 11.7732H168.489C169.003 11.6383 169.546 11.6681 170.041 11.8584C170.537 12.0488 170.961 12.3902 171.254 12.8348C171.386 13.0259 171.555 13.217 171.931 13.6788C173.085 13.2782 174.083 12.5191 174.78 11.5115C175.476 10.5038 175.835 9.29981 175.805 8.07356C175.807 6.48554 175.181 4.96177 174.065 3.83638C172.949 2.71099 171.435 2.07585 169.853 2.07023H165.704V18.8647C165.702 19.0881 165.613 19.302 165.456 19.4599C165.299 19.6179 165.086 19.7073 164.863 19.7087C164.755 19.7066 164.649 19.6831 164.55 19.6395C164.451 19.5959 164.361 19.5331 164.287 19.4546C164.212 19.3762 164.153 19.2837 164.114 19.1824C164.076 19.0812 164.057 18.9732 164.06 18.8647ZM168.722 13.854C168.775 13.9654 169.05 14.0981 170.049 14.0981L169.938 13.9867C169.61 13.5249 169.341 13.4559 169.097 13.4559H168.907C168.787 13.4969 168.683 13.5726 168.606 13.6735H168.632C168.606 13.7584 168.632 13.785 168.659 13.8062L168.722 13.854Z" fill="#FDFDFD"/>
<path d="M183.063 19.406C182.974 19.2437 182.928 19.0607 182.931 18.8752V1.14125C182.921 1.0323 182.933 0.922331 182.968 0.818693C183.004 0.715054 183.06 0.620126 183.135 0.540249C183.209 0.460372 183.3 0.397382 183.401 0.355483C183.501 0.313584 183.61 0.29374 183.719 0.297277H193.726C193.95 0.310579 194.162 0.402364 194.325 0.55661C194.488 0.710855 194.592 0.91777 194.619 1.14125C194.604 1.37727 194.506 1.60023 194.342 1.77036C194.179 1.94049 193.96 2.04673 193.726 2.07015H184.591V6.428H192.806C193.027 6.44216 193.236 6.5349 193.394 6.68958C193.553 6.84427 193.652 7.05075 193.673 7.27197C193.664 7.50566 193.571 7.72827 193.412 7.89891C193.253 8.06955 193.038 8.17676 192.806 8.20087H184.591V18.0472H193.726C193.95 18.0605 194.162 18.1523 194.325 18.3065C194.488 18.4608 194.592 18.6677 194.619 18.8912C194.597 19.1163 194.494 19.3256 194.33 19.4806C194.165 19.6357 193.951 19.7261 193.726 19.7351H183.719C183.593 19.7303 183.469 19.6984 183.356 19.6416C183.243 19.5849 183.143 19.5046 183.063 19.406Z" fill="#FDFDFD"/>
<path d="M200.005 12.6278C200.025 12.4132 200.121 12.2128 200.275 12.0629C200.429 11.913 200.632 11.8234 200.846 11.8104H203.071C204.615 8.19031 206.19 4.4588 207.707 0.838753C207.772 0.68559 207.888 0.559854 208.035 0.483119L207.95 0.509656C207.977 0.483116 208.035 0.398188 208.061 0.376956C208.272 0.295372 208.503 0.286018 208.719 0.350358C208.935 0.414698 209.124 0.549107 209.256 0.73259L216.657 18.509C216.744 18.6066 216.793 18.7333 216.793 18.8647C216.793 18.9961 216.744 19.1228 216.657 19.2203C216.572 19.3686 216.45 19.4915 216.302 19.5759C216.19 19.6535 216.058 19.6993 215.922 19.7086C215.755 19.6992 215.594 19.645 215.456 19.5516C215.317 19.4582 215.206 19.3291 215.134 19.1778L212.75 13.4877H204.234C203.425 15.3933 202.606 17.4421 201.84 19.2946C201.752 19.4225 201.634 19.5267 201.497 19.598C201.359 19.6693 201.207 19.7054 201.052 19.7033C200.913 19.708 200.777 19.6607 200.671 19.5706C200.571 19.5313 200.481 19.4691 200.409 19.389C200.336 19.3089 200.283 19.213 200.254 19.1088C200.227 18.9472 200.227 18.7822 200.254 18.6205L202.368 13.5301H200.851C200.625 13.5073 200.416 13.4034 200.26 13.2376C200.105 13.0718 200.014 12.8553 200.005 12.6278ZM212.015 11.8104C210.794 8.86973 209.684 6.42275 208.463 3.42374C207.242 6.33782 206.132 8.86973 204.911 11.8104H212.015Z" fill="#FDFDFD"/>
<path d="M221.287 18.8647V1.14134C221.307 0.961702 221.378 0.791549 221.491 0.651272C221.604 0.510995 221.756 0.406546 221.927 0.350446L222.117 0.297363C222.273 0.304292 222.425 0.347161 222.562 0.422644C222.698 0.498127 222.816 0.604195 222.905 0.732618L230.607 14.5334C233.181 9.93136 235.782 5.36118 238.335 0.759159C238.519 0.52935 238.78 0.374651 239.07 0.323905L239.313 0.376984C239.494 0.421585 239.656 0.521786 239.777 0.663583C239.899 0.80538 239.973 0.981687 239.989 1.16787L239.963 18.8912C239.946 19.1069 239.849 19.3083 239.691 19.4552C239.532 19.6021 239.325 19.6836 239.109 19.6836C238.894 19.6836 238.686 19.6021 238.528 19.4552C238.37 19.3083 238.272 19.1069 238.256 18.8912V4.43759C235.951 8.54597 233.646 12.6066 231.341 16.715C231.293 16.8425 231.213 16.9551 231.108 17.0417C231.003 17.1283 230.878 17.1859 230.744 17.2086C230.562 17.2281 230.378 17.1866 230.221 17.0907C230.064 16.9947 229.943 16.8496 229.877 16.6778C227.435 12.3518 225.484 8.81137 223.005 4.46944V18.87C222.995 19.0905 222.903 19.2992 222.748 19.4553C222.592 19.6114 222.384 19.7036 222.165 19.714C221.941 19.701 221.73 19.6083 221.569 19.4525C221.408 19.2967 221.308 19.0882 221.287 18.8647Z" fill="#FDFDFD"/>
<path d="M14.9808 42.639V33.6738C14.995 33.5899 15.0395 33.5143 15.1058 33.4614C15.172 33.4085 15.2554 33.382 15.3399 33.3872C15.4246 33.3808 15.5086 33.4068 15.5751 33.4599C15.6417 33.513 15.6858 33.5894 15.6989 33.6738V42.639C15.6908 42.7277 15.6489 42.8098 15.582 42.8682C15.5151 42.9266 15.4283 42.9566 15.3399 42.9522C15.2517 42.9553 15.1656 42.9248 15.099 42.8667C15.0324 42.8086 14.9901 42.7272 14.9808 42.639Z" fill="#FDFDFD"/>
<path d="M19.8282 42.2889L26.1718 33.9978H20.3568C20.2715 33.998 20.1892 33.9659 20.1264 33.9078C20.0637 33.8498 20.0251 33.77 20.0185 33.6846C20.0252 33.6001 20.0642 33.5215 20.1272 33.4652C20.1902 33.4088 20.2724 33.379 20.3568 33.382H26.8326C26.9534 33.3918 27.0654 33.449 27.1445 33.5413C27.1633 33.5879 27.1703 33.6386 27.1648 33.6886C27.1593 33.7387 27.1414 33.7866 27.1127 33.8279L20.7691 42.188H26.5841C26.6265 42.1836 26.6694 42.1881 26.7099 42.2012C26.7505 42.2144 26.7879 42.2358 26.8198 42.2643C26.8516 42.2928 26.8772 42.3276 26.8949 42.3666C26.9125 42.4055 26.9219 42.4478 26.9224 42.4906C26.9097 42.5712 26.8686 42.6445 26.8064 42.6971C26.7443 42.7498 26.6654 42.7782 26.5841 42.7772H20.1348C20.0697 42.7844 20.0041 42.7702 19.9479 42.7367C19.8916 42.7032 19.8477 42.6522 19.8229 42.5914C19.8029 42.5434 19.793 42.4917 19.7939 42.4396C19.7949 42.3875 19.8065 42.3362 19.8282 42.2889Z" fill="#FDFDFD"/>
<path d="M30.8867 39.3906C30.8994 39.3128 30.9394 39.2422 30.9996 39.1915C31.0597 39.1409 31.136 39.1136 31.2145 39.1146H32.6418L35.4012 33.573C35.4241 33.5253 35.4636 33.4875 35.5123 33.4669L35.5598 33.4138C35.6468 33.3908 35.7385 33.3937 35.8238 33.4219C35.9092 33.4502 35.9846 33.5027 36.0409 33.573L40.381 42.379C40.396 42.3934 40.408 42.4107 40.4162 42.4298C40.4243 42.449 40.4286 42.4696 40.4286 42.4905C40.4286 42.5113 40.4243 42.5319 40.4162 42.5511C40.408 42.5703 40.396 42.5876 40.381 42.6019C40.3443 42.6692 40.284 42.7203 40.2118 42.7452C40.1676 42.7682 40.1188 42.7809 40.0691 42.7824C40.0032 42.7821 39.9385 42.7649 39.8811 42.7324C39.8237 42.6998 39.7756 42.6531 39.7413 42.5966L38.314 39.7038H33.1228L31.6797 42.5966C31.6406 42.6497 31.5895 42.6927 31.5307 42.7222C31.472 42.7517 31.4071 42.7669 31.3413 42.7665C31.3021 42.7811 31.259 42.7811 31.2197 42.7665C31.1767 42.7572 31.1368 42.7366 31.1043 42.7067C31.0718 42.6769 31.0478 42.6389 31.0347 42.5966C31.0186 42.5322 31.0186 42.4647 31.0347 42.4002L32.351 39.7462H31.2197C31.1746 39.7449 31.1302 39.7346 31.089 39.716C31.0479 39.6973 31.0108 39.6708 30.9798 39.6377C30.9489 39.6047 30.9247 39.5659 30.9088 39.5235C30.8928 39.4811 30.8853 39.4359 30.8867 39.3906ZM37.9968 39.1146L35.6867 34.4542L33.3924 39.1146H37.9968Z" fill="#FDFDFD"/>
<path d="M48.6589 37.2675C48.8397 37.0859 48.9825 36.8697 49.0788 36.6318C49.175 36.3938 49.2228 36.1389 49.2192 35.8821C49.2192 34.5869 48.0034 33.5413 46.4809 33.5413H43.4095C43.3226 33.552 43.2394 33.5829 43.1664 33.6315C43.1371 33.6548 43.1137 33.6848 43.098 33.7189C43.0824 33.753 43.075 33.7904 43.0765 33.8279V42.464C43.0741 42.5016 43.0811 42.5393 43.0968 42.5735C43.1125 42.6078 43.1364 42.6376 43.1664 42.6604C43.2324 42.7228 43.3189 42.7587 43.4095 42.7612H46.8615C48.7752 42.7612 50.3611 41.4289 50.3611 39.7994C50.3433 39.2593 50.1742 38.7352 49.8731 38.2873C49.572 37.8394 49.1511 37.4859 48.6589 37.2675ZM46.8615 42.1933H43.7849V34.1358H46.5073C47.6333 34.1358 48.5901 34.9107 48.5901 35.8821C48.5787 36.2921 48.4102 36.6819 48.1197 36.9702C48.0516 37.0697 47.961 37.1515 47.8553 37.2091L47.7655 37.294C47.6937 37.3814 47.5982 37.4459 47.4906 37.4798H47.4589C47.4598 37.4939 47.4598 37.5081 47.4589 37.5223C47.5343 37.5116 47.6108 37.5116 47.6862 37.5223C47.8132 37.5358 47.9388 37.5606 48.0615 37.5966C48.1916 37.6125 48.3154 37.6618 48.421 37.7399L48.3787 37.708L48.4421 37.7505C48.8073 37.942 49.1141 38.229 49.33 38.5813C49.5459 38.9336 49.6629 39.338 49.6686 39.7516C49.6633 41.1317 48.3998 42.1933 46.8615 42.1933Z" fill="#FDFDFD"/>
<path d="M52.9932 42.6814C52.969 42.6553 52.9508 42.6242 52.9398 42.5903C52.9289 42.5564 52.9255 42.5204 52.9298 42.485V33.6791C52.9288 33.6388 52.9364 33.5989 52.9521 33.5618C52.9678 33.5248 52.9912 33.4916 53.0207 33.4644C53.0503 33.4373 53.0853 33.4168 53.1234 33.4044C53.1616 33.3919 53.2019 33.3879 53.2417 33.3924H59.1148C59.284 33.3924 59.4849 33.5358 59.4849 33.6791C59.4689 33.7663 59.4233 33.8452 59.3558 33.9023C59.2883 33.9594 59.2031 33.9912 59.1148 33.9922H53.6012V36.4286H58.5862C58.7554 36.4286 58.9457 36.5878 58.9457 36.7152C58.9334 36.8036 58.8908 36.8849 58.8251 36.945C58.7595 37.0051 58.675 37.0402 58.5862 37.0443H53.5959V42.1878H59.1148C59.284 42.1878 59.4849 42.347 59.4849 42.4797C59.4849 42.6124 59.284 42.7664 59.1148 42.7664H53.2364C53.1466 42.7717 53.025 42.7451 52.9932 42.6814Z" fill="#FDFDFD"/>
<path d="M64.4272 42.6814C64.3932 42.6624 64.3659 42.6333 64.3489 42.5982C64.3319 42.5631 64.326 42.5236 64.332 42.485V33.6791C64.34 33.5984 64.3784 33.5238 64.4393 33.4705C64.5002 33.4172 64.5791 33.3893 64.6598 33.3924C64.7451 33.3834 64.8306 33.4084 64.8978 33.462C64.965 33.5156 65.0086 33.5935 65.0192 33.6791V42.1718H70.1628C70.2462 42.166 70.3284 42.1933 70.3918 42.248C70.4551 42.3027 70.4944 42.3802 70.5012 42.4638C70.4931 42.5464 70.4532 42.6226 70.39 42.6761C70.3268 42.7297 70.2453 42.7563 70.1628 42.7504H64.6598C64.5765 42.7561 64.494 42.7316 64.4272 42.6814Z" fill="#FDFDFD"/>
<path d="M73.7941 39.3906C73.8068 39.3128 73.8468 39.2422 73.907 39.1915C73.9671 39.1409 74.0434 39.1136 74.1219 39.1146H75.5492L78.3087 33.573C78.3315 33.5253 78.371 33.4875 78.4197 33.4669L78.4672 33.4138C78.5542 33.3908 78.6459 33.3937 78.7312 33.4219C78.8166 33.4502 78.892 33.5027 78.9483 33.573L83.2884 42.379C83.3034 42.3934 83.3154 42.4107 83.3236 42.4298C83.3318 42.449 83.336 42.4696 83.336 42.4905C83.336 42.5113 83.3318 42.5319 83.3236 42.5511C83.3154 42.5703 83.3034 42.5876 83.2884 42.6019C83.2517 42.6692 83.1914 42.7203 83.1192 42.7452C83.075 42.7682 83.0262 42.7809 82.9765 42.7824C82.9106 42.7821 82.8459 42.7649 82.7885 42.7324C82.7312 42.6998 82.683 42.6531 82.6487 42.5966L81.2214 39.7038H76.0302L74.5871 42.5966C74.548 42.6497 74.4969 42.6927 74.4382 42.7222C74.3794 42.7517 74.3145 42.7669 74.2487 42.7665C74.2095 42.7811 74.1664 42.7811 74.1271 42.7665C74.0841 42.7572 74.0443 42.7366 74.0117 42.7067C73.9792 42.6769 73.9552 42.6389 73.9421 42.5966C73.926 42.5322 73.926 42.4647 73.9421 42.4002L75.2584 39.7462H74.1271C74.082 39.7449 74.0376 39.7346 73.9964 39.716C73.9553 39.6973 73.9182 39.6708 73.8872 39.6377C73.8563 39.6047 73.8322 39.5659 73.8162 39.5235C73.8002 39.4811 73.7927 39.4359 73.7941 39.3906ZM80.9043 39.1146L78.5941 34.4542L76.2998 39.1146H80.9043Z" fill="#FDFDFD"/>
<path d="M93.855 41.2485C93.7098 41.0026 93.6208 40.7275 93.5942 40.443C93.5677 40.1585 93.6044 39.8716 93.7016 39.603C93.8132 39.3059 94.0376 39.0654 94.3254 38.9342C94.4125 38.9087 94.5056 38.9131 94.5898 38.9468C94.6741 38.9804 94.7448 39.0414 94.7906 39.1199C94.8064 39.157 94.814 39.197 94.8131 39.2373C94.8121 39.2776 94.8025 39.3172 94.7849 39.3534C94.7674 39.3896 94.7423 39.4217 94.7114 39.4473C94.6804 39.473 94.6444 39.4917 94.6056 39.5021C94.4984 39.5733 94.4126 39.6724 94.3572 39.7888C94.2859 39.9818 94.2588 40.1884 94.2781 40.3933C94.2973 40.5983 94.3623 40.7962 94.4682 40.9724C94.7541 41.3722 95.1351 41.6937 95.5764 41.9079C96.0178 42.122 96.5054 42.222 96.9951 42.1986C97.7937 42.218 98.575 41.9634 99.21 41.4767C99.4509 41.2584 99.64 40.9887 99.7635 40.6875C99.887 40.3862 99.9418 40.061 99.9237 39.7357V33.6793C99.9342 33.5977 99.9748 33.523 100.037 33.4699C100.1 33.4169 100.18 33.3893 100.262 33.3926C100.348 33.386 100.434 33.4116 100.502 33.4645C100.57 33.5175 100.617 33.594 100.632 33.6793V39.7357C100.647 40.1457 100.568 40.5537 100.401 40.9282C100.234 41.3028 99.9843 41.6339 99.6699 41.896C98.9212 42.4959 97.9841 42.8083 97.0268 42.7771C96.4121 42.8156 95.7978 42.6953 95.2425 42.4277C94.6873 42.1601 94.2096 41.7541 93.855 41.2485Z" fill="#FDFDFD"/>
<path d="M104.665 39.3906C104.678 39.3128 104.718 39.2422 104.778 39.1915C104.838 39.1409 104.914 39.1136 104.993 39.1146H106.42L109.18 33.573C109.202 33.5253 109.242 33.4875 109.291 33.4669L109.338 33.4138C109.425 33.3908 109.517 33.3937 109.602 33.4219C109.687 33.4502 109.763 33.5027 109.819 33.573L114.159 42.379C114.174 42.3934 114.186 42.4107 114.194 42.4298C114.203 42.449 114.207 42.4696 114.207 42.4905C114.207 42.5113 114.203 42.5319 114.194 42.5511C114.186 42.5703 114.174 42.5876 114.159 42.6019C114.123 42.6692 114.062 42.7203 113.99 42.7452C113.946 42.7682 113.897 42.7809 113.847 42.7824C113.781 42.7821 113.717 42.7649 113.659 42.7324C113.602 42.6998 113.554 42.6531 113.52 42.5966L112.092 39.7038H106.901L105.458 42.5966C105.419 42.6497 105.368 42.6927 105.309 42.7222C105.25 42.7517 105.185 42.7669 105.12 42.7665C105.08 42.7811 105.037 42.7811 104.998 42.7665C104.955 42.7572 104.915 42.7366 104.883 42.7067C104.85 42.6769 104.826 42.6389 104.813 42.5966C104.797 42.5322 104.797 42.4647 104.813 42.4002L106.129 39.7462H104.998C104.953 39.7449 104.908 39.7346 104.867 39.716C104.826 39.6973 104.789 39.6708 104.758 39.6377C104.727 39.6047 104.703 39.5659 104.687 39.5235C104.671 39.4811 104.664 39.4359 104.665 39.3906ZM111.78 39.1146L109.47 34.4542L107.176 39.1146H111.78Z" fill="#FDFDFD"/>
<path d="M117.642 42.4639V33.6791C117.642 33.6294 117.656 33.5806 117.682 33.5384C117.708 33.4962 117.746 33.4622 117.79 33.4403C117.849 33.4116 117.914 33.399 117.979 33.4036C118.044 33.4083 118.107 33.4301 118.16 33.4668L124.684 36.9701V33.6791C124.692 33.5984 124.73 33.5239 124.791 33.4706C124.852 33.4173 124.931 33.3894 125.012 33.3925C125.098 33.3833 125.185 33.408 125.254 33.4614C125.323 33.5147 125.368 33.5927 125.382 33.6791V42.4851C125.377 42.5277 125.364 42.569 125.343 42.6066C125.323 42.6441 125.295 42.6772 125.262 42.7039C125.228 42.7305 125.19 42.7503 125.149 42.7619C125.108 42.7736 125.065 42.7769 125.022 42.7717C124.981 42.7754 124.94 42.7708 124.901 42.7584C124.861 42.7459 124.825 42.7258 124.794 42.6991C124.762 42.6725 124.736 42.6398 124.717 42.6031C124.699 42.5664 124.687 42.5263 124.684 42.4851V37.6867L118.319 34.2259V42.4904C118.318 42.5301 118.31 42.5693 118.294 42.6056C118.277 42.6418 118.254 42.6744 118.225 42.7012C118.195 42.7281 118.161 42.7486 118.124 42.7617C118.086 42.7747 118.047 42.7799 118.007 42.777C117.962 42.783 117.917 42.7794 117.873 42.7665C117.83 42.7536 117.79 42.7317 117.755 42.7021C117.721 42.6726 117.693 42.6361 117.674 42.5951C117.654 42.554 117.643 42.5093 117.642 42.4639Z" fill="#FDFDFD"/>
<path d="M129.615 39.3906C129.628 39.3128 129.668 39.2422 129.728 39.1915C129.788 39.1409 129.865 39.1136 129.943 39.1146H131.37L134.13 33.573C134.153 33.5253 134.192 33.4875 134.241 33.4669L134.288 33.4138C134.375 33.3908 134.467 33.3937 134.553 33.4219C134.638 33.4502 134.713 33.5027 134.77 33.573L139.11 42.379C139.125 42.3934 139.137 42.4107 139.145 42.4298C139.153 42.449 139.157 42.4696 139.157 42.4905C139.157 42.5113 139.153 42.5319 139.145 42.5511C139.137 42.5703 139.125 42.5876 139.11 42.6019C139.073 42.6692 139.013 42.7203 138.94 42.7452C138.896 42.7682 138.847 42.7809 138.798 42.7824C138.732 42.7821 138.667 42.7649 138.61 42.7324C138.552 42.6998 138.504 42.6531 138.47 42.5966L137.043 39.7038H131.851L130.408 42.5966C130.369 42.6497 130.318 42.6927 130.259 42.7222C130.201 42.7517 130.136 42.7669 130.07 42.7665C130.031 42.7811 129.988 42.7811 129.948 42.7665C129.905 42.7572 129.866 42.7366 129.833 42.7067C129.8 42.6769 129.776 42.6389 129.763 42.5966C129.747 42.5322 129.747 42.4647 129.763 42.4002L131.08 39.7462H129.948C129.858 39.7421 129.772 39.7027 129.71 39.6363C129.648 39.5699 129.614 39.4817 129.615 39.3906ZM136.731 39.1146L134.421 34.4542L132.126 39.1146H136.731Z" fill="#FDFDFD"/>
<path d="M142.006 38.0848C142.006 35.4309 144.374 33.228 147.382 33.228C148.135 33.218 148.883 33.3598 149.58 33.6452C150.277 33.9306 150.911 34.3537 151.442 34.8894C151.488 34.9505 151.51 35.0257 151.506 35.1018C151.506 35.1414 151.495 35.1804 151.474 35.2136C151.452 35.2467 151.421 35.2725 151.384 35.2875C151.317 35.3441 151.231 35.3751 151.144 35.3751C151.056 35.3751 150.97 35.3441 150.903 35.2875C150.445 34.8197 149.899 34.4483 149.296 34.1949C148.693 33.9415 148.046 33.8113 147.393 33.8119C144.818 33.8119 142.667 35.7493 142.667 38.0901C142.667 40.431 144.818 42.4055 147.393 42.4055C148.186 42.4091 148.968 42.2174 149.67 41.8473C150.372 41.4771 150.974 40.9398 151.421 40.2823C151.476 40.2153 151.551 40.1677 151.634 40.1466C151.718 40.1256 151.806 40.1322 151.886 40.1656C151.925 40.1836 151.96 40.2094 151.988 40.2415C152.017 40.2736 152.038 40.3112 152.052 40.352C152.065 40.3929 152.07 40.436 152.066 40.4788C152.062 40.5216 152.05 40.5632 152.029 40.6008C151.506 41.3459 150.811 41.9528 150.004 42.3697C149.196 42.7865 148.301 43.001 147.393 42.9947C144.38 42.9947 142.006 40.8025 142.006 38.0848Z" fill="#FDFDFD"/>
<path d="M155.655 42.6391V33.7058C155.656 33.6628 155.666 33.6205 155.684 33.5814C155.702 33.5423 155.727 33.5071 155.759 33.4779C155.79 33.4488 155.827 33.4262 155.867 33.4116C155.908 33.3969 155.95 33.3905 155.993 33.3926C156.036 33.3897 156.079 33.3956 156.12 33.41C156.16 33.4244 156.198 33.4469 156.229 33.4762C156.261 33.5055 156.286 33.541 156.304 33.5805C156.321 33.6199 156.331 33.6626 156.331 33.7058V36.8534H162.823V33.7058C162.83 33.6222 162.867 33.5439 162.927 33.4861C162.988 33.4283 163.067 33.395 163.151 33.3926C163.241 33.3866 163.33 33.4159 163.399 33.4743C163.468 33.5327 163.512 33.6157 163.521 33.7058V42.6444C163.521 42.7373 163.484 42.8265 163.419 42.8922C163.353 42.9579 163.265 42.9948 163.172 42.9948C163.079 42.9948 162.991 42.9579 162.925 42.8922C162.86 42.8265 162.823 42.7373 162.823 42.6444V37.4214H156.331V42.6444C156.331 42.7345 156.296 42.8209 156.232 42.8846C156.169 42.9484 156.083 42.9841 155.993 42.9841C155.903 42.9841 155.817 42.9484 155.754 42.8846C155.69 42.8209 155.655 42.7345 155.655 42.6444V42.6391Z" fill="#FDFDFD"/>
<path d="M166.571 38.0848C166.571 35.4308 168.971 33.228 171.92 33.228C172.697 33.2156 173.469 33.3637 174.186 33.6632C174.904 33.9627 175.552 34.4072 176.091 34.969C176.767 35.689 177.192 36.6102 177.3 37.5935C177.409 38.5769 177.196 39.5691 176.694 40.4203C176.185 41.2204 175.481 41.8761 174.648 42.325C173.815 42.7738 172.881 43.0007 171.936 42.9841C168.976 42.9947 166.571 40.8025 166.571 38.0848ZM167.268 38.0848C167.268 40.4681 169.383 42.4002 171.92 42.4002C172.748 42.409 173.565 42.2072 174.294 41.8137C175.023 41.4201 175.642 40.8477 176.091 40.1496C176.445 39.52 176.628 38.8078 176.62 38.0848C176.61 37.0733 176.235 36.0997 175.563 35.3459C175.094 34.8516 174.528 34.4597 173.901 34.1948C173.275 33.93 172.6 33.7978 171.92 33.8066C169.362 33.8119 167.268 35.7175 167.268 38.0848Z" fill="#FDFDFD"/>
<path d="M179.194 33.7853C179.177 33.7496 179.167 33.7108 179.165 33.6712C179.164 33.6316 179.17 33.592 179.185 33.5551C179.199 33.5182 179.221 33.4847 179.249 33.4567C179.277 33.4287 179.31 33.4069 179.347 33.3925C179.424 33.3669 179.508 33.3687 179.584 33.3977C179.66 33.4267 179.724 33.4811 179.765 33.5517L183.867 41.7154L185.416 38.6103L183.016 33.7959C183 33.7224 183 33.6464 183.016 33.573C183.035 33.5317 183.063 33.4951 183.098 33.4658C183.132 33.4364 183.173 33.4151 183.217 33.4031C183.296 33.3783 183.382 33.3805 183.46 33.4092C183.538 33.438 183.605 33.4918 183.65 33.5624L185.765 37.8777L187.879 33.5624C187.93 33.4898 188.002 33.4354 188.086 33.4067C188.169 33.3781 188.26 33.3769 188.344 33.4031C188.439 33.4031 188.466 33.5093 188.513 33.573C188.529 33.608 188.537 33.646 188.537 33.6844C188.537 33.7229 188.529 33.7609 188.513 33.7959L186.129 38.6103L187.678 41.7154L191.706 33.5517C191.77 33.3925 192.002 33.3553 192.187 33.3925C192.257 33.4238 192.312 33.4808 192.34 33.5517C192.356 33.567 192.368 33.5852 192.376 33.6053C192.385 33.6253 192.389 33.6468 192.389 33.6685C192.389 33.6902 192.385 33.7117 192.376 33.7318C192.368 33.7518 192.356 33.77 192.34 33.7853L188.001 42.5806C187.969 42.6402 187.922 42.6899 187.864 42.7245C187.806 42.7591 187.74 42.7773 187.673 42.777C187.605 42.7805 187.538 42.7637 187.479 42.7287C187.421 42.6938 187.374 42.6422 187.345 42.5806L185.759 39.3958L184.173 42.5806C184.14 42.6321 184.094 42.6743 184.04 42.7036C183.986 42.7328 183.925 42.7481 183.864 42.7481C183.803 42.7481 183.742 42.7328 183.688 42.7036C183.635 42.6743 183.589 42.6321 183.555 42.5806L179.194 33.7853Z" fill="#FDFDFD"/>
<path d="M194.576 40.6167C194.574 40.5748 194.579 40.5328 194.592 40.4931C194.606 40.4533 194.627 40.4166 194.654 40.3851C194.682 40.3535 194.715 40.3277 194.753 40.3092C194.79 40.2906 194.831 40.2797 194.873 40.277C195.089 40.277 195.258 40.3831 195.258 40.5265C195.507 41.7261 196.559 42.4214 198.171 42.4214C199.969 42.4214 201.428 41.3173 201.428 40.0116C201.428 38.8279 200.513 38.0635 198.747 37.6708L198.578 37.6177C196.686 37.2249 195.851 36.5242 195.851 35.4467C195.851 34.2365 197.352 33.2227 199.244 33.2227C199.642 33.2279 200.038 33.2814 200.423 33.3819C200.507 33.4025 200.583 33.4489 200.64 33.5146C200.665 33.5453 200.681 33.5823 200.687 33.6216C200.692 33.6609 200.687 33.701 200.672 33.7375C200.641 33.8003 200.595 33.8539 200.537 33.893C200.48 33.9321 200.413 33.9554 200.344 33.9605H200.222C199.904 33.8706 199.574 33.8347 199.244 33.8543C197.775 33.8543 196.564 34.5762 196.564 35.4732C196.564 36.2482 197.199 36.7365 198.747 37.1081L198.901 37.1453C201.015 37.5805 202.073 38.5784 202.073 40.0381C202.073 41.6995 200.339 43.0265 198.15 43.0265C196.189 42.9947 194.841 42.1029 194.576 40.6167Z" fill="#FDFDFD"/>
<path d="M205.91 42.4639V33.6791C205.923 33.5985 205.964 33.5252 206.026 33.4726C206.088 33.4199 206.167 33.3915 206.248 33.3925C206.332 33.3886 206.415 33.4154 206.481 33.4681C206.548 33.5208 206.592 33.5958 206.608 33.6791V37.7451L213.009 33.3872L213.459 33.8331L213.316 33.9392L209.489 36.5561L213.469 42.3471C213.489 42.381 213.499 42.4194 213.499 42.4586C213.499 42.4977 213.489 42.5361 213.469 42.57C213.441 42.6405 213.391 42.7 213.327 42.7399C213.274 42.7648 213.216 42.7775 213.157 42.777C213.092 42.7744 213.028 42.7579 212.97 42.7287C212.912 42.6994 212.86 42.658 212.819 42.6072L208.912 36.9064L206.597 38.5253V42.4639C206.586 42.5507 206.543 42.6302 206.477 42.6863C206.41 42.7425 206.325 42.7711 206.238 42.7664C206.155 42.7667 206.075 42.7357 206.015 42.6796C205.954 42.6235 205.917 42.5465 205.91 42.4639Z" fill="#FDFDFD"/>
<path d="M217.296 39.3906C217.309 39.3128 217.349 39.2422 217.409 39.1915C217.469 39.1409 217.545 39.1136 217.624 39.1146H219.051L221.811 33.573C221.834 33.5253 221.873 33.4875 221.922 33.4669L221.969 33.4138C222.056 33.3908 222.148 33.3937 222.233 33.4219C222.319 33.4502 222.394 33.5027 222.45 33.573L226.79 42.379C226.805 42.3934 226.817 42.4107 226.826 42.4298C226.834 42.449 226.838 42.4696 226.838 42.4905C226.838 42.5113 226.834 42.5319 226.826 42.5511C226.817 42.5703 226.805 42.5876 226.79 42.6019C226.754 42.6692 226.693 42.7203 226.621 42.7452C226.577 42.7682 226.528 42.7809 226.479 42.7824C226.413 42.7821 226.348 42.7649 226.291 42.7324C226.233 42.6998 226.185 42.6531 226.151 42.5966L224.723 39.7038H219.532L218.089 42.5966C218.05 42.6497 217.999 42.6927 217.94 42.7222C217.881 42.7517 217.817 42.7669 217.751 42.7665C217.712 42.7811 217.668 42.7811 217.629 42.7665C217.586 42.7572 217.546 42.7366 217.514 42.7067C217.481 42.6769 217.457 42.6389 217.444 42.5966C217.428 42.5322 217.428 42.4647 217.444 42.4002L218.761 39.7462H217.629C217.584 39.7449 217.54 39.7346 217.499 39.716C217.457 39.6973 217.42 39.6708 217.389 39.6377C217.358 39.6047 217.334 39.5659 217.318 39.5235C217.302 39.4811 217.295 39.4359 217.296 39.3906ZM224.412 39.1146L222.101 34.4542L219.812 39.1146H224.412Z" fill="#FDFDFD"/>
</g>
<defs>
<clipPath id="clip0_187_60">
<rect width="240" height="43" fill="white"/>
</clipPath>
</defs>
</svg>
