<svg width="179" height="300" fill="none" xmlns="http://www.w3.org/2000/svg"><path d="M179 1.5a1.5 1.5 0 0 0-3 0h3ZM30 49l1.137.979L30 49Zm-.624 250.864a1.5 1.5 0 0 0 1.988-.74l5.62-12.275a1.5 1.5 0 1 0-2.729-1.248l-4.995 10.911-10.91-4.995a1.5 1.5 0 1 0-1.25 2.728l12.276 5.619Zm1.024-4.62a1.5 1.5 0 1 0-2.819 1.025l2.82-1.025Zm-4.801-4.548a1.5 1.5 0 1 0 2.833-.985l-2.833.985Zm.948-6.526a1.5 1.5 0 0 0-2.846.947l2.846-.947Zm-4.67-4.662a1.5 1.5 0 0 0 2.859-.909l-2.86.909Zm1.117-6.514a1.5 1.5 0 1 0-2.87.872l2.87-.872Zm-4.548-4.784a1.5 1.5 0 1 0 2.881-.835l-2.881.835Zm1.286-6.472a1.5 1.5 0 0 0-2.891.799l2.891-.799Zm-4.428-4.903a1.5 1.5 0 1 0 2.902-.762l-2.902.762Zm1.446-6.441a1.5 1.5 0 1 0-2.91.726l2.91-.726Zm-4.304-5.004a1.5 1.5 0 0 0 2.92-.691l-2.92.691Zm1.604-6.407a1.5 1.5 0 1 0-2.928.654l2.928-.654Zm-4.18-5.11a1.5 1.5 0 0 0 2.935-.619l-2.935.619Zm1.762-6.363a1.5 1.5 0 0 0-2.943.582l2.943-.582Zm-4.052-5.214a1.5 1.5 0 0 0 2.95-.545l-2.95.545ZM9.5 215.98a1.5 1.5 0 0 0-2.956.508l2.956-.508Zm-3.918-5.316a1.5 1.5 0 1 0 2.963-.469l-2.963.469Zm2.085-6.263a1.5 1.5 0 0 0-2.97.43l2.97-.43Zm-3.777-5.417a1.5 1.5 0 1 0 2.975-.39l-2.975.39Zm2.252-6.208a1.5 1.5 0 1 0-2.98.349l2.98-.349Zm-3.624-5.515a1.5 1.5 0 1 0 2.984-.306l-2.984.306Zm2.427-6.141a1.5 1.5 0 1 0-2.988.263l2.988-.263Zm-3.461-5.626a1.5 1.5 0 0 0 2.992-.217l-2.992.217Zm2.613-6.057a1.5 1.5 0 0 0-2.995.17l2.995-.17Zm-3.282-5.731a1.5 1.5 0 1 0 2.998-.121l-2.998.121Zm2.811-5.979a1.5 1.5 0 0 0-3 .07l3-.07Zm-3.084-5.833a1.5 1.5 0 1 0 3-.015l-3 .015Zm3.025-5.866a1.5 1.5 0 0 0-3-.041l3 .041Zm-2.86-5.959a1.499 1.499 0 1 0 2.998.101l-2.999-.101Zm3.255-5.741a1.5 1.5 0 1 0-2.995-.164l2.995.164Zm-2.607-6.052a1.5 1.5 0 0 0 2.99.231l-2.99-.231Zm3.511-5.604a1.5 1.5 0 0 0-2.984-.303l2.984.303Zm-2.312-6.189a1.5 1.5 0 0 0 2.976.378l-2.976-.378Zm3.791-5.399a1.5 1.5 0 0 0-2.964-.461l2.964.461Zm-1.972-6.287a1.5 1.5 0 1 0 2.95.547l-2.95-.547Zm4.107-5.183a1.5 1.5 0 0 0-2.93-.642l2.93.642Zm-1.56-6.422a1.5 1.5 0 0 0 2.906.744l-2.906-.744Zm4.454-4.87a1.5 1.5 0 0 0-2.876-.853l2.876.853Zm-1.073-6.51a1.5 1.5 0 1 0 2.838.971l-2.838-.97Zm4.837-4.477a1.5 1.5 0 0 0-2.792-1.097l2.792 1.097Zm-.478-6.586a1.5 1.5 0 1 0 2.734 1.234l-2.734-1.234Zm5.264-3.991a1.5 1.5 0 0 0-2.663-1.382l2.663 1.382Zm.242-6.6a1.5 1.5 0 1 0 2.576 1.537l-2.576-1.537Zm5.697-3.33a1.5 1.5 0 0 0-2.47-1.702l2.47 1.702Zm1.094-6.51a1.5 1.5 0 0 0 2.344 1.873l-2.344-1.872Zm6.084-2.454a1.5 1.5 0 1 0-2.183-2.058l2.183 2.058Zm2.064-6.186a1.5 1.5 0 0 0 1.995 2.24l-1.995-2.24Zm6.383-1.347a1.5 1.5 0 1 0-1.8-2.4l1.8 2.4Zm3.07-5.755a1.5 1.5 0 1 0 1.604 2.535l-1.604-2.535Zm6.519-.323a1.5 1.5 0 0 0-1.414-2.646l1.413 2.646Zm3.879-5.247a1.5 1.5 0 0 0 1.233 2.735l-1.233-2.735Zm6.506.547a1.5 1.5 0 0 0-1.068-2.803l1.068 2.803Zm4.482-4.745a1.5 1.5 0 1 0 .915 2.857l-.915-2.857Zm6.41 1.241a1.5 1.5 0 1 0-.778-2.897l.779 2.897Zm4.913-4.298a1.5 1.5 0 0 0 .658 2.927l-.658-2.927Zm6.284 1.773a1.5 1.5 0 0 0-.55-2.95l.55 2.95Zm5.213-3.928a1.5 1.5 0 1 0 .457 2.965l-.457-2.965Zm6.16 2.17a1.5 1.5 0 0 0-.375-2.977l.374 2.976Zm5.422-3.637a1.5 1.5 0 0 0 .306 2.984l-.306-2.984Zm6.053 2.454a1.5 1.5 0 1 0-.247-2.99l.247 2.99Zm5.561-3.424a1.5 1.5 0 0 0 .201 2.993l-.201-2.993Zm5.975 2.64a1.5 1.5 0 1 0-.167-2.995l.167 2.995Zm5.638-3.294a1.5 1.5 0 0 0 .144 2.997l-.144-2.997Zm5.935 2.73a1.5 1.5 0 0 0-.135-2.998l.135 2.997Zm5.655-3.263a1.5 1.5 0 1 0 .143 2.996l-.143-2.996Zm5.945 2.697a1.5 1.5 0 0 0-.17-2.995l.17 2.995Zm5.579-3.37a1.5 1.5 0 1 0 .225 2.992l-.225-2.991Zm6.051 2.47a1.5 1.5 0 1 0-.319-2.983l.319 2.983Zm5.374-3.732A1.5 1.5 0 1 0 158.59 17l-.477-2.962Zm6.264 1.783a1.5 1.5 0 0 0-.745-2.906l.745 2.906Zm4.517-4.693a1.5 1.5 0 0 0 1.235 2.733l-1.235-2.733Zm6.486-.718a1.5 1.5 0 0 0-2.103-2.14l2.103 2.14Zm.334-6.38a1.5 1.5 0 1 0 2.916.708l-2.916-.707ZM31.406 297.978c-.337-.907-.673-1.818-1.006-2.733l-2.819 1.025c.336.922.673 1.84 1.013 2.754l2.812-1.046Zm-2.974-8.266a431.296 431.296 0 0 1-1.884-5.541l-2.847.947a432.59 432.59 0 0 0 1.898 5.579l2.833-.985Zm-3.696-11.112c-.59-1.856-1.17-3.725-1.742-5.605l-2.87.872a460.7 460.7 0 0 0 1.753 5.642l2.859-.909Zm-3.409-11.224a465.164 465.164 0 0 1-1.595-5.637l-2.891.799c.525 1.9 1.06 3.792 1.605 5.673l2.881-.835Zm-3.122-11.302c-.495-1.886-.98-3.779-1.455-5.679l-2.91.726c.477 1.913.965 3.818 1.464 5.715l2.902-.762Zm-2.84-11.374c-.45-1.9-.888-3.805-1.315-5.716l-2.928.654c.43 1.924.872 3.841 1.324 5.753l2.92-.691Zm-2.56-11.445a474.77 474.77 0 0 1-1.173-5.744l-2.943.582c.382 1.931.776 3.858 1.18 5.781l2.936-.619Zm-2.275-11.503a458.045 458.045 0 0 1-1.029-5.771l-2.956.508c.332 1.938.678 3.874 1.035 5.808l2.95-.545Zm-1.984-11.556a446.191 446.191 0 0 1-.878-5.794l-2.97.43c.282 1.945.577 3.89.885 5.833l2.963-.469Zm-1.68-11.601c-.255-1.941-.496-3.88-.723-5.818l-2.98.349c.23 1.952.472 3.905.728 5.859l2.975-.39Zm-1.363-11.639c-.2-1.949-.386-3.894-.557-5.835l-2.988.263c.172 1.956.359 3.916.56 5.878l2.985-.306Zm-1.026-11.678a371.716 371.716 0 0 1-.379-5.84l-2.995.17c.111 1.957.239 3.92.382 5.887l2.992-.217Zm-.663-11.692c-.08-1.96-.142-3.913-.187-5.858l-3 .07c.046 1.962.11 3.932.189 5.909l2.998-.121Zm-.27-11.706c-.01-1.96-.003-3.911.024-5.851l-3-.041c-.027 1.96-.035 3.929-.025 5.907l3-.015Zm.162-11.709c.066-1.96.151-3.908.257-5.842l-2.995-.164a279.946 279.946 0 0 0-.26 5.905l2.998.101Zm.64-11.663c.152-1.961.326-3.906.521-5.835l-2.984-.303a247.458 247.458 0 0 0-.527 5.907l2.99.231Zm1.185-11.646c.247-1.945.519-3.871.815-5.777l-2.964-.461a215.98 215.98 0 0 0-.827 5.86l2.976.378Zm1.792-11.517c.36-1.933.745-3.844 1.158-5.73l-2.93-.642c-.42 1.918-.813 3.861-1.177 5.825l2.95.547Zm2.504-11.408a154.01 154.01 0 0 1 1.548-5.615L8.5 87.47a157.15 157.15 0 0 0-1.578 5.723l2.906.744Zm3.313-11.153a128.63 128.63 0 0 1 2-5.448l-2.793-1.097a131.789 131.789 0 0 0-2.045 5.575l2.838.97Zm4.255-10.8a106.683 106.683 0 0 1 2.53-5.225l-2.663-1.382a109.643 109.643 0 0 0-2.6 5.373l2.733 1.234Zm5.348-10.288a88.804 88.804 0 0 1 3.121-4.867l-2.47-1.702a91.821 91.821 0 0 0-3.227 5.032l2.576 1.537Zm6.56-9.504c.6-.751 1.21-1.489 1.834-2.212l-2.274-1.958a80.066 80.066 0 0 0-1.905 2.298l2.344 1.872Zm1.834-2.212a63.714 63.714 0 0 1 1.905-2.115l-2.183-2.058a66.866 66.866 0 0 0-1.996 2.215l2.274 1.958Zm5.964-6.061a67.24 67.24 0 0 1 4.388-3.587l-1.8-2.4a70.244 70.244 0 0 0-4.583 3.747l1.995 2.24Zm9.062-6.807a77.463 77.463 0 0 1 4.915-2.858l-1.414-2.646a80.51 80.51 0 0 0-5.105 2.97l1.604 2.534Zm10.027-5.37a94.965 94.965 0 0 1 5.273-2.188l-1.068-2.803c-1.839.7-3.653 1.45-5.438 2.256l1.233 2.735Zm10.67-4.076a120.76 120.76 0 0 1 5.496-1.616l-.78-2.897c-1.893.51-3.772 1.06-5.631 1.656l.915 2.857Zm11.066-2.987c1.864-.419 3.74-.803 5.626-1.154l-.55-2.95c-1.92.359-3.832.75-5.734 1.177l.658 2.927Zm11.296-2.117c1.897-.292 3.8-.556 5.703-.796l-.375-2.976c-1.929.243-3.858.51-5.785.807l.457 2.965Zm11.431-1.448c1.921-.197 3.838-.372 5.747-.53l-.247-2.99c-1.927.16-3.864.337-5.806.536l.306 2.984Zm11.509-.96c1.939-.131 3.865-.247 5.774-.354l-.167-2.995c-1.918.107-3.856.224-5.808.355l.201 2.993Zm11.556-.651c1.956-.094 3.888-.182 5.791-.268l-.135-2.997c-1.904.086-3.839.174-5.8.268l.144 2.997Zm11.589-.534c1.975-.094 3.912-.192 5.802-.3l-.17-2.994c-1.878.106-3.805.204-5.775.298l.143 2.996Zm11.606-.677c2.01-.15 3.955-.322 5.826-.522l-.319-2.983c-1.833.196-3.746.364-5.732.514l.225 2.991ZM158.59 17a65.088 65.088 0 0 0 5.787-1.18l-.745-2.905a62.103 62.103 0 0 1-5.519 1.123L158.59 17Zm11.539-3.138c2.048-.925 3.829-2.054 5.251-3.452l-2.103-2.14c-1.107 1.089-2.566 2.037-4.383 2.858l1.235 2.733Zm8.501-9.124c.247-1.02.37-2.099.37-3.237h-3c0 .921-.099 1.761-.286 2.53l2.916.707Z" fill="#CACACA"/></svg>