<svg width="53" height="52" fill="none" xmlns="http://www.w3.org/2000/svg"><path d="M49.386 44.739c1.992 0 3.614-1.591 3.614-3.547V5.078C53 2.278 50.678 0 47.824 0H5.176C2.322 0 0 2.278 0 5.078v36.114c0 1.956 1.621 3.547 3.614 3.547h1.148v5.23H1.035c-.572 0-1.035.454-1.035 1.015C0 51.545.463 52 1.035 52h50.93c.572 0 1.035-.455 1.035-1.016 0-.56-.463-1.015-1.035-1.015h-3.727v-5.23h1.148ZM2.07 5.079c0-1.68 1.393-3.048 3.106-3.048h42.648c1.713 0 3.106 1.367 3.106 3.047v2.234H2.174c-.035 0-.07.002-.104.006v-2.24Zm9.317 44.89H6.832v-9.14h4.555v9.14Zm11.593 0h-4.554v-20.37h4.555v20.37Zm11.594 0H30.02V38.187h4.554V49.97Zm12.63-23.918h-6.626c-.572 0-1.035.455-1.035 1.015v5.13c0 .56.463 1.015 1.035 1.015.572 0 1.035-.455 1.035-1.016v-4.113h4.555v21.887h-4.555V39.025c0-.56-.463-1.015-1.035-1.015-.572 0-1.035.455-1.035 1.015V49.97h-2.898V37.172c0-.561-.464-1.016-1.036-1.016h-6.625c-.571 0-1.035.455-1.035 1.016v12.797h-2.898V28.583c0-.56-.464-1.016-1.035-1.016H17.39c-.572 0-1.035.455-1.035 1.016v21.386h-2.899V39.812c0-.56-.463-1.015-1.035-1.015H5.797c-.572 0-1.035.455-1.035 1.016v2.894H3.614c-.851 0-1.544-.68-1.544-1.515V9.34c.034.003.07.005.104.005H50.93v31.848c0 .836-.693 1.515-1.544 1.515h-1.148v-15.64c0-.561-.463-1.016-1.035-1.016Z" fill="#A6777E"/><path d="M46.375 3.656H22.987c-.571 0-1.035.455-1.035 1.016 0 .56.464 1.016 1.035 1.016h23.388c.572 0 1.035-.455 1.035-1.016 0-.561-.463-1.016-1.035-1.016ZM11.498 3.954a1.053 1.053 0 0 0-1.464 0c-.193.189-.304.45-.304.718 0 .267.111.529.304.718a1.053 1.053 0 0 0 1.463 0c.193-.189.304-.451.304-.718 0-.267-.111-.53-.303-.718ZM7.357 3.954a1.053 1.053 0 0 0-1.464 0c-.192.189-.303.45-.303.718 0 .267.11.529.303.718a1.053 1.053 0 0 0 1.464 0c.192-.189.303-.451.303-.718 0-.267-.11-.53-.303-.718ZM15.638 3.954a1.051 1.051 0 0 0-1.464 0c-.192.189-.303.45-.303.718 0 .267.11.529.303.718a1.053 1.053 0 0 0 1.464 0c.193-.189.303-.451.303-.718 0-.267-.11-.53-.303-.718ZM41.31 35.097a1.049 1.049 0 0 0-1.464 0c-.192.189-.303.45-.303.718 0 .267.11.529.303.718a1.053 1.053 0 0 0 1.464 0c.192-.189.303-.451.303-.718 0-.268-.11-.53-.303-.718ZM43.89 13.806c-2.054 0-3.726 1.64-3.726 3.657 0 .8.265 1.541.712 2.144l-6.877 6.747a3.758 3.758 0 0 0-1.798-.456c-.588 0-1.143.135-1.638.373l-7.18-7.044a3.58 3.58 0 0 0 .464-1.764c0-2.017-1.672-3.657-3.726-3.657-2.055 0-3.727 1.64-3.727 3.657 0 .704.205 1.363.558 1.921l-6.113 5.998a3.76 3.76 0 0 0-1.798-.456c-2.055 0-3.727 1.64-3.727 3.657 0 2.016 1.672 3.656 3.727 3.656 2.055 0 3.726-1.64 3.726-3.656a3.58 3.58 0 0 0-.464-1.765l6.186-6.07c.493.237 1.047.37 1.632.37.651 0 1.264-.165 1.798-.455l7.11 6.976a3.584 3.584 0 0 0-.555 1.915c0 2.017 1.672 3.657 3.727 3.657 2.055 0 3.726-1.64 3.726-3.657 0-.64-.168-1.24-.464-1.764l7.06-6.927c.424.164.885.256 1.368.256 2.055 0 3.726-1.64 3.726-3.656 0-2.017-1.671-3.657-3.726-3.657ZM9.04 30.208c-.912 0-1.655-.729-1.655-1.625s.743-1.625 1.656-1.625c.913 0 1.656.729 1.656 1.625s-.743 1.625-1.656 1.625Zm11.08-11.12c-.913 0-1.656-.73-1.656-1.625 0-.896.744-1.625 1.657-1.625s1.656.729 1.656 1.625-.743 1.625-1.656 1.625ZM32.2 31.18c-.912 0-1.655-.73-1.655-1.625 0-.896.743-1.625 1.656-1.625.913 0 1.656.729 1.656 1.625s-.743 1.625-1.656 1.625Zm11.69-12.092c-.913 0-1.656-.73-1.656-1.625 0-.896.743-1.625 1.657-1.625.913 0 1.656.729 1.656 1.625s-.743 1.625-1.656 1.625ZM15.354 13.097a1.054 1.054 0 0 0-1.465 0c-.192.188-.302.45-.302.718 0 .267.11.529.303.718.193.189.46.297.732.297.273 0 .539-.108.732-.297.193-.19.304-.451.304-.718 0-.268-.111-.53-.304-.718ZM10.766 12.799h-4.97c-.57 0-1.034.455-1.034 1.016 0 .56.463 1.015 1.035 1.015h4.969c.571 0 1.035-.454 1.035-1.015 0-.561-.464-1.016-1.035-1.016ZM10.766 17.674h-4.97c-.57 0-1.034.455-1.034 1.016 0 .56.463 1.015 1.035 1.015h4.969c.571 0 1.035-.454 1.035-1.015 0-.561-.464-1.016-1.035-1.016Z" fill="#A6777E"/></svg>