<svg width="53" height="52" fill="none" xmlns="http://www.w3.org/2000/svg"><path d="M40.137 7.378c.572 0 1.035-.455 1.035-1.016 0-.56-.463-1.015-1.035-1.015h-.006c-.572 0-1.032.454-1.032 1.015 0 .561.466 1.016 1.038 1.016ZM45.724 7.378c.571 0 1.035-.455 1.035-1.016 0-.56-.464-1.015-1.035-1.015h-.006c-.572 0-1.032.454-1.032 1.015 0 .561.466 1.016 1.038 1.016ZM34.55 7.378c.572 0 1.035-.455 1.035-1.016 0-.56-.463-1.015-1.035-1.015h-.006c-.572 0-1.032.454-1.032 1.015 0 .561.466 1.016 1.038 1.016ZM7.274 7.378h15.554c.572 0 1.035-.455 1.035-1.016 0-.56-.463-1.015-1.035-1.015H7.274c-.572 0-1.036.454-1.036 1.015 0 .561.464 1.016 1.036 1.016Z" fill="#A6777E"/><path d="M49.68 0H3.32C1.49 0 0 1.462 0 3.258v37.607c0 1.797 1.49 3.259 3.32 3.259h8.033c.645.929 1.384 1.805 2.213 2.618C17.02 50.132 21.613 52 26.499 52c4.886 0 9.48-1.867 12.935-5.258a18.04 18.04 0 0 0 2.206-2.618h8.039c1.831 0 3.32-1.462 3.32-3.259V3.258C53 1.462 51.51 0 49.68 0ZM3.32 2.031h46.36c.689 0 1.25.551 1.25 1.227v7.437H2.07V3.258a1.24 1.24 0 0 1 1.25-1.227Zm46.36 40.061h-6.826a17.73 17.73 0 0 0-3.42-20.73c-2.882-2.827-6.537-4.593-10.57-5.105-3.905-.497-7.934.27-11.345 2.158a1.005 1.005 0 0 0-.393 1.384c.28.488.912.66 1.41.385C24.848 16.69 32.84 17.765 37.97 22.8a15.723 15.723 0 0 1 0 22.507c-3.064 3.007-7.138 4.662-11.471 4.662s-8.406-1.655-11.469-4.662c-5.127-5.03-6.226-12.866-2.673-19.056a1.006 1.006 0 0 0-.394-1.384 1.046 1.046 0 0 0-1.41.387 17.778 17.778 0 0 0-2.191 11.125c.267 2.019.868 3.94 1.774 5.715H3.321c-.69 0-1.25-.551-1.25-1.228V12.727H50.93v28.138a1.24 1.24 0 0 1-1.25 1.227Z" fill="#A6777E"/><path d="M14.572 34.844a1.05 1.05 0 0 0 1.464 0l.74-.724v9.184c0 .56.463 1.016 1.034 1.016h17.38c.572 0 1.035-.455 1.035-1.016V34.12l.739.724c.202.199.467.298.732.298.265 0 .53-.1.732-.298a1.002 1.002 0 0 0 0-1.436L27.23 22.425a1.05 1.05 0 0 0-1.464 0L14.572 33.408a1.002 1.002 0 0 0 0 1.436Zm13.488 7.444h-3.12v-4.287h3.12v4.287ZM26.5 24.58l7.656 7.51v10.2H30.13v-5.304c0-.56-.464-1.016-1.036-1.016h-5.19c-.572 0-1.036.455-1.036 1.016v5.303h-4.024v-10.2L26.5 24.58Z" fill="#A6777E"/><path d="M24.591 32.683h3.815c.572 0 1.035-.455 1.035-1.016 0-.56-.463-1.015-1.035-1.015h-3.815c-.571 0-1.035.455-1.035 1.015 0 .561.464 1.016 1.035 1.016ZM15.027 22.802l.003-.003a1 1 0 0 0-.002-1.435 1.051 1.051 0 0 0-1.465.002 1.002 1.002 0 0 0 0 1.436c.202.198.467.297.732.297.265 0 .53-.099.732-.297Z" fill="#A6777E"/></svg>