<svg width="42" height="52" fill="none" xmlns="http://www.w3.org/2000/svg"><path d="M4.98 19.297c0 8.4 7.314 15.234 16.304 15.234 8.99 0 16.303-6.834 16.303-15.234S30.274 4.063 21.284 4.063c-8.99 0-16.304 6.834-16.304 15.234ZM21.284 6.094c7.791 0 14.13 5.923 14.13 13.203 0 7.28-6.339 13.203-14.13 13.203-7.792 0-14.13-5.923-14.13-13.203 0-7.28 6.338-13.203 14.13-13.203Z" fill="#A6777E"/><path d="m11.218 17.486 4.213 3.879-.97 5.451c-.067.38.1.762.434.989.333.226.774.256 1.14.08l5.249-2.548 5.248 2.547a1.15 1.15 0 0 0 1.14-.08.986.986 0 0 0 .433-.988l-.969-5.451 4.213-3.879a.97.97 0 0 0 .271-1.037 1.07 1.07 0 0 0-.872-.69l-5.847-.823-2.645-4.944a1.097 1.097 0 0 0-.972-.561c-.412 0-.788.217-.973.561l-2.645 4.944-5.847.822a1.07 1.07 0 0 0-.872.69.97.97 0 0 0 .27 1.038Zm7.33-.62c.35-.05.652-.254.81-.55l1.926-3.599 1.925 3.6c.159.295.46.5.81.549l4.256.599-3.066 2.822a.977.977 0 0 0-.31.89l.706 3.968-3.82-1.853a1.146 1.146 0 0 0-1.002 0l-3.82 1.853.705-3.967a.975.975 0 0 0-.31-.89l-3.066-2.823 4.256-.599ZM22.37 1.016c0 .56-.486 1.015-1.086 1.015-.6 0-1.087-.454-1.087-1.015 0-.561.486-1.016 1.087-1.016.6 0 1.087.455 1.087 1.016Z" fill="#A6777E"/><path d="M16.161.599C7.018 2.779.632 10.469.632 19.297c0 5.483 2.467 10.65 6.799 14.309L.882 44.389a.96.96 0 0 0 .067 1.1c.252.322.681.477 1.1.396l7.436-1.443 2.614 6.882c.142.375.505.637.928.672.424.035.83-.164 1.04-.51l7.217-11.854 7.215 11.854a1.102 1.102 0 0 0 1.04.51c.424-.035.787-.298.93-.672l2.613-6.882 7.436 1.443c.418.08.848-.074 1.1-.396a.96.96 0 0 0 .066-1.1l-6.548-10.783c4.331-3.66 6.799-8.826 6.799-14.31 0-8.828-6.386-16.517-15.529-18.697-.582-.14-1.173.189-1.322.732-.149.544.203 1.097.784 1.236 8.18 1.95 13.893 8.83 13.893 16.73 0 9.614-8.356 17.265-18.477 17.265-10.129 0-18.478-7.658-18.478-17.265 0-7.9 5.713-14.78 13.893-16.73.581-.14.932-.692.784-1.236-.148-.543-.74-.871-1.322-.732Zm-2.808 47.953-2.136-5.624c-.182-.478-.713-.758-1.245-.655L3.958 43.44l5.183-8.535c3.021 2.053 6.6 3.303 10.32 3.613l-6.108 10.034Zm19.242-6.279c-.531-.103-1.063.176-1.245.655l-2.136 5.624-6.108-10.034c3.72-.31 7.298-1.56 10.32-3.613l5.183 8.535-6.014-1.167Z" fill="#A6777E"/></svg>