<svg width="240" height="43" fill="none" xmlns="http://www.w3.org/2000/svg"><g clip-path="url('#clip0_187_60')" fill="#FDFDFD"><path d="M.08 1.47A.874.874 0 0 1 .348.41a.9.9 0 0 1 1.168.435V.818c2.305 5.42 4.42 10.33 6.698 15.791.787-1.879 1.585-3.673 2.384-5.552C9.24 7.872 7.86 4.607 6.507 1.391a1.71 1.71 0 0 1 0-.53.956.956 0 0 1 .529-.531.858.858 0 0 1 1.057.461l3.388 8.058c1.11-2.654 2.252-5.388 3.362-8.058a.858.858 0 0 1 1.058-.488c.186.066.341.2.433.377.026 0 .026.058.053.085.062.232.071.475.026.711-1.3 3.105-2.764 6.476-4.038 9.555.84 2.017 1.517 3.513 2.357 5.552 2.194-5.308 4.446-10.537 6.619-15.818a.9.9 0 0 1 1.11-.53c.207.13.377.312.491.53a.682.682 0 0 1 0 .653c-2.442 5.796-4.958 11.869-7.4 17.67a.838.838 0 0 1-.788.53.849.849 0 0 1-.788-.572c-.893-2.124-1.585-3.716-2.468-5.84-.814 1.933-1.681 3.924-2.495 5.84a.843.843 0 0 1-.759.48.838.838 0 0 1-.758-.48L.079 1.47ZM27.927 19.406a1.065 1.065 0 0 1-.133-.53V1.14a.772.772 0 0 1 .47-.786c.1-.041.209-.061.318-.058h10.023a.955.955 0 0 1 .893.844 1 1 0 0 1-.893.93h-9.14v4.357h8.215a.928.928 0 0 1 .867.844.973.973 0 0 1-.867.929h-8.215v9.846H38.6a.955.955 0 0 1 .893.844.94.94 0 0 1-.893.844H28.598a.895.895 0 0 1-.671-.329ZM45.106 19.406a.749.749 0 0 1-.243-.53V1.193a.947.947 0 0 1 .894-.897h4.9c5.149 0 9.325 4.411 9.325 9.72 0 5.307-4.176 9.692-9.325 9.692h-4.88a.96.96 0 0 1-.67-.303Zm13.147-9.39c0-4.384-3.415-7.962-7.617-7.962h-4.013v15.961h4.034c4.181.032 7.596-3.561 7.596-7.999ZM64.274 19.406a.749.749 0 0 1-.243-.53V1.193a.947.947 0 0 1 .898-.897h4.88c5.148 0 9.324 4.411 9.324 9.72 0 5.307-4.176 9.692-9.325 9.692H64.93a.95.95 0 0 1-.655-.303Zm13.146-9.39c0-4.384-3.415-7.962-7.617-7.962h-4.012v15.961h4.012c4.203.032 7.617-3.561 7.617-7.999ZM83.304 19.189V1.14a.936.936 0 0 1 .867-.844.886.886 0 0 1 .893.844V19.19a.926.926 0 0 1-.893.897.95.95 0 0 1-.867-.897ZM90.895 18.865V1.14a.91.91 0 0 1 .46-.71.774.774 0 0 1 .893.084h-.026L102.93 7.32V1.14a.846.846 0 0 1 .814-.844.895.895 0 0 1 .894.844v17.724a.873.873 0 0 1-1.192.784.826.826 0 0 1-.516-.784V9.31c-3.579-2.287-6.808-4.384-10.355-6.645v16.173a.832.832 0 0 1-.498.777.844.844 0 0 1-1.183-.75ZM110.083 10.016c0-5.525 4.123-10.016 9.383-10.016a9.487 9.487 0 0 1 7.052 3.376.834.834 0 0 1 .084 1.061.91.91 0 0 1-1.326 0 7.6 7.6 0 0 0-2.597-2.052 7.562 7.562 0 0 0-3.218-.75c-4.255 0-7.728 3.715-7.728 8.333s3.467 8.414 7.728 8.414c2.849 0 5.392-1.742 6.782-4.385.202-.462.378-.935.529-1.417h-7.269a.893.893 0 0 1-.867-.897.85.85 0 0 1 .867-.818h8.379a.745.745 0 0 1 .708.303.992.992 0 0 1 .111.711c-.14 1-.453 1.97-.925 2.861a9.427 9.427 0 0 1-3.403 3.831 9.378 9.378 0 0 1-4.896 1.477c-5.271.122-9.394-4.421-9.394-10.032ZM144.432 19.406a.75.75 0 0 1-.243-.53V1.193a.95.95 0 0 1 .275-.621.937.937 0 0 1 .619-.276h4.879c5.148 0 9.324 4.411 9.324 9.72 0 5.307-4.176 9.692-9.324 9.692h-4.879a.961.961 0 0 1-.651-.303Zm13.147-9.39c0-4.384-3.415-7.962-7.617-7.962h-4.013v15.961h4.013c4.202.032 7.617-3.561 7.617-7.999ZM164.06 18.865V1.195a.85.85 0 0 1 .221-.62.842.842 0 0 1 .593-.278h4.958a7.698 7.698 0 0 1 4.817 1.707 7.775 7.775 0 0 1 2.101 9.447 7.73 7.73 0 0 1-3.635 3.603c.178.187.342.388.491.6.111.132.244.329.355.461 1.792 2.123 2.875 1.932 3.118 1.88a.87.87 0 0 1 1.058.408.77.77 0 0 1-.27 1.062 2.452 2.452 0 0 1-1.031.244c-.893 0-2.357-.436-4.176-2.506-.164-.19-.354-.435-.528-.653a16.878 16.878 0 0 0-.788-.897h-.032a4.17 4.17 0 0 1-.735.112c-1.585.085-2.6-.133-3.171-.764a1.952 1.952 0 0 1-.434-1.593 2.08 2.08 0 0 1 1.544-1.635h-.027a2.533 2.533 0 0 1 2.765 1.062c.132.19.301.382.677.844a5.764 5.764 0 0 0 2.849-2.168 5.8 5.8 0 0 0 1.025-3.437 6.007 6.007 0 0 0-1.74-4.238 5.96 5.96 0 0 0-4.212-1.766h-4.149v16.795a.855.855 0 0 1-.248.595.843.843 0 0 1-.593.249.815.815 0 0 1-.576-.254.82.82 0 0 1-.227-.59Zm4.662-5.011c.053.111.328.244 1.327.244l-.111-.111c-.328-.462-.597-.531-.841-.531h-.19a.637.637 0 0 0-.301.218h.026c-.026.084 0 .111.027.132l.063.048ZM183.063 19.406a1.069 1.069 0 0 1-.132-.53V1.14a.778.778 0 0 1 .47-.786.76.76 0 0 1 .318-.058h10.007a.954.954 0 0 1 .893.844.997.997 0 0 1-.893.93h-9.135v4.357h8.215a.936.936 0 0 1 .867.844.975.975 0 0 1-.261.627.964.964 0 0 1-.606.302h-8.215v9.846h9.135a.954.954 0 0 1 .893.844.937.937 0 0 1-.893.844h-10.007a.884.884 0 0 1-.656-.329ZM200.005 12.628a.906.906 0 0 1 .841-.818h2.225c1.544-3.62 3.119-7.351 4.636-10.971a.717.717 0 0 1 .328-.356l-.085.027c.027-.027.085-.112.111-.133a1.017 1.017 0 0 1 1.195.356l7.401 17.776a.535.535 0 0 1 0 .711.955.955 0 0 1-.355.356.76.76 0 0 1-.38.133.924.924 0 0 1-.788-.531l-2.384-5.69h-8.516c-.809 1.905-1.628 3.954-2.394 5.807a.948.948 0 0 1-.788.408.56.56 0 0 1-.381-.132.694.694 0 0 1-.417-.462 1.482 1.482 0 0 1 0-.489l2.114-5.09h-1.517a.94.94 0 0 1-.846-.902Zm12.01-.818c-1.221-2.94-2.331-5.387-3.552-8.386-1.221 2.914-2.331 5.446-3.552 8.386h7.104ZM221.287 18.865V1.14a.934.934 0 0 1 .64-.79l.19-.054a1.015 1.015 0 0 1 .788.436l7.702 13.8c2.574-4.602 5.175-9.172 7.728-13.774.184-.23.445-.384.735-.435l.243.053a.89.89 0 0 1 .676.79l-.026 17.724a.856.856 0 0 1-1.707 0V4.438c-2.305 4.108-4.61 8.169-6.915 12.277a.778.778 0 0 1-.597.494.834.834 0 0 1-.867-.531c-2.442-4.326-4.393-7.867-6.872-12.209V18.87a.888.888 0 0 1-.84.844.934.934 0 0 1-.878-.85ZM14.98 42.639v-8.965a.345.345 0 0 1 .36-.287.336.336 0 0 1 .359.287v8.965a.346.346 0 0 1-.36.313.348.348 0 0 1-.358-.313ZM19.828 42.289l6.344-8.291h-5.815a.338.338 0 0 1-.338-.313.33.33 0 0 1 .338-.303h6.476a.46.46 0 0 1 .312.16.305.305 0 0 1-.032.286l-6.344 8.36h5.815a.306.306 0 0 1 .338.303.34.34 0 0 1-.338.286h-6.45a.3.3 0 0 1-.311-.186.378.378 0 0 1 .005-.302ZM30.887 39.39a.33.33 0 0 1 .328-.275h1.427l2.76-5.542a.217.217 0 0 1 .11-.106l.048-.053a.464.464 0 0 1 .48.159l4.341 8.806a.156.156 0 0 1 .035.172.154.154 0 0 1-.035.05.307.307 0 0 1-.17.144.33.33 0 0 1-.33-.013.387.387 0 0 1-.14-.135l-1.427-2.893h-5.191l-1.443 2.893a.418.418 0 0 1-.339.17.174.174 0 0 1-.121 0 .248.248 0 0 1-.185-.17.405.405 0 0 1 0-.197l1.316-2.654H31.22a.342.342 0 0 1-.311-.223.346.346 0 0 1-.022-.132Zm7.11-.275-2.31-4.66-2.295 4.66h4.605ZM48.659 37.267a1.925 1.925 0 0 0 .56-1.385c0-1.295-1.216-2.34-2.738-2.34h-3.072a.563.563 0 0 0-.243.09.24.24 0 0 0-.09.196v8.636a.228.228 0 0 0 .09.196.369.369 0 0 0 .244.101h3.452c1.913 0 3.5-1.332 3.5-2.962a2.88 2.88 0 0 0-.489-1.512 2.862 2.862 0 0 0-1.214-1.02Zm-1.797 4.926h-3.077v-8.057h2.722c1.126 0 2.083.775 2.083 1.746-.011.41-.18.8-.47 1.088a.762.762 0 0 1-.265.24l-.09.084a.582.582 0 0 1-.274.186h-.032v.042a.809.809 0 0 1 .227 0c.127.014.253.039.376.075a.76.76 0 0 1 .359.143l-.042-.032.063.043a2.287 2.287 0 0 1 1.227 2c-.006 1.38-1.27 2.442-2.807 2.442ZM52.993 42.681a.245.245 0 0 1-.063-.196v-8.806a.283.283 0 0 1 .193-.275.28.28 0 0 1 .119-.012h5.873c.169 0 .37.144.37.287a.383.383 0 0 1-.37.313H53.6v2.437h4.985c.17 0 .36.159.36.286a.383.383 0 0 1-.36.33h-4.99v5.143h5.519c.169 0 .37.159.37.292 0 .132-.201.286-.37.286h-5.879c-.09.006-.211-.02-.243-.085ZM64.427 42.681a.19.19 0 0 1-.095-.196v-8.806a.32.32 0 0 1 .328-.287.327.327 0 0 1 .36.287v8.493h5.143a.317.317 0 0 1 .338.292.319.319 0 0 1-.338.286H64.66a.348.348 0 0 1-.233-.069ZM73.794 39.39a.33.33 0 0 1 .328-.275h1.427l2.76-5.542a.217.217 0 0 1 .11-.106l.048-.053a.464.464 0 0 1 .481.159l4.34 8.806a.156.156 0 0 1 .036.172.154.154 0 0 1-.036.05.307.307 0 0 1-.169.144.33.33 0 0 1-.33-.013.388.388 0 0 1-.14-.135l-1.428-2.893h-5.19l-1.444 2.893a.418.418 0 0 1-.338.17.174.174 0 0 1-.122 0 .248.248 0 0 1-.185-.17.405.405 0 0 1 0-.197l1.316-2.654h-1.13a.342.342 0 0 1-.312-.223.346.346 0 0 1-.022-.132Zm7.11-.275-2.31-4.66-2.294 4.66h4.604ZM93.855 41.248a1.94 1.94 0 0 1-.153-1.645c.111-.297.336-.538.623-.669a.405.405 0 0 1 .466.186.283.283 0 0 1-.08.327.279.279 0 0 1-.105.055.71.71 0 0 0-.249.287 1.373 1.373 0 0 0 .111 1.183 2.942 2.942 0 0 0 2.527 1.227 3.5 3.5 0 0 0 2.215-.722 2.182 2.182 0 0 0 .714-1.741v-6.057a.329.329 0 0 1 .338-.287.348.348 0 0 1 .37.287v6.057a2.687 2.687 0 0 1-.962 2.16c-.749.6-1.686.912-2.643.881a3.592 3.592 0 0 1-3.172-1.529ZM104.665 39.39a.326.326 0 0 1 .328-.276h1.427l2.76-5.541a.213.213 0 0 1 .111-.106l.047-.053a.463.463 0 0 1 .481.159l4.34 8.806a.152.152 0 0 1 .035.05c.009.02.013.04.013.061 0 .021-.004.042-.013.061a.15.15 0 0 1-.035.05.305.305 0 0 1-.169.144.33.33 0 0 1-.143.037.386.386 0 0 1-.327-.185l-1.428-2.893h-5.191l-1.443 2.893a.415.415 0 0 1-.338.17.175.175 0 0 1-.122 0 .244.244 0 0 1-.115-.06.245.245 0 0 1-.07-.11.408.408 0 0 1 0-.197l1.316-2.654h-1.131a.343.343 0 0 1-.333-.355Zm7.115-.275-2.31-4.66-2.294 4.66h4.604ZM117.642 42.464v-8.785a.269.269 0 0 1 .148-.239.372.372 0 0 1 .37.027l6.524 3.503v-3.29a.318.318 0 0 1 .328-.288.338.338 0 0 1 .37.287v8.806a.327.327 0 0 1-.36.287.308.308 0 0 1-.228-.073.31.31 0 0 1-.11-.214v-4.798l-6.365-3.461v8.264a.304.304 0 0 1-.025.116.307.307 0 0 1-.069.095.293.293 0 0 1-.218.076.322.322 0 0 1-.365-.313ZM129.615 39.39a.328.328 0 0 1 .328-.276h1.427l2.76-5.541a.216.216 0 0 1 .111-.106l.047-.053a.467.467 0 0 1 .482.159l4.34 8.806a.152.152 0 0 1 .047.111.15.15 0 0 1-.047.111.307.307 0 0 1-.17.144.33.33 0 0 1-.33-.013.38.38 0 0 1-.14-.135l-1.427-2.893h-5.192l-1.443 2.893a.415.415 0 0 1-.338.17.175.175 0 0 1-.122 0 .249.249 0 0 1-.185-.17.408.408 0 0 1 0-.197l1.317-2.654h-1.132a.348.348 0 0 1-.333-.355Zm7.116-.275-2.31-4.66-2.295 4.66h4.605ZM142.006 38.085c0-2.654 2.368-4.857 5.376-4.857a5.606 5.606 0 0 1 4.06 1.661.324.324 0 0 1 .064.213.197.197 0 0 1-.122.186.374.374 0 0 1-.481 0 4.912 4.912 0 0 0-3.51-1.476c-2.575 0-4.726 1.937-4.726 4.278 0 2.341 2.151 4.316 4.726 4.316a4.836 4.836 0 0 0 2.277-.559 4.858 4.858 0 0 0 1.751-1.565.4.4 0 0 1 .465-.117.317.317 0 0 1 .18.313.308.308 0 0 1-.037.123 5.608 5.608 0 0 1-4.636 2.394c-3.013 0-5.387-2.192-5.387-4.91ZM155.655 42.64v-8.934a.315.315 0 0 1 .104-.228.317.317 0 0 1 .234-.085.318.318 0 0 1 .338.313v3.147h6.492v-3.147a.339.339 0 0 1 .328-.313.348.348 0 0 1 .37.313v8.938a.349.349 0 1 1-.698 0v-5.223h-6.492v5.223a.338.338 0 1 1-.676 0v-.005ZM166.571 38.085c0-2.654 2.4-4.857 5.349-4.857a5.647 5.647 0 0 1 4.171 1.741 4.574 4.574 0 0 1 .603 5.451 5.514 5.514 0 0 1-4.758 2.564c-2.96.01-5.365-2.181-5.365-4.9Zm.697 0c0 2.383 2.115 4.315 4.652 4.315a4.889 4.889 0 0 0 2.374-.586 4.911 4.911 0 0 0 1.797-1.664 4.12 4.12 0 0 0 .529-2.065 4.177 4.177 0 0 0-1.057-2.74 4.943 4.943 0 0 0-3.643-1.538c-2.558.005-4.652 1.91-4.652 4.278ZM179.194 33.785a.288.288 0 0 1 .153-.393.353.353 0 0 1 .418.16l4.102 8.163 1.549-3.105-2.4-4.814a.524.524 0 0 1 0-.223.307.307 0 0 1 .201-.17.378.378 0 0 1 .433.16l2.115 4.315 2.114-4.316a.418.418 0 0 1 .465-.159c.095 0 .122.106.169.17a.268.268 0 0 1 0 .223l-2.384 4.814 1.549 3.105 4.028-8.163c.064-.16.296-.197.481-.16.07.032.125.089.153.16a.15.15 0 0 1 .036.053c.009.02.013.042.013.064a.154.154 0 0 1-.013.063.151.151 0 0 1-.036.053l-4.339 8.796a.372.372 0 0 1-.328.196.344.344 0 0 1-.328-.196l-1.586-3.185-1.586 3.185a.364.364 0 0 1-.309.167.372.372 0 0 1-.309-.167l-4.361-8.796ZM194.576 40.617a.344.344 0 0 1 .016-.124.318.318 0 0 1 .281-.216c.216 0 .385.106.385.25.249 1.2 1.301 1.894 2.913 1.894 1.798 0 3.257-1.104 3.257-2.41 0-1.183-.915-1.948-2.681-2.34l-.169-.053c-1.892-.393-2.727-1.094-2.727-2.171 0-1.21 1.501-2.224 3.393-2.224.398.005.794.058 1.179.159a.42.42 0 0 1 .217.133c.025.03.041.067.047.107a.23.23 0 0 1-.015.115.4.4 0 0 1-.328.224h-.122a2.95 2.95 0 0 0-.978-.107c-1.469 0-2.68.722-2.68 1.62 0 .774.635 1.263 2.183 1.634l.154.037c2.114.435 3.172 1.433 3.172 2.893 0 1.662-1.734 2.989-3.923 2.989-1.961-.032-3.309-.924-3.574-2.41ZM205.91 42.464v-8.785a.342.342 0 0 1 .338-.287.348.348 0 0 1 .36.287v4.066l6.401-4.358.45.446-.143.106-3.827 2.617 3.98 5.791a.219.219 0 0 1 0 .223.355.355 0 0 1-.142.17.392.392 0 0 1-.357-.011.462.462 0 0 1-.151-.122l-3.907-5.7-2.315 1.618v3.939a.342.342 0 0 1-.359.302.33.33 0 0 1-.328-.302ZM217.296 39.39a.326.326 0 0 1 .328-.276h1.427l2.76-5.541a.216.216 0 0 1 .111-.106l.047-.053a.463.463 0 0 1 .481.159l4.34 8.806a.171.171 0 0 1 .036.05.158.158 0 0 1 0 .122.169.169 0 0 1-.036.05.305.305 0 0 1-.169.144.33.33 0 0 1-.33-.013.38.38 0 0 1-.14-.135l-1.428-2.893h-5.191l-1.443 2.893a.415.415 0 0 1-.338.17.175.175 0 0 1-.122 0 .244.244 0 0 1-.115-.06.245.245 0 0 1-.07-.11.408.408 0 0 1 0-.197l1.317-2.654h-1.132a.338.338 0 0 1-.24-.108.344.344 0 0 1-.093-.247Zm7.116-.275-2.311-4.66-2.289 4.66h4.6Z"/></g><defs><clipPath id="clip0_187_60"><path fill="#fff" d="M0 0h240v43H0z"/></clipPath></defs></svg>