<svg width="152" height="235" fill="none" xmlns="http://www.w3.org/2000/svg"><path d="M151.5 2a1.5 1.5 0 0 0-3 0h3Zm-105 75 1.327.7L46.5 77ZM.085 228.502a1.5 1.5 0 0 0 .917 1.913l12.734 4.482a1.5 1.5 0 0 0 .996-2.83l-11.32-3.984 3.985-11.319a1.5 1.5 0 1 0-2.83-.996L.085 228.502Zm4.835.462a1.5 1.5 0 0 0-1.393-2.658l1.393 2.658Zm3.677-5.571a1.5 1.5 0 0 0 1.6 2.537l-1.6-2.537Zm6.609-.958a1.5 1.5 0 0 0-1.836-2.373l1.836 2.373Zm2.544-6.159a1.501 1.501 0 0 0 2.087 2.155l-2.087-2.155Zm6.23-2.383a1.5 1.5 0 1 0-2.338-1.879l2.339 1.879Zm.98-6.613a1.5 1.5 0 1 0 2.565 1.556l-2.565-1.556Zm5.412-3.905a1.5 1.5 0 1 0-2.743-1.215l2.743 1.215Zm-.717-6.644a1.5 1.5 0 0 0 2.866.889l-2.866-.889Zm4.378-5.037a1.5 1.5 0 0 0-2.94-.602l2.94.602Zm-2-6.385a1.5 1.5 0 1 0 2.978.369l-2.977-.369Zm3.536-5.672a1.5 1.5 0 0 0-2.994-.19l2.994.19Zm-2.755-6.088a1.499 1.499 0 1 0 3 .06l-3-.06Zm3.025-5.959a1.5 1.5 0 1 0-3 .028l3-.028Zm-3.112-5.925a1.5 1.5 0 1 0 2.999-.08l-3 .08Zm2.814-6.069a1.5 1.5 0 0 0-2.998.101l2.998-.101Zm-3.196-5.873a1.5 1.5 0 1 0 2.998-.094l-2.998.094Zm2.84-6.048a1.5 1.5 0 1 0-3 .062l3-.062Zm-3.074-5.939a1.5 1.5 0 0 0 3-.008l-3 .008Zm3.053-5.946a1.5 1.5 0 1 0-2.999-.065l3 .065Zm-2.776-6.083a1.5 1.5 0 0 0 2.996.159l-2.996-.159Zm3.417-5.745a1.5 1.5 0 1 0-2.987-.271l2.987.271Zm-2.318-6.272a1.5 1.5 0 1 0 2.974.397l-2.974-.397Zm3.891-5.435a1.5 1.5 0 1 0-2.951-.537l2.951.537Zm-1.718-6.46a1.5 1.5 0 1 0 2.92.687l-2.92-.687Zm4.425-5.01a1.5 1.5 0 1 0-2.879-.844l2.879.845Zm-1.01-6.605a1.5 1.5 0 1 0 2.826 1.006l-2.826-1.007Zm4.958-4.48a1.5 1.5 0 0 0-2.764-1.166l2.764 1.166Zm-.248-6.676a1.5 1.5 0 1 0 2.692 1.324l-2.692-1.324Zm5.492-3.962a1.5 1.5 0 1 0-2.603-1.49l2.603 1.49Zm.642-6.73A1.5 1.5 0 1 0 52.412 70l-2.493-1.668Zm5.978-3.154a1.5 1.5 0 0 0-2.366-1.845l2.366 1.844Zm1.6-6.567a1.5 1.5 0 0 0 2.225 2.013l-2.225-2.013Zm6.373-2.249a1.5 1.5 0 0 0-2.072-2.169l2.072 2.17Zm2.532-6.263a1.5 1.5 0 0 0 1.913 2.31l-1.913-2.31Zm6.635-1.335a1.5 1.5 0 0 0-1.753-2.434l1.753 2.434Zm3.358-5.873a1.5 1.5 0 0 0 1.597 2.54l-1.597-2.54Zm6.747-.492a1.5 1.5 0 1 0-1.45-2.627l1.45 2.627Zm3.997-5.451a1.5 1.5 0 1 0 1.315 2.696l-1.315-2.696Zm6.763.189a1.5 1.5 0 1 0-1.196-2.751l1.196 2.751Zm4.463-5.088a1.5 1.5 0 1 0 1.097 2.792l-1.097-2.792Zm6.731.673a1.5 1.5 0 1 0-1.019-2.822l1.019 2.822Zm4.727-4.833a1.5 1.5 0 0 0 .968 2.84l-.968-2.84Zm6.714.912a1.5 1.5 0 1 0-.946-2.847l.946 2.847Zm4.782-4.763a1.5 1.5 0 0 0 .965 2.841l-.965-2.84Zm6.737.812a1.5 1.5 0 0 0-1.036-2.815l1.036 2.815Zm4.526-5.015a1.5 1.5 0 0 0 1.186 2.756l-1.186-2.756Zm6.769.04a1.5 1.5 0 0 0-1.462-2.62l1.462 2.62Zm3.326-5.847a1.5 1.5 0 0 0 1.926 2.3l-1.926-2.3Zm6.242-2.571a1.5 1.5 0 0 0-2.55-1.581l2.55 1.58Zm-.641-6.678a1.5 1.5 0 1 0 2.959.495l-2.959-.495ZM2.148 230.353c.95-.455 1.873-.918 2.772-1.389l-1.393-2.658c-.866.454-1.757.901-2.675 1.341l1.296 2.706Zm8.05-4.423a64.201 64.201 0 0 0 5.008-3.495l-1.836-2.373a61.077 61.077 0 0 1-4.773 3.331l1.6 2.537Zm9.64-7.499a49.243 49.243 0 0 0 4.143-4.538l-2.339-1.879a46.33 46.33 0 0 1-3.892 4.262l2.087 2.155Zm7.687-9.595a47.968 47.968 0 0 0 2.847-5.461l-2.743-1.215a44.903 44.903 0 0 1-2.669 5.12l2.565 1.556Zm4.996-11.216c.6-1.939 1.1-3.915 1.512-5.926l-2.94-.602a59.16 59.16 0 0 1-1.438 5.639l2.866.889Zm2.49-11.942c.246-1.984.428-3.999.558-6.041l-2.994-.19a98.133 98.133 0 0 1-.541 5.862l2.977.369Zm.802-12.069c.04-1.983.045-3.99.026-6.019l-3 .028a202.7 202.7 0 0 1-.025 5.931l3 .06Zm-.087-12.024a870.23 870.23 0 0 0-.185-5.989l-2.998.101c.067 2.013.131 4.002.184 5.968l2.999-.08Zm-.383-11.956c-.061-1.97-.117-3.955-.158-5.954l-3 .062c.042 2.013.098 4.01.16 5.986l2.998-.094Zm-.232-11.901c-.005-1.968.01-3.947.053-5.938l-2.999-.065c-.044 2.018-.06 4.023-.054 6.011l3-.008Zm.273-11.862c.104-1.959.242-3.927.421-5.904l-2.987-.271a162.775 162.775 0 0 0-.43 6.016l2.996.159Zm1.077-11.779a125 125 0 0 1 .917-5.832l-2.951-.537c-.364 2-.675 3.991-.94 5.972l2.974.397Zm2.12-11.605c.445-1.894.945-3.793 1.504-5.696l-2.879-.845a111.296 111.296 0 0 0-1.546 5.854l2.92.687Zm3.32-11.296a102.33 102.33 0 0 1 2.132-5.486l-2.764-1.166a105.257 105.257 0 0 0-2.194 5.645l2.826 1.007Zm4.576-10.838c.434-.882.883-1.765 1.35-2.648l-2.654-1.4c-.48.908-.942 1.816-1.388 2.724l2.692 1.324Zm1.35-2.648c.473-.897.957-1.776 1.45-2.638l-2.603-1.49c-.51.891-1.01 1.8-1.5 2.728l2.653 1.4Zm4.585-7.7a82.254 82.254 0 0 1 3.485-4.823l-2.366-1.844a85.354 85.354 0 0 0-3.612 4.999L52.412 70Zm7.31-9.377a81.5 81.5 0 0 1 4.148-4.26l-2.072-2.17a84.497 84.497 0 0 0-4.3 4.418l2.224 2.013Zm8.593-8.213a88.27 88.27 0 0 1 4.722-3.646l-1.753-2.434a91.27 91.27 0 0 0-4.882 3.769l1.913 2.31Zm9.677-6.979a104.89 104.89 0 0 1 5.15-3.032l-1.45-2.627a107.829 107.829 0 0 0-5.297 3.12l1.597 2.54Zm10.462-5.787c1.812-.883 3.63-1.716 5.448-2.507l-1.196-2.751a140.945 140.945 0 0 0-5.567 2.562l1.315 2.696Zm11.008-4.803c1.889-.742 3.77-1.446 5.634-2.12l-1.019-2.82a220.302 220.302 0 0 0-5.712 2.148l1.097 2.792Zm11.329-4.113a810.968 810.968 0 0 1 5.746-1.927l-.946-2.847a823.427 823.427 0 0 0-5.768 1.935l.968 2.84Zm11.493-3.849a243.775 243.775 0 0 0 5.772-2.029l-1.036-2.815c-1.823.67-3.726 1.333-5.701 2.003l.965 2.841Zm11.484-4.288c1.986-.855 3.856-1.752 5.583-2.715l-1.462-2.62c-1.616.901-3.391 1.754-5.307 2.58l1.186 2.755Zm10.835-6.263c1.722-1.442 3.185-3.048 4.316-4.871l-2.55-1.581c-.933 1.505-2.169 2.877-3.692 4.152l1.926 2.3Zm6.634-11.054A19.81 19.81 0 0 0 151.5 2h-3c0 .982-.076 1.906-.222 2.78l2.959.494Z" fill="#CACACA"/></svg>