<svg width="191" height="275" fill="none" xmlns="http://www.w3.org/2000/svg"><path d="M2.128.505a1.5 1.5 0 1 0-.256 2.99l.256-2.99ZM144.5 93l1.481-.239L144.5 93ZM116 124.5l-.9 1.2.9-1.2Zm50 4-1.217.876L166 128.5Zm10.783 145.877a1.5 1.5 0 0 0 2.094.34l10.951-7.895a1.5 1.5 0 0 0-1.754-2.434l-9.734 7.018-7.018-9.734a1.5 1.5 0 0 0-2.434 1.754l7.895 10.951ZM4.839 3.767A1.5 1.5 0 1 0 5.134.783l-.295 2.986Zm6.32-2.31a1.5 1.5 0 0 0-.37 2.976l.37-2.977Zm5.562 3.792a1.5 1.5 0 1 0 .445-2.967L16.72 5.25Zm6.428-1.994a1.5 1.5 0 1 0-.518 2.955l.518-2.955Zm5.368 4.06a1.5 1.5 0 0 0 .589-2.942l-.589 2.941Zm6.517-1.682a1.5 1.5 0 0 0-.66 2.926l.66-2.926ZM40.2 9.945a1.5 1.5 0 1 0 .73-2.91l-.73 2.91Zm6.59-1.364a1.5 1.5 0 0 0-.8 2.891l.8-2.891Zm4.95 4.56a1.5 1.5 0 1 0 .872-2.87l-.873 2.87Zm6.65-1.033a1.5 1.5 0 1 0-.947 2.847l.946-2.847Zm4.706 4.81a1.5 1.5 0 0 0 1.022-2.821l-1.022 2.82Zm6.696-.678a1.5 1.5 0 0 0-1.1 2.792l1.1-2.792Zm4.433 5.062a1.5 1.5 0 1 0 1.18-2.758l-1.18 2.758Zm6.724-.287a1.5 1.5 0 0 0-1.264 2.72l1.264-2.72Zm4.115 5.323a1.5 1.5 0 0 0 1.35-2.678l-1.35 2.678Zm6.727.148a1.5 1.5 0 1 0-1.442 2.631l1.442-2.63Zm3.738 5.594a1.5 1.5 0 0 0 1.538-2.576L95.53 32.08Zm6.698.643a1.5 1.5 0 1 0-1.638 2.513l1.638-2.513Zm3.283 5.871a1.5 1.5 0 0 0 1.744-2.44l-1.744 2.44Zm6.621 1.214a1.5 1.5 0 1 0-1.855 2.358l1.855-2.358Zm2.73 6.151a1.5 1.5 0 1 0 1.97-2.262l-1.97 2.262Zm6.465 1.871a1.5 1.5 0 0 0-2.091 2.152l2.091-2.152Zm2.044 6.41a1.5 1.5 0 1 0 2.214-2.024l-2.214 2.024Zm6.197 2.62a1.499 1.499 0 1 0-2.339 1.878l2.339-1.879Zm1.207 6.615a1.5 1.5 0 0 0 2.463-1.712l-2.463 1.712Zm5.776 3.447a1.5 1.5 0 1 0-2.583 1.526l2.583-1.526Zm.219 6.722a1.5 1.5 0 0 0 2.695-1.319l-2.695 1.319Zm5.167 4.306a1.5 1.5 0 1 0-2.794 1.093l2.794-1.093Zm-.881 6.666a1.5 1.5 0 1 0 2.876-.853l-2.876.853Zm4.37 5.11a1.5 1.5 0 0 0-2.939.604l2.939-.604Zm-2.153 6.56a1.5 1.5 0 1 0 3-.04l-3 .04Zm2.351 6.791a1.501 1.501 0 0 0-2.946-.568l2.946.568Zm-4.637 5.526a1.5 1.5 0 0 0 2.821 1.021l-2.821-1.021Zm.029 7.214a1.501 1.501 0 0 0-2.63-1.444l2.63 1.444Zm-6.128 3.762a1.5 1.5 0 0 0 2.311 1.913l-2.311-1.913Zm-2.806 6.652a1.5 1.5 0 0 0-1.675-2.489l1.675 2.489Zm-7.066-.382a1.5 1.5 0 0 0 .335 2.981l-.335-2.981Zm-6.852 1.717a1.5 1.5 0 1 0 1.282-2.712l-1.282 2.712Zm-3.42-6.094a1.5 1.5 0 0 0-2.1 2.143l2.1-2.143Zm-5.267-4.103a1.501 1.501 0 0 0 2.998.122l-2.998-.122Zm5.826-2.893a1.5 1.5 0 0 0-1.282-2.713l1.282 2.713Zm4.859-4.455a1.5 1.5 0 0 0 .457 2.965l-.457-2.965Zm6.205 2.545a1.5 1.5 0 0 0-.013-3l.013 3Zm6.112-2.68a1.5 1.5 0 0 0-.317 2.984l.317-2.984Zm5.442 3.887a1.5 1.5 0 0 0 .61-2.937l-.61 2.937Zm6.54-1.395a1.5 1.5 0 1 0-.9 2.862l.9-2.862Zm4.546 4.897a1.5 1.5 0 0 0 1.204-2.748l-1.204 2.748Zm6.687.058a1.5 1.5 0 0 0-1.533 2.579l1.533-2.579Zm3.194 5.86a1.5 1.5 0 0 0 1.89-2.33l-1.89 2.33Zm6.382 1.981a1.5 1.5 0 1 0-2.258 1.975l2.258-1.975Zm1.367 6.726a1.5 1.5 0 1 0 2.413-1.782l-2.413 1.782Zm6.048 3.371a1.5 1.5 0 0 0-2.508 1.647l2.508-1.647Zm.606 6.887a1.5 1.5 0 1 0 2.648-1.409l-2.648 1.409Zm5.368 4.334a1.5 1.5 0 0 0-2.768 1.159l2.768-1.159Zm-.648 6.886a1.501 1.501 0 0 0 2.853-.929l-2.853.929Zm4.596 5.155a1.5 1.5 0 1 0-2.91.729l2.91-.729Zm-1.591 6.743a1.499 1.499 0 1 0 2.947-.56l-2.947.56Zm3.967 5.644a1.5 1.5 0 1 0-2.971.418l2.971-.418Zm-2.237 6.577a1.5 1.5 0 1 0 2.985-.296l-2.985.296Zm3.492 5.94a1.501 1.501 0 0 0-2.994.192l2.994-.192Zm-2.692 6.359a1.5 1.5 0 1 0 2.998-.103l-2.998.103Zm3.13 6.162a1.5 1.5 0 0 0-3 .025l3-.025Zm-3.02 6.221a1.5 1.5 0 0 0 2.999.043l-2.999-.043Zm2.845 6.304a1.5 1.5 0 0 0-2.998-.104l2.998.104Zm-3.27 6.102a1.498 1.498 0 0 0 1.419 1.576 1.498 1.498 0 0 0 1.576-1.419l-2.995-.157Zm2.614 6.422a1.5 1.5 0 0 0-2.993-.206l2.993.206Zm-3.467 5.991a1.5 1.5 0 1 0 2.99.25l-2.99-.25Zm2.43 6.443a1.5 1.5 0 0 0-2.986-.29l2.986.29Zm-3.623 5.883a1.5 1.5 0 1 0 2.982.326l-2.982-.326Zm2.264 6.566a1.5 1.5 0 1 0-2.978-.36l2.978.36Zm-3.753 5.796a1.5 1.5 0 1 0 2.975.389l-2.975-.389Zm2.137 6.554a1.5 1.5 0 0 0-2.971-.418l2.971.418Zm-3.871 5.78a1.5 1.5 0 0 0 2.967.444l-2.967-.444Zm2.023 6.58a1.501 1.501 0 0 0-2.964-.469l2.964.469ZM1.872 3.495c.985.084 1.974.175 2.967.273L5.134.782A228.9 228.9 0 0 0 2.128.505l-.256 2.99Zm8.917.938c1.964.245 3.943.517 5.932.816l.445-2.967a243.669 243.669 0 0 0-6.006-.826l-.371 2.977ZM22.63 6.21c1.956.343 3.919.71 5.886 1.104l.589-2.941c-1.991-.399-3.978-.771-5.957-1.118L22.63 6.21Zm11.744 2.35c1.941.437 3.884.898 5.825 1.385l.73-2.91c-1.965-.492-3.932-.96-5.896-1.402l-.66 2.926Zm11.615 2.912c1.92.532 3.838 1.088 5.75 1.67l.872-2.871a242.563 242.563 0 0 0-5.822-1.69l-.8 2.891Zm11.453 3.483c1.894.63 3.78 1.284 5.653 1.962l1.022-2.82c-1.9-.688-3.81-1.35-5.729-1.989l-.946 2.847Zm11.25 4.077c1.859.732 3.704 1.488 5.532 2.27l1.18-2.758a209.26 209.26 0 0 0-5.613-2.304l-1.1 2.792Zm10.992 4.704c1.814.842 3.607 1.71 5.379 2.602l1.35-2.678a187.831 187.831 0 0 0-5.465-2.645l-1.264 2.72Zm10.664 5.381a162.06 162.06 0 0 1 5.18 2.963l1.538-2.576a165.26 165.26 0 0 0-5.276-3.018l-1.442 2.631Zm10.24 6.12a140.571 140.571 0 0 1 4.921 3.357l1.744-2.44a142.36 142.36 0 0 0-5.027-3.431l-1.638 2.513Zm9.687 6.93c1.57 1.234 3.1 2.499 4.585 3.792l1.97-2.262a121.896 121.896 0 0 0-4.7-3.889l-1.855 2.358Zm8.959 7.815a100.063 100.063 0 0 1 4.135 4.258l2.214-2.024a103.437 103.437 0 0 0-4.258-4.386l-2.091 2.152Zm7.993 8.756a85.189 85.189 0 0 1 3.546 4.737l2.463-1.712a88.31 88.31 0 0 0-3.67-4.904l-2.339 1.879Zm6.739 9.71a75.051 75.051 0 0 1 2.802 5.196l2.695-1.319a77.867 77.867 0 0 0-2.914-5.403l-2.583 1.526Zm5.175 10.595a69.893 69.893 0 0 1 1.913 5.573l2.876-.853a72.517 72.517 0 0 0-1.995-5.813l-2.794 1.093Zm3.344 11.287c.198.961.375 1.93.533 2.909l2.962-.478a73.135 73.135 0 0 0-.556-3.035l-2.939.604Zm.533 2.909c.155.957.238 1.978.253 3.047l3-.04a24.119 24.119 0 0 0-.291-3.485l-2.962.478Zm-.342 9.27a40.48 40.48 0 0 1-1.691 6.094l2.821 1.021a43.443 43.443 0 0 0 1.816-6.547l-2.946-.568Zm-4.292 11.864c-1.042 1.899-2.218 3.66-3.498 5.206l2.311 1.913c1.415-1.709 2.695-3.632 3.817-5.675l-2.63-1.444Zm-7.979 9.369c-1.745 1.174-3.555 1.901-5.391 2.107l.335 2.981c2.406-.27 4.668-1.211 6.731-2.599l-1.675-2.489Zm-10.961 1.112c-.83-.392-1.68-.905-2.545-1.554l-1.8 2.4c1.013.76 2.035 1.38 3.063 1.866l1.282-2.712ZM116.9 123.3a21.646 21.646 0 0 1-2.157-1.828l-2.1 2.143c.699.685 1.517 1.38 2.457 2.085l1.8-2.4Zm-4.426-5.809c.038-.951.762-2.038 2.828-3.015l-1.282-2.713c-2.452 1.159-4.438 2.988-4.544 5.606l2.998.122Zm8.144-4.505c1.733-.266 3.668-.412 5.748-.42l-.013-3c-2.207.009-4.293.163-6.192.455l.457 2.965Zm11.543-.116a58.91 58.91 0 0 1 5.759.903l.61-2.937a62.145 62.145 0 0 0-6.052-.95l-.317 2.984Zm11.399 2.37a53.367 53.367 0 0 1 5.446 2.035l1.204-2.748a56.664 56.664 0 0 0-5.75-2.149l-.9 2.862Zm10.6 4.672a39.689 39.689 0 0 1 4.727 3.281l1.89-2.33a42.75 42.75 0 0 0-5.084-3.53l-1.533 2.579Zm8.851 7.237a30.188 30.188 0 0 1 1.772 2.227l2.434-1.752a32.853 32.853 0 0 0-1.948-2.45l-2.258 1.975Zm1.772 2.227c.586.815 1.212 1.656 1.853 2.524l2.413-1.782c-.65-.88-1.259-1.699-1.832-2.494l-2.434 1.752Zm5.393 7.542a65.817 65.817 0 0 1 3.114 5.24l2.648-1.409a68.594 68.594 0 0 0-3.254-5.478l-2.508 1.647Zm5.714 10.733a74.02 74.02 0 0 1 2.12 5.727l2.853-.929a78.074 78.074 0 0 0-2.205-5.957l-2.768 1.159Zm3.806 11.611c.472 1.881.913 3.882 1.319 6.014l2.947-.56c-.416-2.187-.87-4.245-1.356-6.183l-2.91.729Zm2.315 12.076c.275 1.955.521 4.006.734 6.159l2.985-.296a153.928 153.928 0 0 0-.748-6.281l-2.971.418Zm1.232 12.291c.127 1.978.228 4.032.302 6.167l2.998-.103a212.379 212.379 0 0 0-.306-6.256l-2.994.192Zm.432 12.354c.017 2 .011 4.065-.02 6.196l2.999.043c.032-2.153.038-4.24.021-6.264l-3 .025Zm-.173 12.396c-.07 2.013-.16 4.081-.272 6.206l2.995.157c.113-2.142.204-4.228.275-6.259l-2.998-.104Zm-.651 12.422a422.22 422.22 0 0 1-.474 6.197l2.99.25c.178-2.128.336-4.208.477-6.241l-2.993-.206Zm-1.03 12.35a532.593 532.593 0 0 1-.637 6.173l2.982.326c.23-2.112.444-4.182.641-6.209l-2.986-.29Zm-1.351 12.379a599.895 599.895 0 0 1-.775 6.156l2.975.389c.275-2.099.534-4.161.778-6.185l-2.978-.36Zm-1.609 12.292a661.204 661.204 0 0 1-.9 6.198l2.967.444c.316-2.109.617-4.184.904-6.224l-2.971-.418Zm-1.841 12.309c-.163 1.035-.33 2.078-.501 3.129l2.962.48c.171-1.055.338-2.101.503-3.14l-2.964-.469Z" fill="#CACACA"/></svg>