<svg width="60" height="60" fill="none" xmlns="http://www.w3.org/2000/svg"><g clip-path="url('#clip0_25_691')" fill="#A6777E"><path d="M7.291 2H2.068C.928 2 0 2.92 0 4.05v5.177c0 1.13.928 2.05 2.068 2.05h5.223c1.14 0 2.068-.92 2.068-2.05V4.051C9.36 2.92 8.431 2 7.291 2Zm.306 7.227a.305.305 0 0 1-.306.303H2.068a.305.305 0 0 1-.305-.303V4.051c0-.168.137-.304.305-.304h5.223c.169 0 .306.136.306.304v5.176ZM7.291 47.72H2.068C.928 47.72 0 48.64 0 49.77v5.176c0 1.13.928 2.05 2.068 2.05h5.223c1.14 0 2.068-.92 2.068-2.05V49.77c0-1.13-.928-2.05-2.068-2.05Zm.306 7.226a.305.305 0 0 1-.306.303H2.068a.305.305 0 0 1-.305-.303V49.77c0-.167.137-.303.305-.303h5.223c.169 0 .306.136.306.303v5.176ZM57.932 2h-34.81a.877.877 0 0 0-.882.874c0 .482.395.873.882.873h34.81c.168 0 .305.136.305.304v5.176a.305.305 0 0 1-.305.304H15.438a.305.305 0 0 1-.305-.304V4.05c0-.168.137-.304.305-.304h3.571a.877.877 0 0 0 .881-.873A.877.877 0 0 0 19.01 2h-3.57c-1.141 0-2.069.92-2.069 2.05v5.177c0 1.13.928 2.05 2.068 2.05h42.494c1.14 0 2.068-.92 2.068-2.05V4.05C60 2.92 59.072 2 57.932 2ZM57.932 47.722h-34.81a.877.877 0 0 0-.882.874c0 .482.395.873.882.873h34.81c.168 0 .305.137.305.304v5.176a.305.305 0 0 1-.305.304H15.438a.305.305 0 0 1-.305-.304v-5.176c0-.167.137-.304.305-.304h3.571a.877.877 0 0 0 .881-.873.877.877 0 0 0-.881-.874h-3.57c-1.141 0-2.069.92-2.069 2.051v5.176c0 1.13.928 2.05 2.068 2.05h42.494c1.14 0 2.068-.92 2.068-2.05v-5.176c0-1.13-.928-2.05-2.068-2.05ZM7.291 17.24H2.068C.928 17.24 0 18.16 0 19.29v5.177c0 1.13.928 2.05 2.068 2.05h5.223c1.14 0 2.068-.92 2.068-2.05V19.29c0-1.13-.928-2.05-2.068-2.05Zm.306 7.227a.305.305 0 0 1-.306.303H2.068a.305.305 0 0 1-.305-.303V19.29c0-.167.137-.303.305-.303h5.223c.169 0 .306.136.306.303v5.177ZM57.932 17.24H15.438c-1.14 0-2.068.92-2.068 2.052v5.175c0 1.131.928 2.051 2.068 2.051h35c.487 0 .882-.39.882-.873a.877.877 0 0 0-.881-.874h-35a.305.305 0 0 1-.306-.304v-5.175c0-.168.137-.304.305-.304h42.494c.168 0 .305.136.305.304v5.175a.305.305 0 0 1-.305.304h-3.38a.877.877 0 0 0-.882.874c0 .483.395.873.881.873h3.38c1.141 0 2.069-.92 2.069-2.05v-5.176c0-1.131-.928-2.051-2.068-2.051ZM7.291 32.48H2.068C.928 32.48 0 33.4 0 34.53v5.177c0 1.13.928 2.05 2.068 2.05h5.223c1.14 0 2.068-.92 2.068-2.05V34.53c0-1.13-.928-2.05-2.068-2.05Zm.306 7.227a.305.305 0 0 1-.306.303H2.068a.305.305 0 0 1-.305-.303V34.53c0-.167.137-.303.305-.303h5.223c.169 0 .306.136.306.303v5.177ZM57.932 32.481H15.438c-1.14 0-2.068.92-2.068 2.051v5.176c0 1.131.928 2.051 2.068 2.051h8.136a.877.877 0 0 0 .881-.873.877.877 0 0 0-.881-.874h-8.136a.305.305 0 0 1-.305-.304v-5.176c0-.167.137-.303.305-.303h42.494c.168 0 .305.136.305.303v5.176a.305.305 0 0 1-.305.304H27.687a.877.877 0 0 0-.882.874c0 .482.395.873.882.873h30.245c1.14 0 2.068-.92 2.068-2.05v-5.177c0-1.13-.928-2.05-2.068-2.05Z"/></g><defs><clipPath id="clip0_25_691"><path fill="#fff" d="M0 0h60v60H0z"/></clipPath></defs></svg>