<svg width="60" height="60" fill="none" xmlns="http://www.w3.org/2000/svg"><path d="M46.278 46.206H21.663a.886.886 0 0 0 0 1.771h24.615a.885.885 0 1 0 0-1.77ZM46.278 39.986H21.663a.885.885 0 0 0 0 1.771h24.615a.886.886 0 0 0 0-1.77ZM20.778 34.648c0 .489.396.885.885.885h15.664a.886.886 0 1 0 0-1.77H21.663a.885.885 0 0 0-.885.885Z" fill="#A6777E"/><path d="m55.625 11.617-1.597-1.733V3.685A3.695 3.695 0 0 0 50.332 0h-39.61a3.695 3.695 0 0 0-3.697 3.685v6.992h-1.62a3.536 3.536 0 0 0-3.53 3.533v10.72a3.536 3.536 0 0 0 3.53 3.533h1.62v24.703a3.695 3.695 0 0 0 3.697 3.686h2.023A3.594 3.594 0 0 0 16.307 60h38.108a3.595 3.595 0 0 0 3.594-3.589V18.16c0-3.131-.095-4.053-2.384-6.542Zm.576 4.72h-6.634a1.822 1.822 0 0 1-1.822-1.818l.006-7.7c1.164.086 1.475.43 2.496 1.565.17.189.354.394.56.617l1.692 1.838.019.02 1.803 1.957c1.407 1.53 1.78 2.171 1.88 3.52ZM8.796 3.684c0-1.055.864-1.914 1.926-1.914h39.61c1.061 0 1.925.859 1.925 1.914v4.276l-.148-.16c-.2-.217-.38-.417-.545-.6-1.455-1.62-2.092-2.18-4.697-2.18h-30.56c-1.98 0-3.59 1.61-3.59 3.59v2.066h-3.92V3.685Zm47.442 52.726a1.822 1.822 0 0 1-1.823 1.818H16.307a1.82 1.82 0 0 1-1.819-1.818V43.578a.885.885 0 0 0-1.77 0V55.08h-1.996a1.922 1.922 0 0 1-1.926-1.913V28.462h3.921v11.06a.885.885 0 0 0 1.771 0v-11.06h4.597a.885.885 0 0 0 0-1.771H5.405c-.97 0-1.759-.79-1.759-1.762V14.21c0-.972.79-1.762 1.76-1.762h23.321c.972 0 1.763.79 1.763 1.762v10.72c0 .972-.79 1.762-1.763 1.762h-5.585a.886.886 0 1 0 0 1.77h5.585a3.537 3.537 0 0 0 3.534-3.532V14.21a3.537 3.537 0 0 0-3.534-3.533H14.488V8.611a1.82 1.82 0 0 1 1.82-1.818H45.98l-.006 7.726a3.595 3.595 0 0 0 3.593 3.589h6.67V56.41Z" fill="#A6777E"/><path d="M10.74 15.778H8.62a.903.903 0 0 0-.664.274.916.916 0 0 0-.274.674v6.272c0 .26.09.48.268.658.179.179.391.268.636.268.246 0 .458-.09.637-.268a.867.867 0 0 0 .268-.636v-1.819h1.362c.826 0 1.488-.247 1.987-.742.498-.494.748-1.144.748-1.947 0-.81-.264-1.47-.793-1.975-.528-.506-1.213-.76-2.054-.76Zm.659 3.515a1.038 1.038 0 0 1-.76.324H9.49v-2.221h1.162c.305 0 .56.11.765.33.204.219.306.485.306.797 0 .298-.107.554-.323.77ZM21.009 17.904a3.49 3.49 0 0 0-1.11-1.39c-.663-.483-1.52-.725-2.569-.725h-1.864c-.26 0-.48.093-.659.279a.894.894 0 0 0-.268.636v6.216c0 .267.086.487.257.658a.993.993 0 0 0 .681.245h2.01c1.086 0 1.957-.294 2.612-.881.87-.796 1.306-1.849 1.306-3.158 0-.677-.132-1.304-.396-1.88Zm-2.049 3.632c-.387.439-.9.658-1.54.658h-1.072V17.43h.971c.685 0 1.226.212 1.625.637.397.423.597.996.597 1.718 0 .73-.194 1.313-.58 1.752ZM23.485 23.947c.252 0 .467-.09.641-.269a.878.878 0 0 0 .263-.635v-2.4h1.72c.245 0 .45-.08.613-.24a.775.775 0 0 0 .246-.574.779.779 0 0 0-.252-.586.85.85 0 0 0-.608-.24h-1.72V17.43h2.033a.77.77 0 0 0 .58-.246.798.798 0 0 0 .235-.569.809.809 0 0 0-.24-.597.784.784 0 0 0-.575-.24h-2.925c-.26 0-.48.093-.66.28a.907.907 0 0 0-.267.646v6.339c0 .245.093.457.28.636a.895.895 0 0 0 .636.268Z" fill="#A6777E"/></svg>