<svg width="58" height="60" fill="none" xmlns="http://www.w3.org/2000/svg"><path fill-rule="evenodd" clip-rule="evenodd" d="M56.94 25.331a1.172 1.172 0 0 0-.982-.234l-17.885 3.826-2.006-.429 5.293-10.6.025-.053a12.64 12.64 0 0 0 1.07-5.115C42.456 5.709 36.748 0 29.73 0c-7.017 0-12.726 5.709-12.726 12.726 0 1.777.36 3.498 1.072 5.115.007.017.015.035.024.052l3.777 7.565-1.689-.361c-.015-.004-.031-.005-.048-.007a1.063 1.063 0 0 0-.068-.011c-.02-.003-.041-.003-.062-.005-.023 0-.045-.003-.068-.003l-.064.003c-.022.001-.044.002-.065.005-.023.002-.045.006-.067.01l-.049.007-18.13 3.88c-.54.115-.926.593-.926 1.146v9.665a1.172 1.172 0 1 0 2.343 0V31.07l15.787-3.377v26.31L2.984 57.379v-8.217a1.172 1.172 0 1 0-2.343 0v9.666a1.17 1.17 0 0 0 1.417 1.146l17.885-3.826 17.885 3.826a1.179 1.179 0 0 0 .097.016c.012 0 .024.003.036.004a1.133 1.133 0 0 0 .224 0l.036-.005.078-.012.02-.003 18.13-3.88c.54-.115.926-.592.926-1.145v-9.666a1.172 1.172 0 1 0-2.343 0v8.718l-15.787 3.378v-26.31l15.787-3.377v8.216a1.172 1.172 0 1 0 2.343 0v-9.665c0-.354-.16-.689-.434-.912ZM19.349 12.726C19.348 7 24.005 2.344 29.73 2.344S40.112 7 40.112 12.726c0 1.44-.29 2.836-.862 4.146L29.73 35.94l-9.52-19.068a10.3 10.3 0 0 1-.862-4.146Zm1.767 14.966 2.102.45 5.465 10.945a1.172 1.172 0 0 0 2.097 0l4.207-8.427 1.916.41v26.309L21.114 54V27.692Z" fill="#A6777E"/><path fill-rule="evenodd" clip-rule="evenodd" d="M37.265 12.726c0-4.155-3.38-7.536-7.535-7.536s-7.536 3.38-7.536 7.536c0 4.155 3.381 7.535 7.536 7.535 4.155 0 7.535-3.38 7.535-7.535Zm-12.727 0a5.198 5.198 0 0 1 5.192-5.192 5.198 5.198 0 0 1 5.192 5.192 5.198 5.198 0 0 1-5.192 5.191 5.198 5.198 0 0 1-5.192-5.191ZM1.813 45.647c.645 0 1.171-.526 1.171-1.172 0-.645-.526-1.172-1.171-1.172-.646 0-1.172.527-1.172 1.172 0 .645.526 1.172 1.171 1.172ZM56.203 39.424c-.645 0-1.171.526-1.171 1.172 0 .645.526 1.172 1.172 1.172.645 0 1.171-.527 1.171-1.172 0-.646-.526-1.172-1.172-1.172Z" fill="#A6777E"/></svg>