<svg width="60" height="60" fill="none" xmlns="http://www.w3.org/2000/svg"><path d="M58.828 15.826h-3.995c-1.244 0-2.459.49-3.42 1.38l-2.87 2.653h-4.198v-3.754c0-2.962-2.132-5.372-4.753-5.372h-2.56V8.637c0-1.422 1.024-2.58 2.282-2.58h5.381v2.084c0 .732.525 1.325 1.172 1.325h9.946C58.122 9.466 60 7.343 60 4.733 60 2.123 58.122 0 55.813 0h-9.946c-.647 0-1.172.593-1.172 1.325v2.083h-5.38c-2.551 0-4.626 2.346-4.626 5.23v2.095h-4.424c-.66 0-1.315.16-1.917.459L24.326 6.79c-1.432-1.568-3.318-2.431-5.312-2.431h-7.508c-3.584 0-6.5 3.296-6.5 7.347v4.943h-.253C2.132 16.65 0 19.06 0 22.022v18.423c0 2.962 2.132 5.372 4.753 5.372h9.05a4.763 4.763 0 0 0-.29 1.649V51.3c0 .732.524 1.325 1.171 1.325h1.527l-2.708 7.247c-.252.674.027 1.45.623 1.736.15.07.304.104.456.104.457 0 .891-.304 1.08-.81l3.093-8.277h2.126v7.762c0 .732.525 1.325 1.172 1.325.647 0 1.172-.593 1.172-1.325v-7.762h2.363l3.093 8.278c.19.505.623.81 1.08.81.152 0 .307-.034.456-.105.596-.285.875-1.062.623-1.736l-2.707-7.247h1.288c.647 0 1.172-.593 1.172-1.325v-3.834c0-.584-.104-1.14-.291-1.649h9.29c2.62 0 4.753-2.41 4.753-5.372v-4.787h4.198l2.87 2.653c.962.89 2.177 1.38 3.42 1.38h3.995c.647 0 1.172-.594 1.172-1.325v-4.863c0-.731-.525-1.325-1.172-1.325-.647 0-1.172.594-1.172 1.325v3.538h-2.823a2.858 2.858 0 0 1-1.937-.781l-2.763-2.554V21.812l2.763-2.555a2.858 2.858 0 0 1 1.937-.78h2.823v3.376c0 .732.525 1.325 1.172 1.325.647 0 1.172-.593 1.172-1.325v-4.702c0-.731-.525-1.325-1.172-1.325ZM47.038 2.65h8.775c1.016 0 1.843.935 1.843 2.084s-.827 2.083-1.843 2.083h-8.774V2.65ZM7.352 11.706c0-2.59 1.864-4.698 4.155-4.698h7.508c1.382 0 2.69.599 3.682 1.685l3.669 4.015-2.092 1.797-3.382-3.702c-.506-.554-1.172-.86-1.877-.86h-7.508c-.86 0-1.559.791-1.559 1.763v4.943H7.351v-4.943Zm15.033 4.42a2.24 2.24 0 0 1-1.418.523h-8.675v-4.056h6.723c.094 0 .178.04.246.113l3.124 3.42Zm5.865 31.34v2.51H15.856v-2.51c0-.91.654-1.649 1.458-1.649h9.477c.804 0 1.458.74 1.458 1.649Zm13.752-7.021c0 1.501-1.08 2.723-2.409 2.723H4.752c-1.328 0-2.408-1.222-2.408-2.723v-8.696h3.32c.648 0 1.172-.593 1.172-1.325 0-.731-.524-1.324-1.171-1.324H2.344v-3.123h3.32c.648 0 1.172-.593 1.172-1.324 0-.732-.524-1.325-1.171-1.325H2.344v-1.306c0-1.502 1.08-2.723 2.409-2.723h16.213c1.033 0 2.054-.39 2.876-1.096l4.966-4.266a2.246 2.246 0 0 1 1.457-.555h9.327c1.328 0 2.41 1.221 2.41 2.723v24.34Zm2.344-17.936h3.444v10.5h-3.444v-10.5Z" fill="#A6777E"/><path d="M34.358 29.666H28.42c-2.341 0-4.246 2.153-4.246 4.8 0 2.646 1.905 4.799 4.246 4.799h5.938c2.34 0 4.245-2.153 4.245-4.8 0-2.646-1.904-4.799-4.245-4.799Zm0 6.95H28.42c-1.049 0-1.902-.965-1.902-2.15 0-1.186.853-2.15 1.902-2.15h5.938c1.048 0 1.901.964 1.901 2.15 0 1.185-.853 2.15-1.901 2.15ZM59.802 27.024c-.349-.604-1.097-.766-1.624-.367-.532.402-.678 1.236-.324 1.837.355.602 1.093.764 1.625.366.527-.396.683-1.242.323-1.836Z" fill="#A6777E"/></svg>